{
.formatVersion = 3;
axes = (
{
name = Weight;
tag = wght;
}
);
familyName = "Esploratrice VF";
customParameters = (
{
name = glyphOrder;
value = (
.notdef,
A,
AE,
AEacute,
Aacute,
Abreve,
Acircumflex,
Adblgrave,
Adieresis,
Agrave,
Ainvertedbreve,
Amacron,
Aogonek,
Aring,
Aringacute,
Atilde,
B,
C,
Cacute,
Ccaron,
Ccedilla,
Ccircumflex,
Cdotaccent,
D,
DZ,
DZcaron,
Dcaron,
Dcroat,
Dzcaron,
E,
Eacute,
Ebreve,
Ecaron,
Ecircumflex,
Edblgrave,
Edieresis,
Edotaccent,
Egrave,
Einvertedbreve,
Emacron,
Eng,
Eogonek,
Eth,
F,
G,
Gacute,
Gbreve,
Gcircumflex,
Gcommaaccent,
Gdotaccent,
Germandbls,
H,
Hbar,
Hcircumflex,
I,
IJ,
Iacute,
Ibreve,
Icircumflex,
Idblgrave,
Idieresis,
Idotaccent,
Igrave,
Iinvertedbreve,
Imacron,
Iogonek,
Itilde,
J,
Jacute,
Jcircumflex,
K,
Kcommaaccent,
L,
LJ,
L_j,
Lacute,
Lcaron,
Lcommaaccent,
Ldot,
Lslash,
M,
N,
NJ,
N_j,
Nacute,
Ncaron,
Ncommaaccent,
Ngrave,
Ntilde,
O,
OE,
Oacute,
Obreve,
Ocircumflex,
Odblgrave,
Odieresis,
Ograve,
Ohm,
Ohungarumlaut,
Oinvertedbreve,
Omacron,
Omega,
Oslash,
Oslashacute,
Otilde,
P,
Q,
R,
Racute,
Rcaron,
Rcommaaccent,
Rdblgrave,
Rinvertedbreve,
S,
Sacute,
Scaron,
Scedilla,
Schwa,
Scircumflex,
Scommaaccent,
T,
Tbar,
Tcaron,
Tcedilla,
Tcommaaccent,
Thorn,
U,
Uacute,
Ubreve,
Ucircumflex,
Udblgrave,
Udieresis,
Ugrave,
Uhungarumlaut,
Uinvertedbreve,
Umacron,
Uogonek,
Uring,
Utilde,
V,
W,
Wacute,
Wcircumflex,
Wdieresis,
Wgrave,
X,
Y,
Yacute,
Ycircumflex,
Ydieresis,
Ygrave,
Z,
Zacute,
Zcaron,
Zdotaccent,
_corner.sharp,
_corner.sharp.S,
a,
aacute,
abreve,
acircumflex,
acute,
acutecomb,
adblgrave,
adieresis,
ae,
aeacute,
agrave,
ainvertedbreve,
amacron,
ampersand,
anticlockwiseOpenCircleArrow,
aogonek,
approxequal,
aring,
aringacute,
asciicircum,
asciitilde,
asterisk,
asterisk.part,
at,
at.case,
atilde,
b,
backslash,
bar,
blackCircle,
blackDiamond,
blackMediumDiamond,
blackSmallSquare,
blackSquare,
braceleft,
braceleft.case,
braceright,
braceright.case,
bracketleft,
bracketleft.case,
bracketright,
bracketright.case,
brevecomb,

glyphs = (
{
glyphname = .notdef;
layers = (
{
layerId = "9DC41883-06BB-4704-B6B2-BE0FA655C222";
shapes = (
{
closed = 1;
nodes = (
(535.571,-200,l),
(535.144,720,l),
(45.144,720,l),
(45.571,-200,l)
);
},
{
closed = 1;
nodes = (
(84.858,680,l),
(495.858,680,l),
(495.857,-160,l),
(84.857,-160,l)
);
}
);
width = 581;
},
{
layerId = "6DBF946B-D1CC-402F-8126-F74CC4A62DD0";
shapes = (
{
closed = 1;
nodes = (
(535.571,-200,l),
(535.001,728,l),
(45.001,728,l),
(45.571,-200,l)
);
},
{
closed = 1;
nodes = (
(76.573,696,l),
(504.573,696,l),
(504.,-168,l),
(77.,-168,l)
);
}
);
width = 581;
},
{
layerId = "94E3E3CE-F120-43CB-86CD-384D4F8954CA";
shapes = (
{
closed = 1;
nodes = (
(535.571,-200,l),
(535.001,700,l),
(45.001,700,l),
(45.571,-200,l)
);
},
{
closed = 1;
nodes = (
(104.573,640,l),
(476.573,640,l),
(477.,-140,l),
(104.,-140,l)
);
}
);
width = 581;
}
);
},
{
glyphname = A;
layers = (
{
anchors = (
{
name = bottom;
position = "{255, 0}";
},
{
name = ogonek;
position = "{540, 0}";
},
{
name = top;
position = "{255, 700}";
}
);
layerId = "94E3E3CE-F120-43CB-86CD-384D4F8954CA";
shapes = (
{
closed = 1;
nodes = (
(129,0,l),
(332,602,l,{name = cr01;}),
(375,705,l),
(374,706,l),
(268,700,l),
(325,700,l),
(368,0,l),
(529,0,l),
(474,700,l),
(221,700,l),
(-31,0,l)
);
},
{
closed = 1;
nodes = (
(450,147,l),
(471,293,l),
(110,293,l),
(89,147,l)
);
}
);
width = 576;
},
{
anchors = (
{
name = bottom;
position = "{255, 0}";
},
{
name = ogonek;
position = "{530, 0}";
},
{
name = top;
position = "{255, 700}";
}
);
layerId = "9DC41883-06BB-4704-B6B2-BE0FA655C222";
shapes = (
{
closed = 1;
nodes = (
(60,0,l),
(317,605,l,{name = cr01;}),
(362,702,l),
(361,703,l),
(261,700,l),
(332,700,l),
(436,0,l),
(518,0,l),
(411,700,l),
(284,700,l),
(-22,0,l)
);
},
{
closed = 1;
nodes = (
(448,207,l),
(458,281,l),
(117,281,l),
(107,207,l)
);
}
);
width = 576;
},
{
anchors = (
{
name = bottom;
position = "{255, 0}";
},
{
name = ogonek;
position = "{526, 0}";
},
{
name = top;
position = "{255, 700}";
}
);
layerId = "6DBF946B-D1CC-402F-8126-F74CC4A62DD0";
shapes = (
{
closed = 1;
nodes = (
(32,0,l),
(311,606,l),
(356,701,l),
(356,702,l),
(259,700,l),
(335,700,l),
(463,0,l),
(514,0,l),
(387,700,l),
(309,700,l),
(-18,0,l)
);
},
{
closed = 1;
nodes = (
(447,231,l),
(453,276,l),
(120,276,l),
(114,231,l)
);
}
);
width = 575;
}
);
leftKerningGroup = public.kern2.R_A;
rightKerningGroup = public.kern1.L_A;
unicode = 65;
},
{
glyphname = AE;
layers = (
{
layerId = "17E587F8-1658-4EA1-B692-913C09764BD7";
name = "#instance";
shapes = (
{
closed = 1;
nodes = (
(-27,0,l),
(30,0,l),
(571,700,l),
(516,700,l)
);
},
{
closed = 1;
nodes = (
(183,231,l),
(493,231,l),
(499,276,l),
(190,276,l)
);
},
{
closed = 1;
nodes = (
(511,652,l),
(533,652,l),
(539,656,l),
(888,656,l),
(894,700,l),
(518,700,l)
);
},
{
closed = 1;
nodes = (
(435,0,l),
(486,0,l),
(580,657,l),
(529,657,l)
);
},
{
closed = 1;
nodes = (
(513,341,l),
(822,341,l),
(828,385,l),
(519,385,l)
);
},
{
closed = 1;
nodes = (
(435,0,l),
(794,0,l),
(800,44,l),
(442,44,l)
);
}
);
width = 891;
},
{
layerId = "9DC41883-06BB-4704-B6B2-BE0FA655C222";
shapes = (
{
closed = 1;
nodes = (
(-31,0,l),
(59,0,l),
(556,700,l),
(474,700,l)
);
},
{
closed = 1;
nodes = (
(176,207,l),
(478,207,l),
(488,281,l),
(187,281,l)
);
},
{
closed = 1;
nodes = (
(476,626,l),
(527,626,l),
(533,626,l),
(868,626,l),
(879,700,l),
(487,700,l)
);
},
{
closed = 1;
nodes = (
(416,0,l),
(494,0,l),
(588,657,l),
(510,657,l)
);
},
{
closed = 1;
nodes = (
(521,324,l),
(807,324,l),
(818,396,l),
(531,396,l)
);
},
{
closed = 1;
nodes = (
(416,0,l),
(779,0,l),
(789,74,l),
(427,74,l)
);
}
);
width = 868;
},
{
layerId = "6DBF946B-D1CC-402F-8126-F74CC4A62DD0";
shapes = (
{
closed = 1;
nodes = (
(-27,0,l),
(30,0,l),
(571,700,l),
(516,700,l)
);
},
{
closed = 1;
nodes = (
(183,231,l),
(493,231,l),
(499,276,l),
(190,276,l)
);
},
{
closed = 1;
nodes = (
(511,652,l),
(533,652,l),
(539,656,l),
(888,656,l),
(894,700,l),
(518,700,l)
);
},
{
closed = 1;
nodes = (
(435,0,l),
(486,0,l),
(580,657,l),
(529,657,l)
);
},
{
closed = 1;
nodes = (
(513,341,l),
(822,341,l),
(828,385,l),
(519,385,l)
);
},
{
closed = 1;
nodes = (
(435,0,l),
(794,0,l),
(800,44,l),
(442,44,l)
);
}
);
width = 891;
},
{
layerId = "94E3E3CE-F120-43CB-86CD-384D4F8954CA";
shapes = (
{
closed = 1;
nodes = (
(-40,0,l),
(133,0,l),
(521,700,l),
(370,700,l)
);
},
{
closed = 1;
nodes = (
(158,147,l),
(441,147,l),
(461,293,l),
(179,293,l)
);
},
{
closed = 1;
nodes = (
(388,560,l),
(510,560,l),
(519,550,l),
(818,550,l),
(839,700,l),
(408,700,l)
);
},
{
closed = 1;
nodes = (
(367,0,l),
(514,0,l),
(608,657,l),
(461,657,l)
);
},
{
closed = 1;
nodes = (
(466,281,l),
(769,281,l),
(790,423,l),
(486,423,l)
);
},
{
closed = 1;
nodes = (
(367,0,l),
(739,0,l),
(761,150,l),
(388,150,l)
);
}
);
width = 810;
}
);
unicode = 198;
},
{
glyphname = Abreve;
layers = (
{
layerId = "9DC41883-06BB-4704-B6B2-BE0FA655C222";
shapes = (
{
closed = 1;
nodes = (
(60,0,l),
(317,605,l,{name = cr01;}),
(362,702,l),
(361,703,l),
(261,700,l),
(332,700,l),
(436,0,l),
(518,0,l),
(411,700,l),
(284,700,l),
(-22,0,l)
);
},
{
closed = 1;
nodes = (
(448,207,l),
(458,281,l),
(117,281,l),
(107,207,l)
);
},
{
closed = 1;
nodes = (
(439,770,o),
(506,836,o),
(519,925,c),
(231,925,l),
(218,836,o),
(267,770,o),
(353,770,cs)
);
},
{
closed = 1;
nodes = (
(309,830,o),
(282,868,o),
(290,925,c),
(460,925,l),
(452,868,o),
(413,830,o),
(361,830,cs)
);
}
);
width = 591;
},
{
layerId = "6DBF946B-D1CC-402F-8126-F74CC4A62DD0";
shapes = (
{
closed = 1;
nodes = (
(32,0,l),
(311,606,l),
(356,701,l),
(356,702,l),
(259,700,l),
(335,700,l),
(463,0,l),
(514,0,l),
(387,700,l),
(309,700,l),
(-18,0,l)
);
},
{
closed = 1;
nodes = (
(447,231,l),
(453,276,l),
(120,276,l),
(114,231,l)
);
},
{
closed = 1;
nodes = (
(433,786,o),
(497,848,o),
(509,933,c),
(242,933,l),
(230,848,o),
(275,786,o),
(354,786,cs)
);
},
{
closed = 1;
nodes = (
(304,830,o),
(273,871,o),
(282,933,c),
(468,933,l),
(459,871,o),
(418,830,o),
(361,830,cs)
);
}
);
width = 591;
},
{
layerId = "94E3E3CE-F120-43CB-86CD-384D4F8954CA";
shapes = (
{
closed = 1;
nodes = (
(129,0,l),
(332,602,l,{name = cr01;}),
(375,705,l),
(374,706,l),
(268,700,l),
(325,700,l),
(368,0,l),
(529,0,l),
(474,700,l),
(221,700,l),
(-31,0,l)
);
},
{
closed = 1;
nodes = (
(450,147,l),
(471,293,l),
(110,293,l),
(89,147,l)
);
},
{
closed = 1;
nodes = (
(452,730,o),
(532,805,o),
(546,905,c),
(203,905,l),
(189,805,o),
(246,730,o),
(349,730,cs)
);
},
{
closed = 1;
nodes = (
(323,830,o),
(302,860,o),
(308,905,c),
(440,905,l),
(434,860,o),
(403,830,o),
(363,830,cs)
);
}
);
width = 590;
}
);
unicode = 258;
},
{
glyphname = Amacron;
layers = (
{
layerId = "9DC41883-06BB-4704-B6B2-BE0FA655C222";
shapes = (
{
closed = 1;
nodes = (
(60,0,l),
(317,605,l,{name = cr01;}),
(362,702,l),
(361,703,l),
(261,700,l),
(332,700,l),
(436,0,l),
(518,0,l),
(411,700,l),
(284,700,l),
(-22,0,l)
);
},
{
closed = 1;
nodes = (
(448,207,l),
(458,281,l),
(117,281,l),
(107,207,l)
);
},
{
closed = 1;
nodes = (
(506,810,l),
(514,870,l),
(220,870,l),
(212,810,l)
);
}
);
width = 591;
},
{
layerId = "6DBF946B-D1CC-402F-8126-F74CC4A62DD0";
shapes = (
{
closed = 1;
nodes = (
(32,0,l),
(311,606,l),
(356,701,l),
(356,702,l),
(259,700,l),
(335,700,l),
(463,0,l),
(514,0,l),
(387,700,l),
(309,700,l),
(-18,0,l)
);
},
{
closed = 1;
nodes = (
(447,231,l),
(453,276,l),
(120,276,l),
(114,231,l)
);
},
{
closed = 1;
nodes = (
(508,828,l),
(514,868,l),
(220,868,l),
(214,828,l)
);
}
);
width = 591;
},
{
layerId = "94E3E3CE-F120-43CB-86CD-384D4F8954CA";
shapes = (
{
closed = 1;
nodes = (
(129,0,l),
(332,602,l,{name = cr01;}),
(375,705,l),
(374,706,l),
(268,700,l),
(325,700,l),
(368,0,l),
(529,0,l),
(474,700,l),
(221,700,l),
(-31,0,l)
);
},
{
closed = 1;
nodes = (
(450,147,l),
(471,293,l),
(110,293,l),
(89,147,l)
);
},
{
closed = 1;
nodes = (
(499,765,l),
(515,875,l),
(221,875,l),
(205,765,l)
);
}
);
width = 590;
}
);
unicode = 256;
},
{
glyphname = Aogonek;
layers = (
{
layerId = "9DC41883-06BB-4704-B6B2-BE0FA655C222";
shapes = (
{
closed = 1;
nodes = (
(60,0,l),
(317,605,l,{name = cr01;}),
(362,702,l),
(361,703,l),
(261,700,l),
(332,700,l),
(436,0,l),
(518,0,l),
(411,700,l),
(284,700,l),
(-22,0,l)
);
},
{
closed = 1;
nodes = (
(448,207,l),
(458,281,l),
(117,281,l),
(107,207,l)
);
},
{
closed = 1;
nodes = (
(474,18,l),
(432,2,o),
(375,-30,o),
(366,-95,cs),
(356,-166,o),
(413,-190,o),
(471,-190,cs),
(505,-190,l),
(514,-126,l),
(489,-126,ls),
(459,-126,o),
(428,-115,o),
(433,-77,cs),
(438,-41,o),
(469,-18,o),
(517,0,c)
);
}
);
width = 591;
},
{
layerId = "6DBF946B-D1CC-402F-8126-F74CC4A62DD0";
shapes = (
{
closed = 1;
nodes = (
(32,0,l),
(311,606,l),
(356,701,l),
(356,702,l),
(259,700,l),
(335,700,l),
(463,0,l),
(514,0,l),
(387,700,l),
(309,700,l),
(-18,0,l)
);
},
{
closed = 1;
nodes = (
(447,231,l),
(453,276,l),
(120,276,l),
(114,231,l)
);
},
{
closed = 1;
nodes = (
(483,7,l),
(448,-4,o),
(395,-32,o),
(387,-91,cs),
(378,-153,o),
(424,-178,o),
(477,-178,cs),
(497,-178,l),
(503,-134,l),
(483,-134,ls),
(456,-134,o),
(420,-123,o),
(426,-81,cs),
(432,-42,o),
(463,-20,o),
(511,0,c)
);
}
);
width = 591;
},
{
layerId = "94E3E3CE-F120-43CB-86CD-384D4F8954CA";
shapes = (
{
closed = 1;
nodes = (
(129,0,l),
(332,602,l,{name = cr01;}),
(375,705,l),
(374,706,l),
(268,700,l),
(325,700,l),
(368,0,l),
(529,0,l),
(474,700,l),
(221,700,l),
(-31,0,l)
);
},
{
closed = 1;
nodes = (
(450,147,l),
(471,293,l),
(110,293,l),
(89,147,l)
);
},
{
closed = 1;
nodes = (
(451,45,l),
(388,16,o),
(324,-26,o),
(313,-104,cs),
(299,-199,o),
(384,-220,o),
(455,-220,cs),
(526,-220,l),
(542,-106,l),
(503,-106,ls),
(465,-106,o),
(446,-94,o),
(450,-68,cs),
(454,-39,o),
(484,-12,o),
(532,0,c)
);
}
);
width = 590;
}
);
unicode = 260;
},
{
glyphname = B;
layers = (
{
layerId = "17E587F8-1658-4EA1-B692-913C09764BD7";
name = "#instance";
shapes = (
{
closed = 1;
nodes = (
(197,0,ls),
(319,0,o),
(417,74,o),
(434,191,cs),
(451,311,o),
(372,382,o),
(269,382,c),
(260,357,l),
(357,357,o),
(450,405,o),
(466,518,cs),
(482,629,o),
(408,700,o),
(291,700,cs),
(170,700,l),
(163,652,l),
(288,652,ls),
(363,652,o),
(430,617,o),
(416,519,cs),
(402,422,o),
(325,388,o),
(250,388,cs),
(111,388,l),
(104,340,l),
(249,340,ls),
(332,340,o),
(401,293,o),
(387,194,cs),
(373,94,o),
(291,48,o),
(208,48,cs),
(76,48,l),
(70,0,l)
);
},
{
closed = 1;
nodes = (
(73,0,l),
(173,700,l),
(126,700,l),
(26,0,l)
);
}
);
width = 497;
},
{
layerId = "9DC41883-06BB-4704-B6B2-BE0FA655C222";
shapes = (
{
closed = 1;
nodes = (
(205,0,ls),
(332,0,o),
(431,70,o),
(448,188,cs),
(465,308,o),
(386,376,o),
(281,376,c),
(272,355,l),
(371,355,o),
(464,406,o),
(480,519,cs),
(496,630,o),
(421,700,o),
(299,700,cs),
(178,700,l),
(168,628,l),
(289,628,ls),
(355,628,o),
(412,597,o),
(400,512,cs),
(388,427,o),
(322,397,o),
(256,397,cs),
(135,397,l),
(125,327,l),
(252,327,ls),
(324,327,o),
(383,287,o),
(371,200,cs),
(358,112,o),
(288,72,o),
(216,72,cs),
(88,72,l),
(78,0,l)
);
},
{
closed = 1;
nodes = (
(98,0,l),
(198,700,l),
(119,700,l),
(19,0,l)
);
}
);
width = 506;
},
{
layerId = "6DBF946B-D1CC-402F-8126-F74CC4A62DD0";
shapes = (
{
closed = 1;
nodes = (
(197,0,ls),
(319,0,o),
(417,74,o),
(434,191,cs),
(451,311,o),
(372,382,o),
(269,382,c),
(260,357,l),
(357,357,o),
(450,405,o),
(466,518,cs),
(482,629,o),
(408,700,o),
(291,700,cs),
(170,700,l),
(163,652,l),
(288,652,ls),
(363,652,o),
(430,617,o),
(416,519,cs),
(402,422,o),
(325,388,o),
(250,388,cs),
(111,388,l),
(104,340,l),
(249,340,ls),
(332,340,o),
(401,293,o),
(387,194,cs),
(373,94,o),
(291,48,o),
(208,48,cs),
(76,48,l),
(70,0,l)
);
},
{
closed = 1;
nodes = (
(73,0,l),
(173,700,l),
(126,700,l),
(26,0,l)
);
}
);
width = 497;
},
{
layerId = "94E3E3CE-F120-43CB-86CD-384D4F8954CA";
shapes = (
{
closed = 1;
nodes = (
(226,0,ls),
(369,0,o),
(465,61,o),
(482,180,cs),
(499,300,o),
(418,360,o),
(309,360,c),
(303,350,l),
(406,350,o),
(502,409,o),
(518,522,cs),
(534,632,o),
(458,700,o),
(321,700,cs),
(199,700,l),
(180,568,l),
(293,568,ls),
(333,568,o),
(369,547,o),
(361,494,cs),
(353,440,o),
(312,419,o),
(272,419,cs),
(120,419,l),
(102,295,l),
(259,295,ls),
(302,295,o),
(338,271,o),
(330,214,cs),
(322,156,o),
(278,132,o),
(235,132,cs),
(118,132,l),
(99,0,l)
);
},
{
closed = 1;
nodes = (
(158,0,l),
(258,700,l),
(101,700,l),
(1,0,l)
);
}
);
width = 528;
}
);
leftKerningGroup = public.kern2.R_H;
rightKerningGroup = public.kern1.L_B;
unicode = 66;
},
{
glyphname = C;
layers = (
{
anchors = (
{
name = bottom;
position = "{320, 0}";
},
{
name = top;
position = "{320, 700}";
}
);
layerId = "94E3E3CE-F120-43CB-86CD-384D4F8954CA";
shapes = (
{
closed = 1;
nodes = (
(637,672,l),
(589,694,o),
(527,712,o),
(452,712,cs),
(236,712,o),
(63,560,o),
(33,350,cs),
(3,140,o),
(133,-12,o),
(349,-12,cs),
(424,-12,o),
(491,6,o),
(545,28,c),
(569,196,l),
(495,163,o),
(435,142,o),
(374,142,cs),
(247,142,o),
(177,235,o),
(193,350,cs),
(210,466,o),
(307,558,o),
(434,558,cs),
(495,558,o),
(549,538,o),
(613,504,c)
);
}
);
width = 604;
},
{
anchors = (
{
name = bottom;
position = "{326, 0}";
},
{
name = top;
position = "{326, 700}";
}
);
layerId = "9DC41883-06BB-4704-B6B2-BE0FA655C222";
shapes = (
{
closed = 1;
nodes = (
(637,668,l),
(587,689,o),
(527,708,o),
(451,708,cs),
(247,708,o),
(81,560,o),
(51,350,cs),
(21,140,o),
(145,-8,o),
(349,-8,cs),
(425,-8,o),
(490,11,o),
(546,32,c),
(558,116,l),
(486,85,o),
(425,66,o),
(363,66,cs),
(198,66,o),
(108,191,o),
(131,350,cs),
(154,511,o),
(279,634,o),
(444,634,cs),
(506,634,o),
(563,616,o),
(625,584,c)
);
}
);
width = 613;
},
{
anchors = (
{
name = bottom;
position = "{328, 0}";
},
{
name = top;
position = "{328, 700}";
}
);
layerId = "6DBF946B-D1CC-402F-8126-F74CC4A62DD0";
shapes = (
{
closed = 1;
nodes = (
(637,666,l),
(586,687,o),
(527,706,o),
(450,706,cs),
(251,706,o),
(88,560,o),
(58,350,cs),
(28,140,o),
(149,-6,o),
(348,-6,cs),
(425,-6,o),
(490,13,o),
(547,34,c),
(554,84,l),
(483,54,o),
(421,36,o),
(358,36,cs),
(179,36,o),
(81,173,o),
(106,350,cs),
(132,529,o),
(269,664,o),
(448,664,cs),
(511,664,o),
(569,647,o),
(630,616,c)
);
}
);
width = 617;
}
);
leftKerningGroup = public.kern2.R_O;
rightKerningGroup = public.kern1.L_C;
unicode = 67;
},
{
glyphname = Ccaron;
layers = (
{
layerId = "9DC41883-06BB-4704-B6B2-BE0FA655C222";
shapes = (
{
closed = 1;
nodes = (
(637,668,l),
(587,689,o),
(527,708,o),
(451,708,cs),
(247,708,o),
(81,560,o),
(51,350,cs),
(21,140,o),
(145,-8,o),
(349,-8,cs),
(425,-8,o),
(490,11,o),
(546,32,c),
(558,116,l),
(486,85,o),
(425,66,o),
(363,66,cs),
(198,66,o),
(108,191,o),
(131,350,cs),
(154,511,o),
(279,634,o),
(444,634,cs),
(506,634,o),
(563,616,o),
(625,584,c)
);
},
{
closed = 1;
nodes = (
(451,775,l),
(372,925,l),
(303,925,l),
(380,775,l)
);
},
{
closed = 1;
nodes = (
(589,925,l),
(519,925,l),
(398,775,l),
(469,775,l)
);
}
);
width = 632;
},
{
layerId = "6DBF946B-D1CC-402F-8126-F74CC4A62DD0";
shapes = (
{
closed = 1;
nodes = (
(637,666,l),
(586,687,o),
(527,706,o),
(450,706,cs),
(251,706,o),
(88,560,o),
(58,350,cs),
(28,140,o),
(149,-6,o),
(348,-6,cs),
(425,-6,o),
(490,13,o),
(547,34,c),
(554,84,l),
(483,54,o),
(421,36,o),
(358,36,cs),
(179,36,o),
(81,173,o),
(106,350,cs),
(132,529,o),
(269,664,o),
(448,664,cs),
(511,664,o),
(569,647,o),
(630,616,c)
);
},
{
closed = 1;
nodes = (
(442,791,l),
(367,933,l),
(320,933,l),
(399,791,l)
);
},
{
closed = 1;
nodes = (
(575,933,l),
(529,933,l),
(413,791,l),
(456,791,l)
);
}
);
width = 637;
},
{
layerId = "94E3E3CE-F120-43CB-86CD-384D4F8954CA";
shapes = (
{
closed = 1;
nodes = (
(637,672,l),
(589,694,o),
(527,712,o),
(452,712,cs),
(236,712,o),
(63,560,o),
(33,350,cs),
(3,140,o),
(133,-12,o),
(349,-12,cs),
(424,-12,o),
(491,6,o),
(545,28,c),
(569,196,l),
(495,163,o),
(435,142,o),
(374,142,cs),
(247,142,o),
(177,235,o),
(193,350,cs),
(210,466,o),
(307,558,o),
(434,558,cs),
(495,558,o),
(549,538,o),
(613,504,c)
);
},
{
closed = 1;
nodes = (
(471,735,l),
(386,905,l),
(258,905,l),
(332,735,l)
);
},
{
closed = 1;
nodes = (
(622,905,l),
(494,905,l),
(360,735,l),
(499,735,l)
);
}
);
width = 620;
}
);
unicode = 268;
},
{
glyphname = D;
layers = (
{
layerId = "9DC41883-06BB-4704-B6B2-BE0FA655C222";
shapes = (
{
closed = 1;
nodes = (
(19,0,l),
(98,0,l),
(198,700,l),
(119,700,l)
);
},
{
closed = 1;
nodes = (
(488,180,o),
(380,74,o),
(175,74,cs),
(69,74,l),
(58,0,l),
(164,0,ls),
(398,0,o),
(561,130,o),
(592,350,cs),
(623,570,o),
(498,700,o),
(264,700,cs),
(158,700,l),
(148,626,l),
(254,626,ls),
(459,626,o),
(536,520,o),
(512,350,cs)
);
}
);
width = 623;
},
{
layerId = "6DBF946B-D1CC-402F-8126-F74CC4A62DD0";
shapes = (
{
closed = 1;
nodes = (
(26,0,l),
(73,0,l),
(173,700,l),
(126,700,l)
);
},
{
closed = 1;
nodes = (
(491,161,o),
(371,43,o),
(145,43,cs),
(60,43,l),
(54,0,l),
(139,0,ls),
(372,0,o),
(535,130,o),
(566,350,cs),
(597,570,o),
(472,700,o),
(239,700,cs),
(154,700,l),
(148,657,l),
(233,657,ls),
(459,657,o),
(545,539,o),
(518,350,cs)
);
}
);
width = 604;
},
{
layerId = "94E3E3CE-F120-43CB-86CD-384D4F8954CA";
shapes = (
{
closed = 1;
nodes = (
(1,0,l),
(158,0,l),
(258,700,l),
(101,700,l)
);
},
{
closed = 1;
nodes = (
(479,228,o),
(399,152,o),
(248,152,cs),
(91,152,l),
(70,0,l),
(226,0,ls),
(462,0,o),
(628,130,o),
(659,350,cs),
(690,570,o),
(562,700,o),
(326,700,cs),
(170,700,l),
(148,548,l),
(305,548,ls),
(456,548,o),
(513,472,o),
(496,350,cs)
);
}
);
width = 671;
}
);
leftKerningGroup = public.kern2.R_H;
rightKerningGroup = public.kern1.L_O;
unicode = 68;
},
{
glyphname = Dcaron;
layers = (
{
layerId = "9DC41883-06BB-4704-B6B2-BE0FA655C222";
shapes = (
{
closed = 1;
nodes = (
(19,0,l),
(98,0,l),
(198,700,l),
(119,700,l)
);
},
{
closed = 1;
nodes = (
(488,180,o),
(380,74,o),
(175,74,cs),
(69,74,l),
(58,0,l),
(164,0,ls),
(398,0,o),
(561,130,o),
(592,350,cs),
(623,570,o),
(498,700,o),
(264,700,cs),
(158,700,l),
(148,626,l),
(254,626,ls),
(459,626,o),
(536,520,o),
(512,350,cs)
);
},
{
closed = 1;
nodes = (
(363,775,l),
(284,925,l),
(215,925,l),
(292,775,l)
);
},
{
closed = 1;
nodes = (
(501,925,l),
(431,925,l),
(310,775,l),
(381,775,l)
);
}
);
width = 644;
},
{
layerId = "6DBF946B-D1CC-402F-8126-F74CC4A62DD0";
shapes = (
{
closed = 1;
nodes = (
(26,0,l),
(73,0,l),
(173,700,l),
(126,700,l)
);
},
{
closed = 1;
nodes = (
(491,161,o),
(371,43,o),
(145,43,cs),
(60,43,l),
(54,0,l),
(139,0,ls),
(372,0,o),
(535,130,o),
(566,350,cs),
(597,570,o),
(472,700,o),
(239,700,cs),
(154,700,l),
(148,657,l),
(233,657,ls),
(459,657,o),
(545,539,o),
(518,350,cs)
);
},
{
closed = 1;
nodes = (
(337,791,l),
(262,933,l),
(215,933,l),
(294,791,l)
);
},
{
closed = 1;
nodes = (
(470,933,l),
(424,933,l),
(308,791,l),
(351,791,l)
);
}
);
width = 626;
},
{
layerId = "94E3E3CE-F120-43CB-86CD-384D4F8954CA";
shapes = (
{
closed = 1;
nodes = (
(1,0,l),
(158,0,l),
(258,700,l),
(101,700,l)
);
},
{
closed = 1;
nodes = (
(479,228,o),
(399,152,o),
(248,152,cs),
(91,152,l),
(70,0,l),
(226,0,ls),
(462,0,o),
(628,130,o),
(659,350,cs),
(690,570,o),
(562,700,o),
(326,700,cs),
(170,700,l),
(148,548,l),
(305,548,ls),
(456,548,o),
(513,472,o),
(496,350,cs)
);
},
{
closed = 1;
nodes = (
(426,735,l),
(341,905,l),
(213,905,l),
(287,735,l)
);
},
{
closed = 1;
nodes = (
(577,905,l),
(449,905,l),
(315,735,l),
(454,735,l)
);
}
);
width = 690;
}
);
unicode = 270;
},
{
glyphname = E;
layers = (
{
anchors = (
{
name = bottom;
position = "{195, 0}";
},
{
name = ogonek;
position = "{395, 0}";
},
{
name = top;
position = "{195, 700}";
},
{
name = topleft;
position = "{-20, 700}";
}
);
layerId = "94E3E3CE-F120-43CB-86CD-384D4F8954CA";
shapes = (
{
closed = 1;
nodes = (
(178,550,l),
(462,550,l),
(483,700,l),
(199,700,l)
);
},
{
closed = 1;
nodes = (
(1,0,l),
(158,0,l),
(258,700,l),
(101,700,l)
);
},
{
closed = 1;
nodes = (
(139,281,l),
(413,281,l),
(434,423,l),
(159,423,l)
);
},
{
closed = 1;
nodes = (
(99,0,l),
(383,0,l),
(405,150,l),
(120,150,l)
);
}
);
width = 455;
},
{
anchors = (
{
name = bottom;
position = "{205, 0}";
},
{
name = ogonek;
position = "{395, 0}";
},
{
name = top;
position = "{205, 700}";
},
{
name = topleft;
position = "{-20, 700}";
}
);
layerId = "9DC41883-06BB-4704-B6B2-BE0FA655C222";
shapes = (
{
closed = 1;
nodes = (
(167,626,l),
(471,626,l),
(482,700,l),
(178,700,l)
);
},
{
closed = 1;
nodes = (
(19,0,l),
(98,0,l),
(198,700,l),
(119,700,l)
);
},
{
closed = 1;
nodes = (
(124,324,l),
(410,324,l),
(421,396,l),
(135,396,l)
);
},
{
closed = 1;
nodes = (
(78,0,l),
(382,0,l),
(392,74,l),
(89,74,l)
);
}
);
width = 471;
},
{
anchors = (
{
name = bottom;
position = "{209, 0}";
},
{
name = ogonek;
position = "{395, 0}";
},
{
name = top;
position = "{209, 700}";
},
{
name = topleft;
position = "{-20, 700}";
}
);
layerId = "6DBF946B-D1CC-402F-8126-F74CC4A62DD0";
shapes = (
{
closed = 1;
nodes = (
(163,656,l),
(475,656,l),
(481,700,l),
(170,700,l)
);
},
{
closed = 1;
nodes = (
(26,0,l),
(73,0,l),
(173,700,l),
(126,700,l)
);
},
{
closed = 1;
nodes = (
(118,341,l),
(409,341,l),
(416,385,l),
(125,385,l)
);
},
{
closed = 1;
nodes = (
(70,0,l),
(381,0,l),
(387,44,l),
(76,44,l)
);
}
);
width = 478;
}
);
leftKerningGroup = public.kern2.R_H;
rightKerningGroup = public.kern1.L_E;
unicode = 69;
},
{
glyphname = Ebreve;
layers = (
{
layerId = "9DC41883-06BB-4704-B6B2-BE0FA655C222";
shapes = (
{
closed = 1;
nodes = (
(167,626,l),
(471,626,l),
(482,700,l),
(178,700,l)
);
},
{
closed = 1;
nodes = (
(19,0,l),
(98,0,l),
(198,700,l),
(119,700,l)
);
},
{
closed = 1;
nodes = (
(124,324,l),
(410,324,l),
(421,396,l),
(135,396,l)
);
},
{
closed = 1;
nodes = (
(78,0,l),
(382,0,l),
(392,74,l),
(89,74,l)
);
},
{
closed = 1;
nodes = (
(389,770,o),
(456,836,o),
(469,925,c),
(181,925,l),
(168,836,o),
(217,770,o),
(303,770,cs)
);
},
{
closed = 1;
nodes = (
(259,830,o),
(232,868,o),
(240,925,c),
(410,925,l),
(402,868,o),
(363,830,o),
(311,830,cs)
);
}
);
width = 490;
},
{
layerId = "6DBF946B-D1CC-402F-8126-F74CC4A62DD0";
shapes = (
{
closed = 1;
nodes = (
(163,656,l),
(475,656,l),
(481,700,l),
(170,700,l)
);
},
{
closed = 1;
nodes = (
(26,0,l),
(73,0,l),
(173,700,l),
(126,700,l)
);
},
{
closed = 1;
nodes = (
(118,341,l),
(409,341,l),
(416,385,l),
(125,385,l)
);
},
{
closed = 1;
nodes = (
(70,0,l),
(381,0,l),
(387,44,l),
(76,44,l)
);
},
{
closed = 1;
nodes = (
(387,786,o),
(451,848,o),
(463,933,c),
(196,933,l),
(184,848,o),
(229,786,o),
(308,786,cs)
);
},
{
closed = 1;
nodes = (
(258,830,o),
(227,871,o),
(236,933,c),
(422,933,l),
(413,871,o),
(372,830,o),
(315,830,cs)
);
}
);
width = 498;
},
{
layerId = "94E3E3CE-F120-43CB-86CD-384D4F8954CA";
shapes = (
{
closed = 1;
nodes = (
(178,550,l),
(462,550,l),
(483,700,l),
(199,700,l)
);
},
{
closed = 1;
nodes = (
(1,0,l),
(158,0,l),
(258,700,l),
(101,700,l)
);
},
{
closed = 1;
nodes = (
(139,281,l),
(413,281,l),
(434,423,l),
(159,423,l)
);
},
{
closed = 1;
nodes = (
(99,0,l),
(383,0,l),
(405,150,l),
(120,150,l)
);
},
{
closed = 1;
nodes = (
(392,730,o),
(472,805,o),
(486,905,c),
(143,905,l),
(129,805,o),
(186,730,o),
(289,730,cs)
);
},
{
closed = 1;
nodes = (
(263,830,o),
(242,860,o),
(248,905,c),
(380,905,l),
(374,860,o),
(343,830,o),
(303,830,cs)
);
}
);
width = 470;
}
);
unicode = 276;
},
{
glyphname = Ecaron;
layers = (
{
layerId = "9DC41883-06BB-4704-B6B2-BE0FA655C222";
shapes = (
{
closed = 1;
nodes = (
(167,626,l),
(471,626,l),
(482,700,l),
(178,700,l)
);
},
{
closed = 1;
nodes = (
(19,0,l),
(98,0,l),
(198,700,l),
(119,700,l)
);
},
{
closed = 1;
nodes = (
(124,324,l),
(410,324,l),
(421,396,l),
(135,396,l)
);
},
{
closed = 1;
nodes = (
(78,0,l),
(382,0,l),
(392,74,l),
(89,74,l)
);
},
{
closed = 1;
nodes = (
(330,775,l),
(251,925,l),
(182,925,l),
(259,775,l)
);
},
{
closed = 1;
nodes = (
(468,925,l),
(398,925,l),
(277,775,l),
(348,775,l)
);
}
);
width = 490;
},
{
layerId = "6DBF946B-D1CC-402F-8126-F74CC4A62DD0";
shapes = (
{
closed = 1;
nodes = (
(163,656,l),
(475,656,l),
(481,700,l),
(170,700,l)
);
},
{
closed = 1;
nodes = (
(26,0,l),
(73,0,l),
(173,700,l),
(126,700,l)
);
},
{
closed = 1;
nodes = (
(118,341,l),
(409,341,l),
(416,385,l),
(125,385,l)
);
},
{
closed = 1;
nodes = (
(70,0,l),
(381,0,l),
(387,44,l),
(76,44,l)
);
},
{
closed = 1;
nodes = (
(323,791,l),
(248,933,l),
(201,933,l),
(280,791,l)
);
},
{
closed = 1;
nodes = (
(456,933,l),
(410,933,l),
(294,791,l),
(337,791,l)
);
}
);
width = 498;
},
{
layerId = "94E3E3CE-F120-43CB-86CD-384D4F8954CA";
shapes = (
{
closed = 1;
nodes = (
(178,550,l),
(462,550,l),
(483,700,l),
(199,700,l)
);
},
{
closed = 1;
nodes = (
(1,0,l),
(158,0,l),
(258,700,l),
(101,700,l)
);
},
{
closed = 1;
nodes = (
(139,281,l),
(413,281,l),
(434,423,l),
(159,423,l)
);
},
{
closed = 1;
nodes = (
(99,0,l),
(383,0,l),
(405,150,l),
(120,150,l)
);
},
{
closed = 1;
nodes = (
(346,735,l),
(261,905,l),
(133,905,l),
(207,735,l)
);
},
{
closed = 1;
nodes = (
(497,905,l),
(369,905,l),
(235,735,l),
(374,735,l)
);
}
);
width = 470;
}
);
unicode = 282;
},
{
glyphname = Emacron;
layers = (
{
layerId = "9DC41883-06BB-4704-B6B2-BE0FA655C222";
shapes = (
{
closed = 1;
nodes = (
(167,626,l),
(471,626,l),
(482,700,l),
(178,700,l)
);
},
{
closed = 1;
nodes = (
(19,0,l),
(98,0,l),
(198,700,l),
(119,700,l)
);
},
{
closed = 1;
nodes = (
(124,324,l),
(410,324,l),
(421,396,l),
(135,396,l)
);
},
{
closed = 1;
nodes = (
(78,0,l),
(382,0,l),
(392,74,l),
(89,74,l)
);
},
{
closed = 1;
nodes = (
(456,810,l),
(464,870,l),
(170,870,l),
(162,810,l)
);
}
);
width = 490;
},
{
layerId = "6DBF946B-D1CC-402F-8126-F74CC4A62DD0";
shapes = (
{
closed = 1;
nodes = (
(163,656,l),
(475,656,l),
(481,700,l),
(170,700,l)
);
},
{
closed = 1;
nodes = (
(26,0,l),
(73,0,l),
(173,700,l),
(126,700,l)
);
},
{
closed = 1;
nodes = (
(118,341,l),
(409,341,l),
(416,385,l),
(125,385,l)
);
},
{
closed = 1;
nodes = (
(70,0,l),
(381,0,l),
(387,44,l),
(76,44,l)
);
},
{
closed = 1;
nodes = (
(462,828,l),
(468,868,l),
(174,868,l),
(168,828,l)
);
}
);
width = 498;
},
{
layerId = "94E3E3CE-F120-43CB-86CD-384D4F8954CA";
shapes = (
{
closed = 1;
nodes = (
(178,550,l),
(462,550,l),
(483,700,l),
(199,700,l)
);
},
{
closed = 1;
nodes = (
(1,0,l),
(158,0,l),
(258,700,l),
(101,700,l)
);
},
{
closed = 1;
nodes = (
(139,281,l),
(413,281,l),
(434,423,l),
(159,423,l)
);
},
{
closed = 1;
nodes = (
(99,0,l),
(383,0,l),
(405,150,l),
(120,150,l)
);
},
{
closed = 1;
nodes = (
(439,765,l),
(455,875,l),
(161,875,l),
(145,765,l)
);
}
);
width = 470;
}
);
unicode = 274;
},
{
glyphname = Eng;
layers = (
{
layerId = "17E587F8-1658-4EA1-B692-913C09764BD7";
name = "#instance";
shapes = (
{
closed = 1;
nodes = (
(455,-195,o),
(500.42,-158.061,o),
(515,-56,cs),
(603,560,l),
(559,560,l),
(471,-59,ls),
(460.192,-135.027,o),
(438,-145,o),
(401,-145,cs),
(381,-145,o),
(364,-143,o),
(346,-139,c),
(339,-189,l),
(355,-192,o),
(373,-195,o),
(392,-195,cs)
);
},
{
closed = 1;
nodes = (
(130,700,l),
(30,0,l),
(77,0,l),
(163,600,l,{name = cr02;}),
(175.121,684.849,l),
(167.358,683.898,l),
(445,0,l),
(525,0,l),
(625,700,l),
(578,700,l),
(492,100,l,{name = cr01;}),
(479.879,15.151,l),
(487.642,16.102,l),
(210,700,l)
);
}
);
width = 651;
},
{
layerId = "9DC41883-06BB-4704-B6B2-BE0FA655C222";
shapes = (
{
closed = 1;
nodes = (
(519,-195,o),
(566,-154,o),
(581,-48,cs),
(668,560,l),
(593,560,l),
(506,-47,ls),
(497,-110,o),
(479,-119,o),
(445,-119,cs),
(428,-119,o),
(411,-117,o),
(395,-114,c),
(385,-188,l),
(403,-192,o),
(423,-195,o),
(444,-195,cs)
);
},
{
closed = 1;
nodes = (
(121.714,700,l),
(21.714,0,l),
(97.857,0,l),
(194.033,663.961,l),
(178.016,663.281,l),
(421,0,l),
(546.143,0,l),
(646.143,700,l),
(570,700,l),
(472.565,29.976,l),
(490.969,30.655,l),
(250.143,700,l)
);
}
);
width = 665;
},
{
layerId = "6DBF946B-D1CC-402F-8126-F74CC4A62DD0";
shapes = (
{
closed = 1;
nodes = (
(455,-195,o),
(500.42,-158.061,o),
(515,-56,cs),
(603,560,l),
(559,560,l),
(471,-59,ls),
(460.192,-135.027,o),
(438,-145,o),
(401,-145,cs),
(381,-145,o),
(364,-143,o),
(346,-139,c),
(339,-189,l),
(355,-192,o),
(373,-195,o),
(392,-195,cs)
);
},
{
closed = 1;
nodes = (
(130,700,l),
(30,0,l),
(77,0,l),
(172.121,664.849,l),
(164.358,663.898,l),
(455,0,l),
(525,0,l),
(625,700,l),
(578,700,l),
(482.879,35.151,l),
(490.642,36.102,l),
(205,700,l)
);
}
);
width = 651;
},
{
layerId = "94E3E3CE-F120-43CB-86CD-384D4F8954CA";
shapes = (
{
closed = 1;
nodes = (
(532,-195,o),
(580.42,-144.061,o),
(597,-28,cs),
(681,560,l),
(528,560,l),
(446,-17,ls),
(441.742,-46.964,o),
(431,-54,o),
(406,-54,cs),
(396,-54,o),
(382,-53,o),
(370,-51,c),
(351,-186,l),
(375,-192,o),
(400,-195,o),
(425,-195,cs)
);
},
{
closed = 1;
nodes = (
(101,700,l),
(1,0,l),
(150,0,l),
(248.814,661.739,l),
(212.16,661.739,l),
(336,0,l),
(599,0,l),
(699,700,l),
(550,700,l),
(446.781,17.037,l),
(491.787,17.037,l),
(363,700,l)
);
}
);
width = 700;
}
);
unicode = 330;
},
{
glyphname = Eogonek;
layers = (
{
layerId = "9DC41883-06BB-4704-B6B2-BE0FA655C222";
shapes = (
{
closed = 1;
nodes = (
(167,626,l),
(471,626,l),
(482,700,l),
(178,700,l)
);
},
{
closed = 1;
nodes = (
(19,0,l),
(98,0,l),
(198,700,l),
(119,700,l)
);
},
{
closed = 1;
nodes = (
(124,324,l),
(410,324,l),
(421,396,l),
(135,396,l)
);
},
{
closed = 1;
nodes = (
(78,0,l),
(382,0,l),
(392,74,l),
(89,74,l)
);
},
{
closed = 1;
nodes = (
(339,18,l),
(297,2,o),
(240,-30,o),
(231,-95,cs),
(221,-166,o),
(278,-190,o),
(336,-190,cs),
(370,-190,l),
(379,-126,l),
(354,-126,ls),
(324,-126,o),
(293,-115,o),
(298,-77,cs),
(303,-41,o),
(334,-18,o),
(382,0,c)
);
}
);
width = 490;
},
{
layerId = "6DBF946B-D1CC-402F-8126-F74CC4A62DD0";
shapes = (
{
closed = 1;
nodes = (
(163,656,l),
(475,656,l),
(481,700,l),
(170,700,l)
);
},
{
closed = 1;
nodes = (
(26,0,l),
(73,0,l),
(173,700,l),
(126,700,l)
);
},
{
closed = 1;
nodes = (
(118,341,l),
(409,341,l),
(416,385,l),
(125,385,l)
);
},
{
closed = 1;
nodes = (
(70,0,l),
(381,0,l),
(387,44,l),
(76,44,l)
);
},
{
closed = 1;
nodes = (
(352,7,l),
(317,-4,o),
(264,-32,o),
(256,-91,cs),
(247,-153,o),
(293,-178,o),
(346,-178,cs),
(366,-178,l),
(372,-134,l),
(352,-134,ls),
(325,-134,o),
(289,-123,o),
(295,-81,cs),
(301,-42,o),
(332,-20,o),
(380,0,c)
);
}
);
width = 498;
},
{
layerId = "94E3E3CE-F120-43CB-86CD-384D4F8954CA";
shapes = (
{
closed = 1;
nodes = (
(178,550,l),
(462,550,l),
(483,700,l),
(199,700,l)
);
},
{
closed = 1;
nodes = (
(1,0,l),
(158,0,l),
(258,700,l),
(101,700,l)
);
},
{
closed = 1;
nodes = (
(139,281,l),
(413,281,l),
(434,423,l),
(159,423,l)
);
},
{
closed = 1;
nodes = (
(99,0,l),
(383,0,l),
(405,150,l),
(120,150,l)
);
},
{
closed = 1;
nodes = (
(306,45,l),
(243,16,o),
(179,-26,o),
(168,-104,cs),
(154,-199,o),
(239,-220,o),
(310,-220,cs),
(381,-220,l),
(397,-106,l),
(358,-106,ls),
(320,-106,o),
(301,-94,o),
(305,-68,cs),
(309,-39,o),
(339,-12,o),
(387,0,c)
);
}
);
width = 470;
}
);
unicode = 280;
},
{
glyphname = Eth;
layers = (
{
layerId = "9DC41883-06BB-4704-B6B2-BE0FA655C222";
shapes = (
{
closed = 1;
nodes = (
(374,321,l),
(384,389,l),
(90,389,l),
(80,321,l)
);
},
{
closed = 1;
nodes = (
(69,0,l),
(148,0,l),
(248,700,l),
(169,700,l)
);
},
{
closed = 1;
nodes = (
(538,180,o),
(430,74,o),
(225,74,cs),
(119,74,l),
(108,0,l),
(214,0,ls),
(448,0,o),
(611,130,o),
(642,350,cs),
(673,570,o),
(548,700,o),
(314,700,cs),
(208,700,l),
(198,626,l),
(304,626,ls),
(509,626,o),
(586,520,o),
(562,350,cs)
);
}
);
width = 686;
},
{
layerId = "6DBF946B-D1CC-402F-8126-F74CC4A62DD0";
shapes = (
{
closed = 1;
nodes = (
(353,337,l),
(358,376,l),
(96,376,l),
(90,337,l)
);
},
{
closed = 1;
nodes = (
(72,0,l),
(119,0,l),
(219,700,l),
(172,700,l)
);
},
{
closed = 1;
nodes = (
(537,161,o),
(417,43,o),
(191,43,cs),
(106,43,l),
(100,0,l),
(185,0,ls),
(418,0,o),
(581,130,o),
(612,350,cs),
(643,570,o),
(518,700,o),
(285,700,cs),
(200,700,l),
(194,657,l),
(279,657,ls),
(505,657,o),
(591,539,o),
(564,350,cs)
);
}
);
width = 660;
},
{
layerId = "94E3E3CE-F120-43CB-86CD-384D4F8954CA";
shapes = (
{
closed = 1;
nodes = (
(427,282,l),
(447,422,l),
(75,422,l),
(55,282,l)
);
},
{
closed = 1;
nodes = (
(61,0,l),
(218,0,l),
(318,700,l),
(161,700,l)
);
},
{
closed = 1;
nodes = (
(539,228,o),
(459,152,o),
(308,152,cs),
(151,152,l),
(130,0,l),
(286,0,ls),
(522,0,o),
(688,130,o),
(719,350,cs),
(750,570,o),
(622,700,o),
(386,700,cs),
(230,700,l),
(208,548,l),
(365,548,ls),
(516,548,o),
(573,472,o),
(556,350,cs)
);
}
);
width = 750;
}
);
unicode = 208;
},
{
glyphname = F;
layers = (
{
layerId = "9DC41883-06BB-4704-B6B2-BE0FA655C222";
shapes = (
{
closed = 1;
nodes = (
(167,626,l),
(461,626,l),
(472,700,l),
(178,700,l)
);
},
{
closed = 1;
nodes = (
(19,0,l),
(98,0,l),
(198,700,l),
(119,700,l)
);
},
{
closed = 1;
nodes = (
(123,318,l),
(400,318,l),
(410,390,l),
(134,390,l)
);
}
);
width = 452;
},
{
layerId = "6DBF946B-D1CC-402F-8126-F74CC4A62DD0";
shapes = (
{
closed = 1;
nodes = (
(163,657,l),
(465,657,l),
(471,700,l),
(170,700,l)
);
},
{
closed = 1;
nodes = (
(26,0,l),
(73,0,l),
(173,700,l),
(126,700,l)
);
},
{
closed = 1;
nodes = (
(118,336,l),
(399,336,l),
(405,379,l),
(124,379,l)
);
}
);
width = 459;
},
{
layerId = "94E3E3CE-F120-43CB-86CD-384D4F8954CA";
shapes = (
{
closed = 1;
nodes = (
(177,548,l),
(452,548,l),
(473,700,l),
(199,700,l)
);
},
{
closed = 1;
nodes = (
(1,0,l),
(158,0,l),
(258,700,l),
(101,700,l)
);
},
{
closed = 1;
nodes = (
(138,272,l),
(402,272,l),
(423,418,l),
(159,418,l)
);
}
);
width = 436;
}
);
leftKerningGroup = public.kern2.R_H;
rightKerningGroup = public.kern1.L_F;
unicode = 70;
},
{
glyphname = G;
layers = (
{
anchors = (
{
name = bottom;
position = "{326, 0}";
},
{
name = top;
position = "{326, 700}";
}
);
layerId = "17E587F8-1658-4EA1-B692-913C09764BD7";
name = "#instance";
shapes = (
{
closed = 1;
nodes = (
(482.286,64.286,l),
(560.714,64.286,l),
(605.857,380.286,l),
(334,380.286,l),
(325.571,315.857,l),
(520,315.857,l)
);
},
{
closed = 1;
nodes = (
(637,667.714,l),
(587.571,689,o),
(527,707.714,o),
(452,707.714,cs),
(246.714,707.714,o),
(80.857,560,o),
(50.857,350,cs),
(20.857,140,o),
(144.429,-7.714,o),
(344.714,-7.714,cs),
(422.429,-7.714,o),
(497.429,13.857,o),
(557.857,45.286,c),
(569.571,125.857,l),
(507.571,92.857,o),
(435,66.286,o),
(357.286,66.286,cs),
(193.714,66.286,o),
(107.429,185.286,o),
(130.857,350,cs),
(154.286,515.714,o),
(277.857,633.714,o),
(446.429,633.714,cs),
(516.429,633.714,o),
(562.714,613,o),
(625.143,584.714,c)
);
}
);
width = 650;
},
{
anchors = (
{
name = bottom;
position = "{290, 0}";
},
{
name = top;
position = "{290, 700}";
}
);
layerId = "94E3E3CE-F120-43CB-86CD-384D4F8954CA";
shapes = (
{
closed = 1;
nodes = (
(418,100,l),
(575,100,l),
(618,401,l),
(329,401,l),
(312,283,l),
(445,283,l)
);
},
{
closed = 1;
nodes = (
(637,672,l),
(589,694,o),
(527,712,o),
(452,712,cs),
(236,712,o),
(63,560,o),
(33,350,cs),
(3,140,o),
(133,-12,o),
(344,-12,cs),
(426,-12,o),
(506,11,o),
(565,31,c),
(591,213,l),
(529,180,o),
(450,142,o),
(368,142,cs),
(243,142,o),
(176,231,o),
(193,350,cs),
(210,470,o),
(305,558,o),
(435,558,cs),
(505,558,o),
(552,533,o),
(613,504,c)
);
}
);
width = 641;
},
{
anchors = (
{
name = bottom;
position = "{326, 0}";
},
{
name = top;
position = "{326, 700}";
}
);
layerId = "9DC41883-06BB-4704-B6B2-BE0FA655C222";
shapes = (
{
closed = 1;
nodes = (
(482.286,64.286,l),
(560.714,64.286,l),
(605.857,380.286,l),
(334,380.286,l),
(325.571,315.857,l),
(520,315.857,l)
);
},
{
closed = 1;
nodes = (
(637,667.714,l),
(587.571,689,o),
(527,707.714,o),
(452,707.714,cs),
(246.714,707.714,o),
(80.857,560,o),
(50.857,350,cs),
(20.857,140,o),
(144.429,-7.714,o),
(344.714,-7.714,cs),
(422.429,-7.714,o),
(497.429,13.857,o),
(557.857,45.286,c),
(569.571,125.857,l),
(507.571,92.857,o),
(435,66.286,o),
(357.286,66.286,cs),
(193.714,66.286,o),
(107.429,185.286,o),
(130.857,350,cs),
(154.286,515.714,o),
(277.857,633.714,o),
(446.429,633.714,cs),
(516.429,633.714,o),
(562.714,613,o),
(625.143,584.714,c)
);
}
);
width = 650;
},
{
anchors = (
{
name = bottom;
position = "{340, 0}";
},
{
name = top;
position = "{340, 700}";
}
);
layerId = "6DBF946B-D1CC-402F-8126-F74CC4A62DD0";
shapes = (
{
closed = 1;
nodes = (
(508,50,l),
(555,50,l),
(601,372,l),
(336,372,l),
(331,329,l),
(550,329,l)
);
},
{
closed = 1;
nodes = (
(637,666,l),
(587,687,o),
(527,706,o),
(452,706,cs),
(251,706,o),
(88,560,o),
(58,350,cs),
(28,140,o),
(149,-6,o),
(345,-6,cs),
(421,-6,o),
(494,15,o),
(555,51,c),
(561,91,l),
(499,58,o),
(429,36,o),
(353,36,cs),
(174,36,o),
(80,167,o),
(106,350,cs),
(132,534,o),
(267,664,o),
(451,664,cs),
(521,664,o),
(567,645,o),
(630,617,c)
);
}
);
width = 654;
}
);
leftKerningGroup = public.kern2.R_O;
rightKerningGroup = public.kern1.L_G;
unicode = 71;
},
{
glyphname = Gbreve;
layers = (
{
layerId = "9DC41883-06BB-4704-B6B2-BE0FA655C222";
shapes = (
{
closed = 1;
nodes = (
(482.286,64.286,l),
(560.714,64.286,l),
(605.857,380.286,l),
(334,380.286,l),
(325.571,315.857,l),
(520,315.857,l)
);
},
{
closed = 1;
nodes = (
(637,667.714,l),
(587.571,689,o),
(527,707.714,o),
(452,707.714,cs),
(246.714,707.714,o),
(80.857,560,o),
(50.857,350,cs),
(20.857,140,o),
(144.429,-7.714,o),
(344.714,-7.714,cs),
(422.429,-7.714,o),
(497.429,13.857,o),
(557.857,45.286,c),
(569.571,125.857,l),
(507.571,92.857,o),
(435,66.286,o),
(357.286,66.286,cs),
(193.714,66.286,o),
(107.429,185.286,o),
(130.857,350,cs),
(154.286,515.714,o),
(277.857,633.714,o),
(446.429,633.714,cs),
(516.429,633.714,o),
(562.714,613,o),
(625.143,584.714,c)
);
},
{
closed = 1;
nodes = (
(510,770,o),
(577,836,o),
(590,925,c),
(302,925,l),
(289,836,o),
(338,770,o),
(424,770,cs)
);
},
{
closed = 1;
nodes = (
(380,830,o),
(353,868,o),
(361,925,c),
(531,925,l),
(523,868,o),
(484,830,o),
(432,830,cs)
);
}
);
width = 672;
},
{
layerId = "6DBF946B-D1CC-402F-8126-F74CC4A62DD0";
shapes = (
{
closed = 1;
nodes = (
(508,50,l),
(555,50,l),
(601,372,l),
(336,372,l),
(331,329,l),
(550,329,l)
);
},
{
closed = 1;
nodes = (
(637,666,l),
(587,687,o),
(527,706,o),
(452,706,cs),
(251,706,o),
(88,560,o),
(58,350,cs),
(28,140,o),
(149,-6,o),
(345,-6,cs),
(421,-6,o),
(494,15,o),
(555,51,c),
(561,91,l),
(499,58,o),
(429,36,o),
(353,36,cs),
(174,36,o),
(80,167,o),
(106,350,cs),
(132,534,o),
(267,664,o),
(451,664,cs),
(521,664,o),
(567,645,o),
(630,617,c)
);
},
{
closed = 1;
nodes = (
(518,786,o),
(582,848,o),
(594,933,c),
(327,933,l),
(315,848,o),
(360,786,o),
(439,786,cs)
);
},
{
closed = 1;
nodes = (
(389,830,o),
(358,871,o),
(367,933,c),
(553,933,l),
(544,871,o),
(503,830,o),
(446,830,cs)
);
}
);
width = 677;
},
{
layerId = "94E3E3CE-F120-43CB-86CD-384D4F8954CA";
shapes = (
{
closed = 1;
nodes = (
(418,100,l),
(575,100,l),
(618,401,l),
(329,401,l),
(312,283,l),
(445,283,l)
);
},
{
closed = 1;
nodes = (
(637,672,l),
(589,694,o),
(527,712,o),
(452,712,cs),
(236,712,o),
(63,560,o),
(33,350,cs),
(3,140,o),
(133,-12,o),
(344,-12,cs),
(426,-12,o),
(506,11,o),
(565,31,c),
(591,213,l),
(529,180,o),
(450,142,o),
(368,142,cs),
(243,142,o),
(176,231,o),
(193,350,cs),
(210,470,o),
(305,558,o),
(435,558,cs),
(505,558,o),
(552,533,o),
(613,504,c)
);
},
{
closed = 1;
nodes = (
(487,730,o),
(567,805,o),
(581,905,c),
(238,905,l),
(224,805,o),
(281,730,o),
(384,730,cs)
);
},
{
closed = 1;
nodes = (
(358,830,o),
(337,860,o),
(343,905,c),
(475,905,l),
(469,860,o),
(438,830,o),
(398,830,cs)
);
}
);
width = 660;
}
);
unicode = 286;
},
{
glyphname = Gcommaaccent;
layers = (
{
layerId = "9DC41883-06BB-4704-B6B2-BE0FA655C222";
shapes = (
{
closed = 1;
nodes = (
(482.286,64.286,l),
(560.714,64.286,l),
(605.857,380.286,l),
(334,380.286,l),
(325.571,315.857,l),
(520,315.857,l)
);
},
{
closed = 1;
nodes = (
(637,667.714,l),
(587.571,689,o),
(527,707.714,o),
(452,707.714,cs),
(246.714,707.714,o),
(80.857,560,o),
(50.857,350,cs),
(20.857,140,o),
(144.429,-7.714,o),
(344.714,-7.714,cs),
(422.429,-7.714,o),
(497.429,13.857,o),
(557.857,45.286,c),
(569.571,125.857,l),
(507.571,92.857,o),
(435,66.286,o),
(357.286,66.286,cs),
(193.714,66.286,o),
(107.429,185.286,o),
(130.857,350,cs),
(154.286,515.714,o),
(277.857,633.714,o),
(446.429,633.714,cs),
(516.429,633.714,o),
(562.714,613,o),
(625.143,584.714,c)
);
},
{
closed = 1;
nodes = (
(255,-210,l),
(345,-40,l),
(265,-40,l),
(182,-210,l)
);
}
);
width = 672;
},
{
layerId = "6DBF946B-D1CC-402F-8126-F74CC4A62DD0";
shapes = (
{
closed = 1;
nodes = (
(508,50,l),
(555,50,l),
(601,372,l),
(336,372,l),
(331,329,l),
(550,329,l)
);
},
{
closed = 1;
nodes = (
(637,666,l),
(587,687,o),
(527,706,o),
(452,706,cs),
(251,706,o),
(88,560,o),
(58,350,cs),
(28,140,o),
(149,-6,o),
(345,-6,cs),
(421,-6,o),
(494,15,o),
(555,51,c),
(561,91,l),
(499,58,o),
(429,36,o),
(353,36,cs),
(174,36,o),
(80,167,o),
(106,350,cs),
(132,534,o),
(267,664,o),
(451,664,cs),
(521,664,o),
(567,645,o),
(630,617,c)
);
},
{
closed = 1;
nodes = (
(259,-198,l),
(342,-40,l),
(293,-40,l),
(217,-198,l)
);
}
);
width = 677;
},
{
layerId = "94E3E3CE-F120-43CB-86CD-384D4F8954CA";
shapes = (
{
closed = 1;
nodes = (
(418,100,l),
(575,100,l),
(618,401,l),
(329,401,l),
(312,283,l),
(445,283,l)
);
},
{
closed = 1;
nodes = (
(637,672,l),
(589,694,o),
(527,712,o),
(452,712,cs),
(236,712,o),
(63,560,o),
(33,350,cs),
(3,140,o),
(133,-12,o),
(344,-12,cs),
(426,-12,o),
(506,11,o),
(565,31,c),
(591,213,l),
(529,180,o),
(450,142,o),
(368,142,cs),
(243,142,o),
(176,231,o),
(193,350,cs),
(210,470,o),
(305,558,o),
(435,558,cs),
(505,558,o),
(552,533,o),
(613,504,c)
);
},
{
closed = 1;
nodes = (
(243,-240,l),
(351,-40,l),
(194,-40,l),
(94,-240,l)
);
}
);
width = 660;
}
);
unicode = 290;
},
{
glyphname = Germandbls;
layers = (
{
layerId = "9DC41883-06BB-4704-B6B2-BE0FA655C222";
shapes = (
{
closed = 1;
nodes = (
(458,-12,o),
(558,69,o),
(577,200,cs),
(599,351,o),
(495,419,o),
(356,412,c),
(354,393,l),
(627,688,l),
(629,700,l),
(119,700,l),
(109,626,l),
(550,626,l),
(541,694,l),
(278,409,l),
(270,348,l),
(342,348,l),
(434,348,o),
(513,305,o),
(498,202,cs),
(486,120,o),
(423,62,o),
(331,62,cs),
(286,62,o),
(239,76,o),
(177,108,c),
(165,23,l),
(216,3,o),
(267,-12,o),
(324,-12,cs)
);
},
{
closed = 1;
nodes = (
(98,0,l),
(191,657,l),
(113,657,l),
(19,0,l)
);
}
);
width = 633;
},
{
layerId = "6DBF946B-D1CC-402F-8126-F74CC4A62DD0";
shapes = (
{
closed = 1;
nodes = (
(436,-12,o),
(532,68,o),
(551,198,cs),
(573,353,o),
(469,421,o),
(324,411,c),
(316,397,l),
(605,691,l),
(607,700,l),
(126,700,l),
(120,656,l),
(544,656,l),
(547,698,l),
(272,410,l),
(266,368,l),
(335,368,ls),
(433,368,o),
(519,315,o),
(502,196,cs),
(488,100,o),
(416,30,o),
(309,30,cs),
(260,30,o),
(211,45,o),
(149,82,c),
(141,29,l),
(192,5,o),
(246,-12,o),
(304,-12,cs)
);
},
{
closed = 1;
nodes = (
(73,0,l),
(167,657,l),
(120,657,l),
(26,0,l)
);
}
);
width = 613;
},
{
layerId = "94E3E3CE-F120-43CB-86CD-384D4F8954CA";
shapes = (
{
closed = 1;
nodes = (
(515,-12,o),
(624,71,o),
(643,204,cs),
(663,345,o),
(561,415,o),
(438,415,c),
(446,382,l),
(682,680,l),
(685,700,l),
(101,700,l),
(80,552,l),
(566,552,l),
(526,684,l),
(295,407,l),
(280,297,l),
(362,297,ls),
(437,297,o),
(497,279,o),
(488,216,cs),
(481,169,o),
(442,142,o),
(386,142,cs),
(350,142,o),
(308,154,o),
(246,174,c),
(223,9,l),
(272,-3,o),
(321,-12,o),
(375,-12,cs)
);
},
{
closed = 1;
nodes = (
(158,0,l),
(252,657,l),
(95,657,l),
(1,0,l)
);
}
);
width = 685;
}
);
unicode = 7838;
},
{
glyphname = H;
layers = (
{
anchors = (
{
name = bottom;
position = "{285, 0}";
},
{
name = center;
position = "{285, 350}";
},
{
name = top;
position = "{285, 700}";
},
{
name = topleft;
position = "{-20, 700}";
}
);
layerId = "94E3E3CE-F120-43CB-86CD-384D4F8954CA";
shapes = (
{
closed = 1;
nodes = (
(1,0,l),
(158,0,l),
(258,700,l),
(101,700,l)
);
},
{
closed = 1;
nodes = (
(393,0,l),
(550,0,l),
(650,700,l),
(493,700,l)
);
},
{
closed = 1;
nodes = (
(129,281,l),
(482,281,l),
(504,433,l),
(151,433,l)
);
}
);
width = 630;
},
{
anchors = (
{
name = bottom;
position = "{285, 0}";
},
{
name = center;
position = "{285, 350}";
},
{
name = top;
position = "{285, 700}";
},
{
name = topleft;
position = "{-20, 700}";
}
);
layerId = "9DC41883-06BB-4704-B6B2-BE0FA655C222";
shapes = (
{
closed = 1;
nodes = (
(19,0,l),
(98,0,l),
(198,700,l),
(119,700,l)
);
},
{
closed = 1;
nodes = (
(450,0,l),
(529,0,l),
(629,700,l),
(550,700,l)
);
},
{
closed = 1;
nodes = (
(115,325,l),
(530,325,l),
(541,399,l),
(125,399,l)
);
}
);
width = 627;
},
{
anchors = (
{
name = bottom;
position = "{285, 0}";
},
{
name = center;
position = "{285, 350}";
},
{
name = top;
position = "{285, 700}";
},
{
name = topleft;
position = "{-20, 700}";
}
);
layerId = "6DBF946B-D1CC-402F-8126-F74CC4A62DD0";
shapes = (
{
closed = 1;
nodes = (
(26,0,l),
(73,0,l),
(173,700,l),
(126,700,l)
);
},
{
closed = 1;
nodes = (
(473,0,l),
(520,0,l),
(620,700,l),
(573,700,l)
);
},
{
closed = 1;
nodes = (
(109,343,l),
(550,343,l),
(556,385,l),
(115,385,l)
);
}
);
width = 626;
}
);
unicode = 72;
},
{
glyphname = Hbar;
layers = (
{
layerId = "17E587F8-1658-4EA1-B692-913C09764BD7";
name = "#instance";
shapes = (
{
closed = 1;
nodes = (
(680,515,l),
(695,615,l),
(38,615,l),
(24,515,l)
);
},
{
closed = 1;
nodes = (
(1,0,l),
(158,0,l),
(258,700,l),
(101,700,l)
);
},
{
closed = 1;
nodes = (
(393,0,l),
(550,0,l),
(650,700,l),
(493,700,l)
);
},
{
closed = 1;
nodes = (
(129,281,l),
(482,281,l),
(504,433,l),
(151,433,l)
);
}
);
width = 650;
},
{
layerId = "9DC41883-06BB-4704-B6B2-BE0FA655C222";
shapes = (
{
closed = 1;
nodes = (
(668,536,l),
(677,600,l),
(52,600,l),
(42,536,l)
);
},
{
closed = 1;
nodes = (
(19,0,l),
(98,0,l),
(198,700,l),
(119,700,l)
);
},
{
closed = 1;
nodes = (
(450,0,l),
(529,0,l),
(629,700,l),
(550,700,l)
);
},
{
closed = 1;
nodes = (
(115,325,l),
(530,325,l),
(541,399,l),
(125,399,l)
);
}
);
width = 650;
},
{
layerId = "6DBF946B-D1CC-402F-8126-F74CC4A62DD0";
shapes = (
{
closed = 1;
nodes = (
(653,544,l),
(660,594,l),
(47,594,l),
(39,544,l)
);
},
{
closed = 1;
nodes = (
(26,0,l),
(73,0,l),
(173,700,l),
(126,700,l)
);
},
{
closed = 1;
nodes = (
(473,0,l),
(520,0,l),
(620,700,l),
(573,700,l)
);
},
{
closed = 1;
nodes = (
(109,343,l),
(550,343,l),
(556,385,l),
(115,385,l)
);
}
);
width = 650;
},
{
layerId = "94E3E3CE-F120-43CB-86CD-384D4F8954CA";
shapes = (
{
closed = 1;
nodes = (
(680,515,l),
(695,615,l),
(38,615,l),
(24,515,l)
);
},
{
closed = 1;
nodes = (
(1,0,l),
(158,0,l),
(258,700,l),
(101,700,l)
);
},
{
closed = 1;
nodes = (
(393,0,l),
(550,0,l),
(650,700,l),
(493,700,l)
);
},
{
closed = 1;
nodes = (
(129,281,l),
(482,281,l),
(504,433,l),
(151,433,l)
);
}
);
width = 650;
}
);
unicode = 294;
},
{
glyphname = I;
layers = (
{
anchors = (
{
name = bottom;
position = "{85, 0}";
},
{
name = ogonek;
position = "{165, 0}";
},
{
name = top;
position = "{85, 700}";
},
{
name = topleft;
position = "{-20, 700}";
}
);
layerId = "94E3E3CE-F120-43CB-86CD-384D4F8954CA";
shapes = (
{
closed = 1;
nodes = (
(1,0,l),
(158,0,l),
(258,700,l),
(101,700,l)
);
}
);
width = 238;
},
{
anchors = (
{
name = bottom;
position = "{65, 0}";
},
{
name = ogonek;
position = "{105, 0}";
},
{
name = top;
position = "{65, 700}";
},
{
name = topleft;
position = "{-20, 700}";
}
);
layerId = "9DC41883-06BB-4704-B6B2-BE0FA655C222";
shapes = (
{
closed = 1;
nodes = (
(19,0,l),
(98,0,l),
(198,700,l),
(119,700,l)
);
}
);
width = 196;
},
{
anchors = (
{
name = bottom;
position = "{57, 0}";
},
{
name = ogonek;
position = "{81, 0}";
},
{
name = top;
position = "{57, 700}";
},
{
name = topleft;
position = "{-20, 700}";
}
);
layerId = "6DBF946B-D1CC-402F-8126-F74CC4A62DD0";
shapes = (
{
closed = 1;
nodes = (
(26,0,l),
(73,0,l),
(173,700,l),
(126,700,l)
);
}
);
width = 179;
}
);
unicode = 73;
},
{
glyphname = Ibreve;
layers = (
{
layerId = "9DC41883-06BB-4704-B6B2-BE0FA655C222";
shapes = (
{
closed = 1;
nodes = (
(19,0,l),
(98,0,l),
(198,700,l),
(119,700,l)
);
},
{
closed = 1;
nodes = (
(249,770,o),
(316,836,o),
(329,925,c),
(41,925,l),
(28,836,o),
(77,770,o),
(163,770,cs)
);
},
{
closed = 1;
nodes = (
(119,830,o),
(92,868,o),
(100,925,c),
(270,925,l),
(262,868,o),
(223,830,o),
(171,830,cs)
);
}
);
width = 210;
},
{
layerId = "6DBF946B-D1CC-402F-8126-F74CC4A62DD0";
shapes = (
{
closed = 1;
nodes = (
(26,0,l),
(73,0,l),
(173,700,l),
(126,700,l)
);
},
{
closed = 1;
nodes = (
(235,786,o),
(299,848,o),
(311,933,c),
(44,933,l),
(32,848,o),
(77,786,o),
(156,786,cs)
);
},
{
closed = 1;
nodes = (
(106,830,o),
(75,871,o),
(84,933,c),
(270,933,l),
(261,871,o),
(220,830,o),
(163,830,cs)
);
}
);
width = 194;
},
{
layerId = "94E3E3CE-F120-43CB-86CD-384D4F8954CA";
shapes = (
{
closed = 1;
nodes = (
(1,0,l),
(158,0,l),
(258,700,l),
(101,700,l)
);
},
{
closed = 1;
nodes = (
(282,730,o),
(362,805,o),
(376,905,c),
(33,905,l),
(19,805,o),
(76,730,o),
(179,730,cs)
);
},
{
closed = 1;
nodes = (
(153,830,o),
(132,860,o),
(138,905,c),
(270,905,l),
(264,860,o),
(233,830,o),
(193,830,cs)
);
}
);
width = 250;
}
);
unicode = 300;
},
{
glyphname = Imacron;
layers = (
{
layerId = "9DC41883-06BB-4704-B6B2-BE0FA655C222";
shapes = (
{
closed = 1;
nodes = (
(19,0,l),
(98,0,l),
(198,700,l),
(119,700,l)
);
},
{
closed = 1;
nodes = (
(316,810,l),
(324,870,l),
(30,870,l),
(22,810,l)
);
}
);
width = 210;
},
{
layerId = "6DBF946B-D1CC-402F-8126-F74CC4A62DD0";
shapes = (
{
closed = 1;
nodes = (
(26,0,l),
(73,0,l),
(173,700,l),
(126,700,l)
);
},
{
closed = 1;
nodes = (
(310,828,l),
(316,868,l),
(22,868,l),
(16,828,l)
);
}
);
width = 194;
},
{
layerId = "94E3E3CE-F120-43CB-86CD-384D4F8954CA";
shapes = (
{
closed = 1;
nodes = (
(1,0,l),
(158,0,l),
(258,700,l),
(101,700,l)
);
},
{
closed = 1;
nodes = (
(329,765,l),
(345,875,l),
(51,875,l),
(35,765,l)
);
}
);
width = 250;
}
);
unicode = 298;
},
{
glyphname = Iogonek;
layers = (
{
layerId = "9DC41883-06BB-4704-B6B2-BE0FA655C222";
shapes = (
{
closed = 1;
nodes = (
(19,0,l),
(98,0,l),
(198,700,l),
(119,700,l)
);
},
{
closed = 1;
nodes = (
(49,18,l),
(7,2,o),
(-50,-30,o),
(-59,-95,cs),
(-69,-166,o),
(-12,-190,o),
(46,-190,cs),
(80,-190,l),
(89,-126,l),
(64,-126,ls),
(34,-126,o),
(3,-115,o),
(8,-77,cs),
(13,-41,o),
(44,-18,o),
(92,0,c)
);
}
);
width = 210;
},
{
layerId = "6DBF946B-D1CC-402F-8126-F74CC4A62DD0";
shapes = (
{
closed = 1;
nodes = (
(26,0,l),
(73,0,l),
(173,700,l),
(126,700,l)
);
},
{
closed = 1;
nodes = (
(38,7,l),
(3,-4,o),
(-50,-32,o),
(-58,-91,cs),
(-67,-153,o),
(-21,-178,o),
(32,-178,cs),
(52,-178,l),
(58,-134,l),
(38,-134,ls),
(11,-134,o),
(-25,-123,o),
(-19,-81,cs),
(-13,-42,o),
(18,-20,o),
(66,0,c)
);
}
);
width = 194;
},
{
layerId = "94E3E3CE-F120-43CB-86CD-384D4F8954CA";
shapes = (
{
closed = 1;
nodes = (
(1,0,l),
(158,0,l),
(258,700,l),
(101,700,l)
);
},
{
closed = 1;
nodes = (
(76,45,l),
(13,16,o),
(-51,-26,o),
(-62,-104,cs),
(-76,-199,o),
(9,-220,o),
(80,-220,cs),
(151,-220,l),
(167,-106,l),
(128,-106,ls),
(90,-106,o),
(71,-94,o),
(75,-68,cs),
(79,-39,o),
(109,-12,o),
(157,0,c)
);
}
);
width = 250;
}
);
unicode = 302;
},
{
glyphname = J;
layers = (
{
layerId = "9DC41883-06BB-4704-B6B2-BE0FA655C222";
shapes = (
{
closed = 1;
nodes = (
(292,700,l),
(218,184,ls),
(207,110,o),
(178,68,o),
(104,68,cs),
(72,68,o),
(41,76,o),
(4,87,c),
(-6,12,l),
(23,3,o),
(54,-6,o),
(96,-6,cs),
(221,-6,o),
(280,75,o),
(296,184,cs),
(370,700,l)
);
}
);
width = 369;
},
{
layerId = "6DBF946B-D1CC-402F-8126-F74CC4A62DD0";
shapes = (
{
closed = 1;
nodes = (
(295,700,l),
(219,165,ls),
(207,83,o),
(174,37,o),
(97,37,cs),
(64,37,o),
(36,45,o),
(3,55,c),
(-3,13,l),
(21,5,o),
(46,-4,o),
(85,-4,cs),
(196,-4,o),
(252,67,o),
(267,170,cs),
(342,700,l)
);
}
);
width = 348;
},
{
layerId = "94E3E3CE-F120-43CB-86CD-384D4F8954CA";
shapes = (
{
closed = 1;
nodes = (
(283,700,l),
(216,232,ls),
(208,178,o),
(187,145,o),
(123,145,cs),
(93,145,o),
(54,153,o),
(7,168,c),
(-16,10,l),
(24,-2,o),
(72,-12,o),
(122,-12,cs),
(286,-12,o),
(353,95,o),
(371,218,cs),
(439,700,l)
);
}
);
width = 420;
}
);
leftKerningGroup = public.kern2.R_J;
rightKerningGroup = public.kern1.L_U;
unicode = 74;
},
{
glyphname = K;
layers = (
{
anchors = (
{
name = bottom;
position = "{272, 0}";
},
{
name = top;
position = "{272, 700}";
}
);
layerId = "94E3E3CE-F120-43CB-86CD-384D4F8954CA";
shapes = (
{
closed = 1;
nodes = (
(196,360,l),
(353,0,l),
(544,0,l),
(358,360,l),
(634,700,l),
(453,700,l)
);
},
{
closed = 1;
nodes = (
(1,0,l),
(158,0,l),
(258,700,l),
(101,700,l)
);
}
);
width = 606;
},
{
anchors = (
{
name = bottom;
position = "{229, 0}";
},
{
name = top;
position = "{229, 700}";
}
);
layerId = "9DC41883-06BB-4704-B6B2-BE0FA655C222";
shapes = (
{
closed = 1;
nodes = (
(136,360,l),
(348,0,l),
(447,0,l),
(224,360,l),
(538,700,l),
(443,700,l)
);
},
{
closed = 1;
nodes = (
(19,0,l),
(98,0,l),
(198,700,l),
(119,700,l)
);
}
);
width = 514;
},
{
anchors = (
{
name = bottom;
position = "{212, 0}";
},
{
name = top;
position = "{212, 700}";
}
);
layerId = "6DBF946B-D1CC-402F-8126-F74CC4A62DD0";
shapes = (
{
closed = 1;
nodes = (
(112,360,l),
(347,0,l),
(409,0,l),
(171,360,l),
(499,700,l),
(438,700,l)
);
},
{
closed = 1;
nodes = (
(26,0,l),
(73,0,l),
(173,700,l),
(126,700,l)
);
}
);
width = 477;
}
);
leftKerningGroup = public.kern2.R_H;
rightKerningGroup = public.kern1.L_X;
unicode = 75;
},
{
glyphname = Kcommaaccent;
layers = (
{
layerId = "9DC41883-06BB-4704-B6B2-BE0FA655C222";
shapes = (
{
closed = 1;
nodes = (
(136,360,l),
(348,0,l),
(447,0,l),
(224,360,l),
(538,700,l),
(443,700,l)
);
},
{
closed = 1;
nodes = (
(19,0,l),
(98,0,l),
(198,700,l),
(119,700,l)
);
},
{
closed = 1;
nodes = (
(158,-210,l),
(248,-40,l),
(168,-40,l),
(85,-210,l)
);
}
);
width = 532;
},
{
layerId = "6DBF946B-D1CC-402F-8126-F74CC4A62DD0";
shapes = (
{
closed = 1;
nodes = (
(112,360,l),
(347,0,l),
(409,0,l),
(171,360,l),
(499,700,l),
(438,700,l)
);
},
{
closed = 1;
nodes = (
(26,0,l),
(73,0,l),
(173,700,l),
(126,700,l)
);
},
{
closed = 1;
nodes = (
(131,-198,l),
(214,-40,l),
(165,-40,l),
(89,-198,l)
);
}
);
width = 495;
},
{
layerId = "94E3E3CE-F120-43CB-86CD-384D4F8954CA";
shapes = (
{
closed = 1;
nodes = (
(196,360,l),
(353,0,l),
(544,0,l),
(358,360,l),
(634,700,l),
(453,700,l)
);
},
{
closed = 1;
nodes = (
(1,0,l),
(158,0,l),
(258,700,l),
(101,700,l)
);
},
{
closed = 1;
nodes = (
(225,-240,l),
(333,-40,l),
(176,-40,l),
(76,-240,l)
);
}
);
width = 624;
}
);
unicode = 310;
},
{
glyphname = L;
layers = (
{
anchors = (
{
name = bottom;
position = "{175, 0}";
},
{
name = center;
position = "{175, 350}";
},
{
name = top;
position = "{85, 700}";
},
{
name = topright;
position = "{240, 700}";
}
);
layerId = "94E3E3CE-F120-43CB-86CD-384D4F8954CA";
shapes = (
{
closed = 1;
nodes = (
(1,0,l),
(373,0,l),
(395,152,l),
(179,152,l),
(258,700,l),
(101,700,l)
);
}
);
width = 436;
},
{
anchors = (
{
name = bottom;
position = "{180, 0}";
},
{
name = center;
position = "{180, 350}";
},
{
name = top;
position = "{65, 700}";
},
{
name = topright;
position = "{210, 700}";
}
);
layerId = "9DC41883-06BB-4704-B6B2-BE0FA655C222";
shapes = (
{
closed = 1;
nodes = (
(19,0,l),
(352,0,l),
(363,74,l),
(108,74,l),
(198,700,l),
(119,700,l)
);
}
);
width = 424;
},
{
anchors = (
{
name = bottom;
position = "{182, 0}";
},
{
name = center;
position = "{182, 350}";
},
{
name = top;
position = "{57, 700}";
},
{
name = topright;
position = "{198, 700}";
}
);
layerId = "6DBF946B-D1CC-402F-8126-F74CC4A62DD0";
shapes = (
{
closed = 1;
nodes = (
(26,0,l),
(344,0,l),
(350,43,l),
(80,43,l),
(173,700,l),
(126,700,l)
);
}
);
width = 419;
}
);
leftKerningGroup = public.kern2.R_H;
rightKerningGroup = public.kern1.L_L;
unicode = 76;
},
{
glyphname = Lcaron;
layers = (
{
layerId = "9DC41883-06BB-4704-B6B2-BE0FA655C222";
shapes = (
{
closed = 1;
nodes = (
(19,0,l),
(352,0,l),
(363,74,l),
(108,74,l),
(198,700,l),
(119,700,l)
);
},
{
closed = 1;
nodes = (
(241,505,l),
(306,505,l),
(366,700,l),
(289,700,l)
);
}
);
width = 440;
},
{
layerId = "6DBF946B-D1CC-402F-8126-F74CC4A62DD0";
shapes = (
{
closed = 1;
nodes = (
(26,0,l),
(344,0,l),
(350,43,l),
(80,43,l),
(173,700,l),
(126,700,l)
);
},
{
closed = 1;
nodes = (
(232,525,l),
(276,525,l),
(332,700,l),
(277,700,l)
);
}
);
width = 436;
},
{
layerId = "94E3E3CE-F120-43CB-86CD-384D4F8954CA";
shapes = (
{
closed = 1;
nodes = (
(1,0,l),
(373,0,l),
(395,152,l),
(179,152,l),
(258,700,l),
(101,700,l)
);
},
{
closed = 1;
nodes = (
(264,455,l),
(382,455,l),
(448,700,l),
(319,700,l)
);
}
);
width = 450;
}
);
unicode = 317;
},
{
glyphname = Lcommaaccent;
layers = (
{
layerId = "9DC41883-06BB-4704-B6B2-BE0FA655C222";
shapes = (
{
closed = 1;
nodes = (
(19,0,l),
(352,0,l),
(363,74,l),
(108,74,l),
(198,700,l),
(119,700,l)
);
},
{
closed = 1;
nodes = (
(109,-210,l),
(199,-40,l),
(119,-40,l),
(36,-210,l)
);
}
);
width = 440;
},
{
layerId = "6DBF946B-D1CC-402F-8126-F74CC4A62DD0";
shapes = (
{
closed = 1;
nodes = (
(26,0,l),
(344,0,l),
(350,43,l),
(80,43,l),
(173,700,l),
(126,700,l)
);
},
{
closed = 1;
nodes = (
(101,-198,l),
(184,-40,l),
(135,-40,l),
(59,-198,l)
);
}
);
width = 436;
},
{
layerId = "94E3E3CE-F120-43CB-86CD-384D4F8954CA";
shapes = (
{
closed = 1;
nodes = (
(1,0,l),
(373,0,l),
(395,152,l),
(179,152,l),
(258,700,l),
(101,700,l)
);
},
{
closed = 1;
nodes = (
(128,-240,l),
(236,-40,l),
(79,-40,l),
(-21,-240,l)
);
}
);
width = 450;
}
);
unicode = 315;
},
{
glyphname = Lslash;
layers = (
{
layerId = "9DC41883-06BB-4704-B6B2-BE0FA655C222";
shapes = (
{
closed = 1;
nodes = (
(474,431,l),
(486,513,l),
(72,263,l),
(60,181,l)
);
},
{
closed = 1;
nodes = (
(99,0,l),
(432,0,l),
(443,74,l),
(188,74,l),
(278,700,l),
(199,700,l)
);
}
);
width = 520;
},
{
layerId = "6DBF946B-D1CC-402F-8126-F74CC4A62DD0";
shapes = (
{
closed = 1;
nodes = (
(481,452,l),
(489,510,l),
(76,236,l),
(68,178,l)
);
},
{
closed = 1;
nodes = (
(116,0,l),
(434,0,l),
(440,43,l),
(170,43,l),
(263,700,l),
(216,700,l)
);
}
);
width = 534;
},
{
layerId = "94E3E3CE-F120-43CB-86CD-384D4F8954CA";
shapes = (
{
closed = 1;
nodes = (
(457,379,l),
(477,521,l),
(62,331,l),
(42,189,l)
);
},
{
closed = 1;
nodes = (
(56,0,l),
(428,0,l),
(450,152,l),
(234,152,l),
(313,700,l),
(156,700,l)
);
}
);
width = 485;
}
);
unicode = 321;
},
{
glyphname = M;
layers = (
{
layerId = "17E587F8-1658-4EA1-B692-913C09764BD7";
name = "#instance";
shapes = (
{
closed = 1;
nodes = (
(663,700,l),
(352.79,12.637,l),
(378.96,12.637,l),
(268,700,l),
(121,700,l),
(21,0,l),
(97,0,l),
(197.736,688.417,l),
(186.886,688.417,l),
(299,0,l),
(427,0,l),
(738.065,689.208,l),
(727.471,689.3,l),
(629,0,l),
(708,0,l),
(808,700,l)
);
}
);
width = 806;
},
{
layerId = "9DC41883-06BB-4704-B6B2-BE0FA655C222";
shapes = (
{
closed = 1;
nodes = (
(670.571,700,l),
(357.69,36.225,l),
(383.493,36.457,l),
(261.143,700,l),
(121.714,700,l),
(21.714,0,l),
(97.857,0,l),
(195.447,669.021,l),
(182.991,669.071,l),
(307.143,0,l),
(421.857,0,l),
(737.999,672.156,l),
(726.083,672.156,l),
(630.571,0,l),
(708.571,0,l),
(808.571,700,l)
);
}
);
width = 807;
},
{
layerId = "6DBF946B-D1CC-402F-8126-F74CC4A62DD0";
shapes = (
{
closed = 1;
nodes = (
(686,700,l),
(349.165,33.675,l),
(362,34,l),
(214,700,l),
(130,700,l),
(30,0,l),
(77,0,l),
(174,670,l),
(169,670,l),
(314,0,l),
(389,0,l),
(723,670,l),
(719,670,l),
(624,0,l),
(672,0,l),
(772,700,l)
);
}
);
width = 778;
},
{
layerId = "94E3E3CE-F120-43CB-86CD-384D4F8954CA";
shapes = (
{
closed = 1;
nodes = (
(632,700,l),
(379,42.6,l),
(437.227,42.6,l),
(379,700,l),
(101,700,l),
(1,0,l),
(150,0,l),
(249.066,666.574,l),
(217.969,666.75,l),
(290,0,l),
(504,0,l),
(775.496,677.545,l),
(743.792,677.545,l),
(647,0,l),
(800,0,l),
(900,700,l)
);
}
);
width = 880;
}
);
leftKerningGroup = public.kern2.R_H;
rightKerningGroup = public.kern1.L_H;
unicode = 77;
},
{
glyphname = N;
layers = (
{
layerId = "17E587F8-1658-4EA1-B692-913C09764BD7";
name = "#instance";
shapes = (
{
closed = 1;
nodes = (
(121.714,700,l),
(21.714,0,l),
(97.857,0,l),
(194.033,663.961,l),
(178.016,663.281,l),
(421,0,l),
(546.143,0,l),
(646.143,700,l),
(570,700,l),
(472.565,29.976,l),
(490.969,30.655,l),
(250.143,700,l)
);
}
);
width = 648;
},
{
layerId = "9DC41883-06BB-4704-B6B2-BE0FA655C222";
shapes = (
{
closed = 1;
nodes = (
(121.714,700,l),
(21.714,0,l),
(97.857,0,l),
(194.033,663.961,l),
(178.016,663.281,l),
(421,0,l),
(546.143,0,l),
(646.143,700,l),
(570,700,l),
(472.565,29.976,l),
(490.969,30.655,l),
(250.143,700,l)
);
}
);
width = 648;
},
{
layerId = "6DBF946B-D1CC-402F-8126-F74CC4A62DD0";
shapes = (
{
closed = 1;
nodes = (
(130,700,l),
(30,0,l),
(77,0,l),
(172.121,664.849,l),
(164.358,663.898,l),
(455,0,l),
(525,0,l),
(625,700,l),
(578,700,l),
(482.879,35.151,l),
(490.642,36.102,l),
(205,700,l)
);
}
);
width = 635;
},
{
layerId = "94E3E3CE-F120-43CB-86CD-384D4F8954CA";
shapes = (
{
closed = 1;
nodes = (
(101,700,l),
(1,0,l),
(150,0,l),
(248.814,661.739,l),
(212.16,661.739,l),
(336,0,l),
(599,0,l),
(699,700,l),
(550,700,l),
(446.781,17.037,l),
(491.787,17.037,l),
(363,700,l)
);
}
);
width = 679;
}
);
leftKerningGroup = public.kern2.R_H;
rightKerningGroup = public.kern1.L_H;
unicode = 78;
},
{
glyphname = Ncaron;
layers = (
{
layerId = "9DC41883-06BB-4704-B6B2-BE0FA655C222";
shapes = (
{
closed = 1;
nodes = (
(121.714,700,l),
(21.714,0,l),
(97.857,0,l),
(194.033,663.961,l),
(178.016,663.281,l),
(421,0,l),
(546.143,0,l),
(646.143,700,l),
(570,700,l),
(472.565,29.976,l),
(490.969,30.655,l),
(250.143,700,l)
);
},
{
closed = 1;
nodes = (
(418,775,l),
(339,925,l),
(270,925,l),
(347,775,l)
);
},
{
closed = 1;
nodes = (
(556,925,l),
(486,925,l),
(365,775,l),
(436,775,l)
);
}
);
width = 665;
},
{
layerId = "6DBF946B-D1CC-402F-8126-F74CC4A62DD0";
shapes = (
{
closed = 1;
nodes = (
(130,700,l),
(30,0,l),
(77,0,l),
(172.121,664.849,l),
(164.358,663.898,l),
(455,0,l),
(525,0,l),
(625,700,l),
(578,700,l),
(482.879,35.151,l),
(490.642,36.102,l),
(205,700,l)
);
},
{
closed = 1;
nodes = (
(400,791,l),
(325,933,l),
(278,933,l),
(357,791,l)
);
},
{
closed = 1;
nodes = (
(533,933,l),
(487,933,l),
(371,791,l),
(414,791,l)
);
}
);
width = 651;
},
{
layerId = "94E3E3CE-F120-43CB-86CD-384D4F8954CA";
shapes = (
{
closed = 1;
nodes = (
(101,700,l),
(1,0,l),
(150,0,l),
(248.814,661.739,l),
(212.16,661.739,l),
(336,0,l),
(599,0,l),
(699,700,l),
(550,700,l),
(446.781,17.037,l),
(491.787,17.037,l),
(363,700,l)
);
},
{
closed = 1;
nodes = (
(461,735,l),
(376,905,l),
(248,905,l),
(322,735,l)
);
},
{
closed = 1;
nodes = (
(612,905,l),
(484,905,l),
(350,735,l),
(489,735,l)
);
}
);
width = 700;
}
);
unicode = 327;
},
{
glyphname = Ncommaaccent;
layers = (
{
layerId = "9DC41883-06BB-4704-B6B2-BE0FA655C222";
shapes = (
{
closed = 1;
nodes = (
(121.714,700,l),
(21.714,0,l),
(97.857,0,l),
(194.033,663.961,l),
(178.016,663.281,l),
(421,0,l),
(546.143,0,l),
(646.143,700,l),
(570,700,l),
(472.565,29.976,l),
(490.969,30.655,l),
(250.143,700,l)
);
},
{
closed = 1;
nodes = (
(222,-210,l),
(312,-40,l),
(232,-40,l),
(149,-210,l)
);
}
);
width = 665;
},
{
layerId = "6DBF946B-D1CC-402F-8126-F74CC4A62DD0";
shapes = (
{
closed = 1;
nodes = (
(130,700,l),
(30,0,l),
(77,0,l),
(172.121,664.849,l),
(164.358,663.898,l),
(455,0,l),
(525,0,l),
(625,700,l),
(578,700,l),
(482.879,35.151,l),
(490.642,36.102,l),
(205,700,l)
);
},
{
closed = 1;
nodes = (
(205,-198,l),
(288,-40,l),
(239,-40,l),
(163,-198,l)
);
}
);
width = 651;
},
{
layerId = "94E3E3CE-F120-43CB-86CD-384D4F8954CA";
shapes = (
{
closed = 1;
nodes = (
(101,700,l),
(1,0,l),
(150,0,l),
(248.814,661.739,l),
(212.16,661.739,l),
(336,0,l),
(599,0,l),
(699,700,l),
(550,700,l),
(446.781,17.037,l),
(491.787,17.037,l),
(363,700,l)
);
},
{
closed = 1;
nodes = (
(263,-240,l),
(371,-40,l),
(214,-40,l),
(114,-240,l)
);
}
);
width = 700;
}
);
unicode = 325;
},
{
glyphname = O;
layers = (
{
anchors = (
{
name = bottom;
position = "{345, 0}";
},
{
name = center;
position = "{345, 350}";
},
{
name = ogonek;
position = "{653, 10}";
},
{
name = top;
position = "{345, 700}";
},
{
name = topleft;
position = "{-20, 700}";
},
{
name = topright;
position = "{710, 700}";
}
);
layerId = "94E3E3CE-F120-43CB-86CD-384D4F8954CA";
shapes = (
{
closed = 1;
nodes = (
(3,142,o),
(131,-12,o),
(334,-12,cs),
(537,-12,o),
(708,142,o),
(738,350,cs),
(768,558,o),
(640,712,o),
(437,712,cs),
(234,712,o),
(63,558,o),
(33,350,cs)
);
},
{
closed = 1;
nodes = (
(210,466,o),
(298,558,o),
(415,558,cs),
(532,558,o),
(595,466,o),
(578,350,cs),
(561,234,o),
(473,142,o),
(356,142,cs),
(239,142,o),
(176,234,o),
(193,350,cs)
);
}
);
width = 751;
},
{
anchors = (
{
name = bottom;
position = "{347, 0}";
},
{
name = center;
position = "{347, 350}";
},
{
name = ogonek;
position = "{657, 10}";
},
{
name = top;
position = "{347, 700}";
},
{
name = topleft;
position = "{-20, 700}";
},
{
name = topright;
position = "{714, 700}";
}
);
layerId = "9DC41883-06BB-4704-B6B2-BE0FA655C222";
shapes = (
{
closed = 1;
nodes = (
(21,142,o),
(140,-8,o),
(335,-8,cs),
(530,-8,o),
(691,142,o),
(721,350,cs),
(751,558,o),
(632,708,o),
(437,708,cs),
(242,708,o),
(81,558,o),
(51,350,cs)
);
},
{
closed = 1;
nodes = (
(154,510,o),
(268,632,o),
(426,632,cs),
(584,632,o),
(664,510,o),
(641,350,cs),
(618,191,o),
(504,68,o),
(346,68,cs),
(188,68,o),
(108,191,o),
(131,350,cs)
);
}
);
width = 752;
},
{
anchors = (
{
name = bottom;
position = "{348, 0}";
},
{
name = center;
position = "{348, 350}";
},
{
name = ogonek;
position = "{659, 10}";
},
{
name = top;
position = "{348, 700}";
},
{
name = topleft;
position = "{-20, 700}";
},
{
name = topright;
position = "{716, 700}";
}
);
layerId = "6DBF946B-D1CC-402F-8126-F74CC4A62DD0";
shapes = (
{
closed = 1;
nodes = (
(28,142,o),
(144,-6,o),
(336,-6,cs),
(528,-6,o),
(685,142,o),
(715,350,cs),
(745,558,o),
(629,706,o),
(437,706,cs),
(245,706,o),
(88,558,o),
(58,350,cs)
);
},
{
closed = 1;
nodes = (
(131,528,o),
(257,662,o),
(431,662,cs),
(605,662,o),
(691,528,o),
(666,350,cs),
(641,174,o),
(516,38,o),
(342,38,cs),
(168,38,o),
(81,174,o),
(106,350,cs)
);
}
);
width = 753;
}
);
leftKerningGroup = public.kern2.R_O;
rightKerningGroup = public.kern1.L_O;
unicode = 79;
},
{
glyphname = OE;
layers = (
{
layerId = "9DC41883-06BB-4704-B6B2-BE0FA655C222";
shapes = (
{
closed = 1;
nodes = (
(21,142,o),
(140,-8,o),
(335,-8,cs),
(530,-8,o),
(672,142,o),
(702,350,cs),
(732,558,o),
(632,708,o),
(437,708,cs),
(242,708,o),
(81,558,o),
(51,350,cs)
);
},
{
closed = 1;
nodes = (
(154,510,o),
(268,632,o),
(426,632,cs),
(584,632,o),
(664,510,o),
(641,350,cs),
(618,191,o),
(504,68,o),
(346,68,cs),
(188,68,o),
(108,191,o),
(131,350,cs)
);
},
{
closed = 1;
nodes = (
(682,626,l),
(1045,626,l),
(1055,700,l),
(693,700,l)
);
},
{
closed = 1;
nodes = (
(593,0,l),
(671,0,l),
(765,657,l),
(687,657,l)
);
},
{
closed = 1;
nodes = (
(698,324,l),
(984,324,l),
(994,396,l),
(708,396,l)
);
},
{
closed = 1;
nodes = (
(593,0,l),
(955,0,l),
(966,74,l),
(603,74,l)
);
}
);
width = 1045;
},
{
layerId = "6DBF946B-D1CC-402F-8126-F74CC4A62DD0";
shapes = (
{
closed = 1;
nodes = (
(28,142,o),
(146,-6,o),
(340,-6,cs),
(534,-6,o),
(665,142,o),
(695,350,cs),
(725,558,o),
(635,706,o),
(441,706,cs),
(247,706,o),
(88,558,o),
(58,350,cs)
);
},
{
closed = 1;
nodes = (
(131,528,o),
(257,662,o),
(431,662,cs),
(605,662,o),
(691,528,o),
(666,350,cs),
(641,174,o),
(516,38,o),
(342,38,cs),
(168,38,o),
(81,174,o),
(106,350,cs)
);
},
{
closed = 1;
nodes = (
(709,656,l),
(1067,656,l),
(1074,700,l),
(715,700,l)
);
},
{
closed = 1;
nodes = (
(615,0,l),
(666,0,l),
(760,657,l),
(709,657,l)
);
},
{
closed = 1;
nodes = (
(722,341,l),
(1002,341,l),
(1008,385,l),
(729,385,l)
);
},
{
closed = 1;
nodes = (
(615,0,l),
(974,0,l),
(980,44,l),
(621,44,l)
);
}
);
width = 1070;
},
{
layerId = "94E3E3CE-F120-43CB-86CD-384D4F8954CA";
shapes = (
{
closed = 1;
nodes = (
(3,142,o),
(127,-12,o),
(324,-12,cs),
(521,-12,o),
(689,142,o),
(719,350,cs),
(749,558,o),
(624,712,o),
(427,712,cs),
(230,712,o),
(63,558,o),
(33,350,cs)
);
},
{
closed = 1;
nodes = (
(210,466,o),
(298,558,o),
(415,558,cs),
(532,558,o),
(595,466,o),
(578,350,cs),
(561,234,o),
(473,142,o),
(356,142,cs),
(239,142,o),
(176,234,o),
(193,350,cs)
);
},
{
closed = 1;
nodes = (
(616,550,l),
(988,550,l),
(1010,700,l),
(637,700,l)
);
},
{
closed = 1;
nodes = (
(537,0,l),
(684,0,l),
(778,657,l),
(631,657,l)
);
},
{
closed = 1;
nodes = (
(636,281,l),
(940,281,l),
(960,423,l),
(657,423,l)
);
},
{
closed = 1;
nodes = (
(537,0,l),
(910,0,l),
(931,150,l),
(559,150,l)
);
}
);
width = 981;
}
);
unicode = 338;
},
{
glyphname = Obreve;
layers = (
{
layerId = "9DC41883-06BB-4704-B6B2-BE0FA655C222";
shapes = (
{
closed = 1;
nodes = (
(21,142,o),
(140,-8,o),
(335,-8,cs),
(530,-8,o),
(691,142,o),
(721,350,cs),
(751,558,o),
(632,708,o),
(437,708,cs),
(242,708,o),
(81,558,o),
(51,350,cs)
);
},
{
closed = 1;
nodes = (
(154,510,o),
(268,632,o),
(426,632,cs),
(584,632,o),
(664,510,o),
(641,350,cs),
(618,191,o),
(504,68,o),
(346,68,cs),
(188,68,o),
(108,191,o),
(131,350,cs)
);
},
{
closed = 1;
nodes = (
(531,770,o),
(598,836,o),
(611,925,c),
(323,925,l),
(310,836,o),
(359,770,o),
(445,770,cs)
);
},
{
closed = 1;
nodes = (
(401,830,o),
(374,868,o),
(382,925,c),
(552,925,l),
(544,868,o),
(505,830,o),
(453,830,cs)
);
}
);
width = 774;
},
{
layerId = "6DBF946B-D1CC-402F-8126-F74CC4A62DD0";
shapes = (
{
closed = 1;
nodes = (
(28,142,o),
(144,-6,o),
(336,-6,cs),
(528,-6,o),
(685,142,o),
(715,350,cs),
(745,558,o),
(629,706,o),
(437,706,cs),
(245,706,o),
(88,558,o),
(58,350,cs)
);
},
{
closed = 1;
nodes = (
(131,528,o),
(257,662,o),
(431,662,cs),
(605,662,o),
(691,528,o),
(666,350,cs),
(641,174,o),
(516,38,o),
(342,38,cs),
(168,38,o),
(81,174,o),
(106,350,cs)
);
},
{
closed = 1;
nodes = (
(526,786,o),
(590,848,o),
(602,933,c),
(335,933,l),
(323,848,o),
(368,786,o),
(447,786,cs)
);
},
{
closed = 1;
nodes = (
(397,830,o),
(366,871,o),
(375,933,c),
(561,933,l),
(552,871,o),
(511,830,o),
(454,830,cs)
);
}
);
width = 776;
},
{
layerId = "94E3E3CE-F120-43CB-86CD-384D4F8954CA";
shapes = (
{
closed = 1;
nodes = (
(3,142,o),
(131,-12,o),
(334,-12,cs),
(537,-12,o),
(708,142,o),
(738,350,cs),
(768,558,o),
(640,712,o),
(437,712,cs),
(234,712,o),
(63,558,o),
(33,350,cs)
);
},
{
closed = 1;
nodes = (
(210,466,o),
(298,558,o),
(415,558,cs),
(532,558,o),
(595,466,o),
(578,350,cs),
(561,234,o),
(473,142,o),
(356,142,cs),
(239,142,o),
(176,234,o),
(193,350,cs)
);
},
{
closed = 1;
nodes = (
(542,730,o),
(622,805,o),
(636,905,c),
(293,905,l),
(279,805,o),
(336,730,o),
(439,730,cs)
);
},
{
closed = 1;
nodes = (
(413,830,o),
(392,860,o),
(398,905,c),
(530,905,l),
(524,860,o),
(493,830,o),
(453,830,cs)
);
}
);
width = 770;
}
);
unicode = 334;
},
{
glyphname = Ohm;
layers = (
{
layerId = "9DC41883-06BB-4704-B6B2-BE0FA655C222";
shapes = (
{
closed = 1;
nodes = (
(307,0,l),
(317,69,l),
(199,80,o),
(106,177,o),
(131,350,cs),
(157,529,o),
(284,632,o),
(426,632,cs),
(568,632,o),
(667,529,o),
(641,350,cs),
(616,177,o),
(496,80,o),
(375,69,c),
(366,0,l),
(666,0,l),
(677,72,l),
(441,72,l),
(381,40,l),
(536,40,o),
(694,160,o),
(722,358,cs),
(752,565,o),
(625,708,o),
(437,708,cs),
(249,708,o),
(82,565,o),
(52,358,cs),
(24,160,o),
(148,40,o),
(303,40,c),
(251,72,l),
(16,72,l),
(6,0,l)
);
}
);
width = 752;
},
{
layerId = "6DBF946B-D1CC-402F-8126-F74CC4A62DD0";
shapes = (
{
closed = 1;
nodes = (
(306,0,l),
(312,39,l),
(186,49,o),
(79,154,o),
(107,350,cs),
(136,550,o),
(277,662,o),
(432,662,cs),
(588,662,o),
(697,550,o),
(668,350,cs),
(640,154,o),
(505,49,o),
(375,39,c),
(369,0,l),
(661,0,l),
(667,43,l),
(430,43,l),
(380,24,l),
(529,24,o),
(691,144,o),
(720,349,cs),
(750,561,o),
(626,706,o),
(439,706,cs),
(253,706,o),
(86,561,o),
(56,349,cs),
(27,144,o),
(154,24,o),
(302,24,c),
(259,43,l),
(21,43,l),
(15,0,l)
);
}
);
width = 756;
},
{
layerId = "94E3E3CE-F120-43CB-86CD-384D4F8954CA";
shapes = (
{
closed = 1;
nodes = (
(307,0,l),
(328,143,l),
(232,158,o),
(174,234,o),
(191,350,cs),
(209,476,o),
(301,558,o),
(411,558,cs),
(521,558,o),
(591,476,o),
(573,350,cs),
(556,234,o),
(477,158,o),
(377,143,c),
(356,0,l),
(681,0,l),
(701,144,l),
(470,144,l),
(382,80,l),
(553,80,o),
(704,201,o),
(730,380,cs),
(758,574,o),
(624,712,o),
(433,712,cs),
(242,712,o),
(70,574,o),
(42,380,cs),
(16,201,o),
(133,80,o),
(304,80,c),
(235,144,l),
(3,144,l),
(-17,0,l)
);
}
);
width = 743;
}
);
unicode = 8486;
},
{
glyphname = Ohungarumlaut;
layers = (
{
layerId = "9DC41883-06BB-4704-B6B2-BE0FA655C222";
shapes = (
{
closed = 1;
nodes = (
(21,142,o),
(140,-8,o),
(335,-8,cs),
(530,-8,o),
(691,142,o),
(721,350,cs),
(751,558,o),
(632,708,o),
(437,708,cs),
(242,708,o),
(81,558,o),
(51,350,cs)
);
},
{
closed = 1;
nodes = (
(154,510,o),
(268,632,o),
(426,632,cs),
(584,632,o),
(664,510,o),
(641,350,cs),
(618,191,o),
(504,68,o),
(346,68,cs),
(188,68,o),
(108,191,o),
(131,350,cs)
);
},
{
closed = 1;
nodes = (
(503,925,l),
(421,925,l),
(315,775,l),
(388,775,l)
);
},
{
closed = 1;
nodes = (
(644,925,l),
(562,925,l),
(456,775,l),
(529,775,l)
);
}
);
width = 774;
},
{
layerId = "6DBF946B-D1CC-402F-8126-F74CC4A62DD0";
shapes = (
{
closed = 1;
nodes = (
(28,142,o),
(144,-6,o),
(336,-6,cs),
(528,-6,o),
(685,142,o),
(715,350,cs),
(745,558,o),
(629,706,o),
(437,706,cs),
(245,706,o),
(88,558,o),
(58,350,cs)
);
},
{
closed = 1;
nodes = (
(131,528,o),
(257,662,o),
(431,662,cs),
(605,662,o),
(691,528,o),
(666,350,cs),
(641,174,o),
(516,38,o),
(342,38,cs),
(168,38,o),
(81,174,o),
(106,350,cs)
);
},
{
closed = 1;
nodes = (
(503,933,l),
(441,933,l),
(329,791,l),
(382,791,l)
);
},
{
closed = 1;
nodes = (
(634,933,l),
(571,933,l),
(460,791,l),
(513,791,l)
);
}
);
width = 776;
},
{
layerId = "94E3E3CE-F120-43CB-86CD-384D4F8954CA";
shapes = (
{
closed = 1;
nodes = (
(3,142,o),
(131,-12,o),
(334,-12,cs),
(537,-12,o),
(708,142,o),
(738,350,cs),
(768,558,o),
(640,712,o),
(437,712,cs),
(234,712,o),
(63,558,o),
(33,350,cs)
);
},
{
closed = 1;
nodes = (
(210,466,o),
(298,558,o),
(415,558,cs),
(532,558,o),
(595,466,o),
(578,350,cs),
(561,234,o),
(473,142,o),
(356,142,cs),
(239,142,o),
(176,234,o),
(193,350,cs)
);
},
{
closed = 1;
nodes = (
(503,905,l),
(372,905,l),
(279,735,l),
(401,735,l)
);
},
{
closed = 1;
nodes = (
(672,905,l),
(541,905,l),
(448,735,l),
(569,735,l)
);
}
);
width = 770;
}
);
unicode = 336;
},
{
glyphname = Omacron;
layers = (
{
layerId = "9DC41883-06BB-4704-B6B2-BE0FA655C222";
shapes = (
{
closed = 1;
nodes = (
(21,142,o),
(140,-8,o),
(335,-8,cs),
(530,-8,o),
(691,142,o),
(721,350,cs),
(751,558,o),
(632,708,o),
(437,708,cs),
(242,708,o),
(81,558,o),
(51,350,cs)
);
},
{
closed = 1;
nodes = (
(154,510,o),
(268,632,o),
(426,632,cs),
(584,632,o),
(664,510,o),
(641,350,cs),
(618,191,o),
(504,68,o),
(346,68,cs),
(188,68,o),
(108,191,o),
(131,350,cs)
);
},
{
closed = 1;
nodes = (
(598,810,l),
(606,870,l),
(312,870,l),
(304,810,l)
);
}
);
width = 774;
},
{
layerId = "6DBF946B-D1CC-402F-8126-F74CC4A62DD0";
shapes = (
{
closed = 1;
nodes = (
(28,142,o),
(144,-6,o),
(336,-6,cs),
(528,-6,o),
(685,142,o),
(715,350,cs),
(745,558,o),
(629,706,o),
(437,706,cs),
(245,706,o),
(88,558,o),
(58,350,cs)
);
},
{
closed = 1;
nodes = (
(131,528,o),
(257,662,o),
(431,662,cs),
(605,662,o),
(691,528,o),
(666,350,cs),
(641,174,o),
(516,38,o),
(342,38,cs),
(168,38,o),
(81,174,o),
(106,350,cs)
);
},
{
closed = 1;
nodes = (
(601,828,l),
(607,868,l),
(313,868,l),
(307,828,l)
);
}
);
width = 776;
},
{
layerId = "94E3E3CE-F120-43CB-86CD-384D4F8954CA";
shapes = (
{
closed = 1;
nodes = (
(3,142,o),
(131,-12,o),
(334,-12,cs),
(537,-12,o),
(708,142,o),
(738,350,cs),
(768,558,o),
(640,712,o),
(437,712,cs),
(234,712,o),
(63,558,o),
(33,350,cs)
);
},
{
closed = 1;
nodes = (
(210,466,o),
(298,558,o),
(415,558,cs),
(532,558,o),
(595,466,o),
(578,350,cs),
(561,234,o),
(473,142,o),
(356,142,cs),
(239,142,o),
(176,234,o),
(193,350,cs)
);
},
{
closed = 1;
nodes = (
(589,765,l),
(605,875,l),
(311,875,l),
(295,765,l)
);
}
);
width = 770;
}
);
unicode = 332;
},
{
glyphname = Oslash;
layers = (
{
layerId = "17E587F8-1658-4EA1-B692-913C09764BD7";
name = "#instance";
shapes = (
{
closed = 1;
nodes = (
(-6,0,l),
(123,0,l),
(780,700,l),
(652,700,l)
);
},
{
closed = 1;
nodes = (
(3,142,o),
(131,-12,o),
(334,-12,cs),
(537,-12,o),
(708,142,o),
(738,350,cs),
(768,558,o),
(640,712,o),
(437,712,cs),
(234,712,o),
(63,558,o),
(33,350,cs)
);
},
{
closed = 1;
nodes = (
(210,466,o),
(298,558,o),
(415,558,cs),
(532,558,o),
(595,466,o),
(578,350,cs),
(561,234,o),
(473,142,o),
(356,142,cs),
(239,142,o),
(176,234,o),
(193,350,cs)
);
}
);
width = 770;
},
{
layerId = "9DC41883-06BB-4704-B6B2-BE0FA655C222";
shapes = (
{
closed = 1;
nodes = (
(16,0,l),
(90,0,l),
(763,700,l),
(688,700,l)
);
},
{
closed = 1;
nodes = (
(21,142,o),
(140,-8,o),
(335,-8,cs),
(530,-8,o),
(691,142,o),
(721,350,cs),
(751,558,o),
(632,708,o),
(437,708,cs),
(242,708,o),
(81,558,o),
(51,350,cs)
);
},
{
closed = 1;
nodes = (
(154,510,o),
(268,632,o),
(426,632,cs),
(584,632,o),
(664,510,o),
(641,350,cs),
(618,191,o),
(504,68,o),
(346,68,cs),
(188,68,o),
(108,191,o),
(131,350,cs)
);
}
);
width = 774;
},
{
layerId = "6DBF946B-D1CC-402F-8126-F74CC4A62DD0";
shapes = (
{
closed = 1;
nodes = (
(25,0,l),
(78,0,l),
(756,700,l),
(703,700,l)
);
},
{
closed = 1;
nodes = (
(28,142,o),
(144,-6,o),
(336,-6,cs),
(528,-6,o),
(685,142,o),
(715,350,cs),
(745,558,o),
(629,706,o),
(437,706,cs),
(245,706,o),
(88,558,o),
(58,350,cs)
);
},
{
closed = 1;
nodes = (
(131,528,o),
(257,662,o),
(431,662,cs),
(605,662,o),
(691,528,o),
(666,350,cs),
(641,174,o),
(516,38,o),
(342,38,cs),
(168,38,o),
(81,174,o),
(106,350,cs)
);
}
);
width = 776;
},
{
layerId = "94E3E3CE-F120-43CB-86CD-384D4F8954CA";
shapes = (
{
closed = 1;
nodes = (
(-6,0,l),
(123,0,l),
(780,700,l),
(652,700,l)
);
},
{
closed = 1;
nodes = (
(3,142,o),
(131,-12,o),
(334,-12,cs),
(537,-12,o),
(708,142,o),
(738,350,cs),
(768,558,o),
(640,712,o),
(437,712,cs),
(234,712,o),
(63,558,o),
(33,350,cs)
);
},
{
closed = 1;
nodes = (
(210,466,o),
(298,558,o),
(415,558,cs),
(532,558,o),
(595,466,o),
(578,350,cs),
(561,234,o),
(473,142,o),
(356,142,cs),
(239,142,o),
(176,234,o),
(193,350,cs)
);
}
);
width = 770;
}
);
unicode = 216;
},
{
glyphname = P;
layers = (
{
anchors = (
{
name = bottom;
position = "{233, 0}";
},
{
name = top;
position = "{233, 700}";
}
);
layerId = "94E3E3CE-F120-43CB-86CD-384D4F8954CA";
shapes = (
{
closed = 1;
nodes = (
(1,0,l),
(158,0,l),
(258,700,l),
(101,700,l)
);
},
{
closed = 1;
nodes = (
(131,222,l),
(243,222,ls),
(394,222,o),
(511,311,o),
(532,459,cs),
(552,596,o),
(476,700,o),
(312,700,cs),
(199,700,l),
(178,550,l),
(290,550,ls),
(339,550,o),
(380,521,o),
(371,456,cs),
(362,395,o),
(318,362,o),
(263,362,cs),
(151,362,l)
);
}
);
width = 529;
},
{
anchors = (
{
name = bottom;
position = "{218, 0}";
},
{
name = top;
position = "{218, 700}";
}
);
layerId = "9DC41883-06BB-4704-B6B2-BE0FA655C222";
shapes = (
{
closed = 1;
nodes = (
(19,0,l),
(98,0,l),
(198,700,l),
(119,700,l)
);
},
{
closed = 1;
nodes = (
(95,292,l),
(252,292,ls),
(382,292,o),
(482,360,o),
(501,494,cs),
(519,619,o),
(452,700,o),
(310,700,cs),
(153,700,l),
(143,626,l),
(300,626,ls),
(374,626,o),
(436,589,o),
(422,494,cs),
(409,405,o),
(345,366,o),
(263,366,cs),
(106,366,l)
);
}
);
width = 498;
},
{
anchors = (
{
name = bottom;
position = "{212, 0}";
},
{
name = top;
position = "{212, 700}";
}
);
layerId = "6DBF946B-D1CC-402F-8126-F74CC4A62DD0";
shapes = (
{
closed = 1;
nodes = (
(26,0,l),
(73,0,l),
(173,700,l),
(126,700,l)
);
},
{
closed = 1;
nodes = (
(81,320,l),
(255,320,ls),
(377,320,o),
(471,380,o),
(489,508,cs),
(506,628,o),
(443,700,o),
(310,700,cs),
(135,700,l),
(129,656,l),
(303,656,ls),
(386,656,o),
(457,616,o),
(442,509,cs),
(428,409,o),
(355,368,o),
(262,368,cs),
(88,368,l)
);
}
);
width = 485;
}
);
leftKerningGroup = public.kern2.R_H;
rightKerningGroup = public.kern1.L_P;
unicode = 80;
},
{
glyphname = Q;
layers = (
{
anchors = (
{
name = bottom;
position = "{385, 0}";
},
{
name = top;
position = "{385, 700}";
}
);
layerId = "94E3E3CE-F120-43CB-86CD-384D4F8954CA";
shapes = (
{
closed = 1;
nodes = (
(340,-142,l),
(653,-200,l),
(673,-54,l),
(360,-3,l)
);
},
{
alignment = -1;
ref = O;
}
);
width = 770;
},
{
anchors = (
{
name = bottom;
position = "{387, 0}";
},
{
name = top;
position = "{387, 700}";
}
);
layerId = "9DC41883-06BB-4704-B6B2-BE0FA655C222";
shapes = (
{
closed = 1;
nodes = (
(350,-72,l),
(631,-143,l),
(643,-64,l),
(360,-3,l)
);
},
{
alignment = -1;
ref = O;
}
);
width = 774;
},
{
anchors = (
{
name = bottom;
position = "{388, 0}";
},
{
name = top;
position = "{388, 700}";
}
);
layerId = "6DBF946B-D1CC-402F-8126-F74CC4A62DD0";
shapes = (
{
closed = 1;
nodes = (
(354,-44,l),
(623,-120,l),
(630,-68,l),
(360,-3,l)
);
},
{
alignment = -1;
ref = O;
}
);
width = 776;
}
);
leftKerningGroup = public.kern2.R_O;
rightKerningGroup = public.kern1.L_O;
unicode = 81;
},
{
glyphname = R;
layers = (
{
layerId = "9DC41883-06BB-4704-B6B2-BE0FA655C222";
shapes = (
{
closed = 1;
nodes = (
(19,0,l),
(98,0,l),
(198,700,l),
(119,700,l)
);
},
{
closed = 1;
nodes = (
(179,375,l),
(359,0,l),
(455,0,l),
(275,348,l),
(273,337,l),
(261,318,l),
(409,318,o),
(491,386,o),
(508,503,cs),
(525,622,o),
(463,700,o),
(315,700,cs),
(168,700,l),
(158,626,l),
(310,626,ls),
(388,626,o),
(441,587,o),
(429,501,cs),
(417,415,o),
(353,377,o),
(275,377,cs),
(179,377,l)
);
}
);
width = 517;
},
{
layerId = "6DBF946B-D1CC-402F-8126-F74CC4A62DD0";
shapes = (
{
closed = 1;
nodes = (
(26,0,l),
(73,0,l),
(173,700,l),
(126,700,l)
);
},
{
closed = 1;
nodes = (
(167,376,l),
(378,0,l),
(443,0,l),
(239,352,l),
(238,341,l),
(227,333,l),
(402,333,o),
(484,385,o),
(502,510,cs),
(519,626,o),
(457,700,o),
(319,700,cs),
(146,700,l),
(139,654,l),
(320,654,ls),
(412,654,o),
(470,610,o),
(456,515,cs),
(442,420,o),
(372,377,o),
(280,377,cs),
(168,377,l)
);
}
);
width = 512;
},
{
layerId = "94E3E3CE-F120-43CB-86CD-384D4F8954CA";
shapes = (
{
closed = 1;
nodes = (
(1,0,l),
(158,0,l),
(252,657,l),
(95,657,l)
);
},
{
closed = 1;
nodes = (
(206,372,l),
(311,0,l),
(486,0,l),
(363,338,l),
(253,327,l),
(247,280,l),
(408,280,o),
(505,349,o),
(524,485,cs),
(542,612,o),
(479,700,o),
(307,700,cs),
(101,700,l),
(80,556,l),
(286,556,ls),
(332,556,o),
(371,529,o),
(362,466,cs),
(353,403,o),
(307,377,o),
(261,377,cs),
(207,377,l)
);
}
);
width = 530;
}
);
leftKerningGroup = public.kern2.R_H;
rightKerningGroup = public.kern1.L_R;
unicode = 82;
},
{
glyphname = Rcaron;
layers = (
{
layerId = "9DC41883-06BB-4704-B6B2-BE0FA655C222";
shapes = (
{
closed = 1;
nodes = (
(19,0,l),
(98,0,l),
(198,700,l),
(119,700,l)
);
},
{
closed = 1;
nodes = (
(179,375,l),
(359,0,l),
(455,0,l),
(275,348,l),
(273,337,l),
(261,318,l),
(409,318,o),
(491,386,o),
(508,503,cs),
(525,622,o),
(463,700,o),
(315,700,cs),
(168,700,l),
(158,626,l),
(310,626,ls),
(388,626,o),
(441,587,o),
(429,501,cs),
(417,415,o),
(353,377,o),
(275,377,cs),
(179,377,l)
);
},
{
closed = 1;
nodes = (
(353,775,l),
(274,925,l),
(205,925,l),
(282,775,l)
);
},
{
closed = 1;
nodes = (
(491,925,l),
(421,925,l),
(300,775,l),
(371,775,l)
);
}
);
width = 535;
},
{
layerId = "6DBF946B-D1CC-402F-8126-F74CC4A62DD0";
shapes = (
{
closed = 1;
nodes = (
(26,0,l),
(73,0,l),
(173,700,l),
(126,700,l)
);
},
{
closed = 1;
nodes = (
(167,376,l),
(378,0,l),
(443,0,l),
(239,352,l),
(238,341,l),
(227,333,l),
(402,333,o),
(484,385,o),
(502,510,cs),
(519,626,o),
(457,700,o),
(319,700,cs),
(146,700,l),
(139,654,l),
(320,654,ls),
(412,654,o),
(470,610,o),
(456,515,cs),
(442,420,o),
(372,377,o),
(280,377,cs),
(168,377,l)
);
},
{
closed = 1;
nodes = (
(340,791,l),
(265,933,l),
(218,933,l),
(297,791,l)
);
},
{
closed = 1;
nodes = (
(473,933,l),
(427,933,l),
(311,791,l),
(354,791,l)
);
}
);
width = 531;
},
{
layerId = "94E3E3CE-F120-43CB-86CD-384D4F8954CA";
shapes = (
{
closed = 1;
nodes = (
(1,0,l),
(158,0,l),
(252,657,l),
(95,657,l)
);
},
{
closed = 1;
nodes = (
(206,372,l),
(311,0,l),
(486,0,l),
(363,338,l),
(253,327,l),
(247,280,l),
(408,280,o),
(505,349,o),
(524,485,cs),
(542,612,o),
(479,700,o),
(307,700,cs),
(101,700,l),
(80,556,l),
(286,556,ls),
(332,556,o),
(371,529,o),
(362,466,cs),
(353,403,o),
(307,377,o),
(261,377,cs),
(207,377,l)
);
},
{
closed = 1;
nodes = (
(384,735,l),
(299,905,l),
(171,905,l),
(245,735,l)
);
},
{
closed = 1;
nodes = (
(535,905,l),
(407,905,l),
(273,735,l),
(412,735,l)
);
}
);
width = 545;
}
);
unicode = 344;
},
{
glyphname = Rcommaaccent;
layers = (
{
layerId = "9DC41883-06BB-4704-B6B2-BE0FA655C222";
shapes = (
{
closed = 1;
nodes = (
(19,0,l),
(98,0,l),
(198,700,l),
(119,700,l)
);
},
{
closed = 1;
nodes = (
(179,375,l),
(359,0,l),
(455,0,l),
(275,348,l),
(273,337,l),
(261,318,l),
(409,318,o),
(491,386,o),
(508,503,cs),
(525,622,o),
(463,700,o),
(315,700,cs),
(168,700,l),
(158,626,l),
(310,626,ls),
(388,626,o),
(441,587,o),
(429,501,cs),
(417,415,o),
(353,377,o),
(275,377,cs),
(179,377,l)
);
},
{
closed = 1;
nodes = (
(157,-210,l),
(247,-40,l),
(167,-40,l),
(84,-210,l)
);
}
);
width = 535;
},
{
layerId = "6DBF946B-D1CC-402F-8126-F74CC4A62DD0";
shapes = (
{
closed = 1;
nodes = (
(26,0,l),
(73,0,l),
(173,700,l),
(126,700,l)
);
},
{
closed = 1;
nodes = (
(167,376,l),
(378,0,l),
(443,0,l),
(239,352,l),
(238,341,l),
(227,333,l),
(402,333,o),
(484,385,o),
(502,510,cs),
(519,626,o),
(457,700,o),
(319,700,cs),
(146,700,l),
(139,654,l),
(320,654,ls),
(412,654,o),
(470,610,o),
(456,515,cs),
(442,420,o),
(372,377,o),
(280,377,cs),
(168,377,l)
);
},
{
closed = 1;
nodes = (
(145,-198,l),
(228,-40,l),
(179,-40,l),
(103,-198,l)
);
}
);
width = 531;
},
{
layerId = "94E3E3CE-F120-43CB-86CD-384D4F8954CA";
shapes = (
{
closed = 1;
nodes = (
(1,0,l),
(158,0,l),
(252,657,l),
(95,657,l)
);
},
{
closed = 1;
nodes = (
(206,372,l),
(311,0,l),
(486,0,l),
(363,338,l),
(253,327,l),
(247,280,l),
(408,280,o),
(505,349,o),
(524,485,cs),
(542,612,o),
(479,700,o),
(307,700,cs),
(101,700,l),
(80,556,l),
(286,556,ls),
(332,556,o),
(371,529,o),
(362,466,cs),
(353,403,o),
(307,377,o),
(261,377,cs),
(207,377,l)
);
},
{
closed = 1;
nodes = (
(186,-240,l),
(294,-40,l),
(137,-40,l),
(37,-240,l)
);
}
);
width = 545;
}
);
unicode = 342;
},
{
glyphname = S;
layers = (
{
anchors = (
{
name = bottom;
position = "{215, 0}";
},
{
name = top;
position = "{215, 700}";
}
);
layerId = "94E3E3CE-F120-43CB-86CD-384D4F8954CA";
shapes = (
{
closed = 1;
nodes = (
(253,263,ls),
(283,246,o),
(299,230,o),
(294,197,cs),
(289,164,o),
(265,142,o),
(218,142,cs),
(168,142,o),
(118,162,o),
(39,196,c),
(16,31,l),
(76,6,o),
(137,-12,o),
(201,-12,cs),
(338,-12,o),
(433,70,o),
(451,198,cs),
(465,293,o),
(433,354,o),
(356,397,cs),
(264,449,ls),
(235,465,o),
(217,479,o),
(221,509,cs),
(225,540,o),
(250,561,o),
(297,561,cs),
(346,561,o),
(395,542,o),
(472,505,c),
(495,667,l),
(436,695,o),
(377,712,o),
(314,712,cs),
(177,712,o),
(82,630,o),
(64,502,cs),
(51,413,o),
(85,357,o),
(160,315,cs)
);
}
);
width = 494;
},
{
anchors = (
{
name = bottom;
position = "{195, 0}";
},
{
name = top;
position = "{195, 700}";
}
);
layerId = "9DC41883-06BB-4704-B6B2-BE0FA655C222";
shapes = (
{
closed = 1;
nodes = (
(239,307,ls),
(297,270,o),
(329,238,o),
(320,172,cs),
(311,107,o),
(266,66,o),
(195,66,cs),
(151,66,o),
(103,82,o),
(36,110,c),
(24,25,l),
(75,6,o),
(127,-8,o),
(181,-8,cs),
(296,-8,o),
(382,57,o),
(398,172,cs),
(413,277,o),
(361,331,o),
(297,371,cs),
(238,409,ls),
(181,445,o),
(147,473,o),
(156,534,cs),
(165,596,o),
(209,634,o),
(280,634,cs),
(324,634,o),
(369,619,o),
(434,592,c),
(447,677,l),
(397,695,o),
(346,708,o),
(293,708,cs),
(178,708,o),
(93,644,o),
(77,530,cs),
(63,432,o),
(118,385,o),
(180,345,cs)
);
}
);
width = 454;
},
{
anchors = (
{
name = bottom;
position = "{187, 0}";
},
{
name = top;
position = "{187, 700}";
}
);
layerId = "6DBF946B-D1CC-402F-8126-F74CC4A62DD0";
shapes = (
{
closed = 1;
nodes = (
(233,328,ls),
(301.313,280.478,o),
(341,241,o),
(330,162,cs),
(319,84,o),
(265,36,o),
(185,36,cs),
(144,36,o),
(96,50,o),
(35,76,c),
(27,23,l),
(75,6,o),
(123,-6,o),
(173,-6,cs),
(279,-6,o),
(361,52,o),
(377,162,cs),
(393,271,o),
(331.773,318.665,o),
(274,358,cs),
(227,390,ls),
(160.743,435.111,o),
(119,471,o),
(129,544,cs),
(140,618,o),
(193,663,o),
(273,663,cs),
(315,663,o),
(361,650,o),
(420,627,c),
(427,681,l),
(380,695,o),
(334,706,o),
(285,706,cs),
(179,706,o),
(98,650,o),
(82,541,cs),
(68,440,o),
(130.98,398.971,o),
(187,360,cs)
);
}
);
width = 438;
}
);
leftKerningGroup = public.kern2.R_S;
rightKerningGroup = public.kern1.L_S;
unicode = 83;
},
{
glyphname = Scaron;
layers = (
{
layerId = "9DC41883-06BB-4704-B6B2-BE0FA655C222";
shapes = (
{
closed = 1;
nodes = (
(239,307,ls),
(297,270,o),
(329,238,o),
(320,172,cs),
(311,107,o),
(266,66,o),
(195,66,cs),
(151,66,o),
(103,82,o),
(36,110,c),
(24,25,l),
(75,6,o),
(127,-8,o),
(181,-8,cs),
(296,-8,o),
(382,57,o),
(398,172,cs),
(413,277,o),
(361,331,o),
(297,371,cs),
(238,409,ls),
(181,445,o),
(147,473,o),
(156,534,cs),
(165,596,o),
(209,634,o),
(280,634,cs),
(324,634,o),
(369,619,o),
(434,592,c),
(447,677,l),
(397,695,o),
(346,708,o),
(293,708,cs),
(178,708,o),
(93,644,o),
(77,530,cs),
(63,432,o),
(118,385,o),
(180,345,cs)
);
},
{
closed = 1;
nodes = (
(320,775,l),
(241,925,l),
(172,925,l),
(249,775,l)
);
},
{
closed = 1;
nodes = (
(458,925,l),
(388,925,l),
(267,775,l),
(338,775,l)
);
}
);
width = 470;
},
{
layerId = "6DBF946B-D1CC-402F-8126-F74CC4A62DD0";
shapes = (
{
closed = 1;
nodes = (
(233,328,ls),
(301.313,280.478,o),
(341,241,o),
(330,162,cs),
(319,84,o),
(265,36,o),
(185,36,cs),
(144,36,o),
(96,50,o),
(35,76,c),
(27,23,l),
(75,6,o),
(123,-6,o),
(173,-6,cs),
(279,-6,o),
(361,52,o),
(377,162,cs),
(393,271,o),
(331.773,318.665,o),
(274,358,cs),
(227,390,ls),
(160.743,435.111,o),
(119,471,o),
(129,544,cs),
(140,618,o),
(193,663,o),
(273,663,cs),
(315,663,o),
(361,650,o),
(420,627,c),
(427,681,l),
(380,695,o),
(334,706,o),
(285,706,cs),
(179,706,o),
(98,650,o),
(82,541,cs),
(68,440,o),
(130.98,398.971,o),
(187,360,cs)
);
},
{
closed = 1;
nodes = (
(301,791,l),
(226,933,l),
(179,933,l),
(258,791,l)
);
},
{
closed = 1;
nodes = (
(434,933,l),
(388,933,l),
(272,791,l),
(315,791,l)
);
}
);
width = 454;
},
{
layerId = "94E3E3CE-F120-43CB-86CD-384D4F8954CA";
shapes = (
{
closed = 1;
nodes = (
(253,263,ls),
(283,246,o),
(299,230,o),
(294,197,cs),
(289,164,o),
(265,142,o),
(218,142,cs),
(168,142,o),
(118,162,o),
(39,196,c),
(16,31,l),
(76,6,o),
(137,-12,o),
(201,-12,cs),
(338,-12,o),
(433,70,o),
(451,198,cs),
(465,293,o),
(433,354,o),
(356,397,cs),
(264,449,ls),
(235,465,o),
(217,479,o),
(221,509,cs),
(225,540,o),
(250,561,o),
(297,561,cs),
(346,561,o),
(395,542,o),
(472,505,c),
(495,667,l),
(436,695,o),
(377,712,o),
(314,712,cs),
(177,712,o),
(82,630,o),
(64,502,cs),
(51,413,o),
(85,357,o),
(160,315,cs)
);
},
{
closed = 1;
nodes = (
(366,735,l),
(281,905,l),
(153,905,l),
(227,735,l)
);
},
{
closed = 1;
nodes = (
(517,905,l),
(389,905,l),
(255,735,l),
(394,735,l)
);
}
);
width = 510;
}
);
unicode = 352;
},
{
glyphname = Schwa;
layers = (
{
layerId = "9DC41883-06BB-4704-B6B2-BE0FA655C222";
shapes = (
{
closed = 1;
nodes = (
(328,712,o),
(246,692,o),
(164,653,c),
(151,566,l),
(237,615,o),
(318,634,o),
(387,634,cs),
(562,634,o),
(644,509,o),
(623,360,cs),
(620,340,ls),
(599,191,o),
(490,66,o),
(330,66,cs),
(180,66,o),
(104,175,o),
(123,311,c),
(97,298,l),
(620,298,l),
(630,368,l),
(57,368,l),
(53,354,o),
(49,337,o),
(46,314,cs),
(21,141,o),
(117,-12,o),
(317,-12,cs),
(517,-12,o),
(671,145,o),
(700,350,cs),
(729,555,o),
(618,712,o),
(402,712,cs)
);
}
);
width = 730;
},
{
layerId = "6DBF946B-D1CC-402F-8126-F74CC4A62DD0";
shapes = (
{
closed = 1;
nodes = (
(329,712,o),
(249,690,o),
(167,651,c),
(158,592,l),
(249,647,o),
(331,664,o),
(396,664,cs),
(579,664,o),
(673,525,o),
(649,356,c),
(647,345,l),
(623,175,o),
(497,36,o),
(327,36,cs),
(167,36,o),
(74,158,o),
(97,317,c),
(82,306,l),
(613,306,l),
(619,350,l),
(60,350,l),
(58,342,o),
(56,331,o),
(53,312,cs),
(29,141,o),
(122,-12,o),
(317,-12,cs),
(514,-12,o),
(664,146,o),
(693,350,cs),
(722,551,o),
(617,712,o),
(403,712,cs)
);
}
);
width = 731;
},
{
layerId = "94E3E3CE-F120-43CB-86CD-384D4F8954CA";
shapes = (
{
closed = 1;
nodes = (
(323,712,o),
(238,696,o),
(157,658,c),
(135,500,l),
(210,536,o),
(284,560,o),
(363,560,cs),
(518,560,o),
(571,469,o),
(557,370,cs),
(551,327,ls),
(537,231,o),
(471,142,o),
(336,142,cs),
(213,142,o),
(177,217,o),
(188,297,c),
(135,278,l),
(639,278,l),
(658,414,l),
(52,414,l),
(42,384,o),
(33,353,o),
(28,320,cs),
(2,140,o),
(103,-12,o),
(315,-12,cs),
(524,-12,o),
(686,143,o),
(716,350,cs),
(747,564,o),
(618,712,o),
(397,712,cs)
);
}
);
width = 728;
}
);
unicode = 399;
},
{
glyphname = Scommaaccent;
layers = (
{
layerId = "9DC41883-06BB-4704-B6B2-BE0FA655C222";
shapes = (
{
closed = 1;
nodes = (
(239,307,ls),
(297,270,o),
(329,238,o),
(320,172,cs),
(311,107,o),
(266,66,o),
(195,66,cs),
(151,66,o),
(103,82,o),
(36,110,c),
(24,25,l),
(75,6,o),
(127,-8,o),
(181,-8,cs),
(296,-8,o),
(382,57,o),
(398,172,cs),
(413,277,o),
(361,331,o),
(297,371,cs),
(238,409,ls),
(181,445,o),
(147,473,o),
(156,534,cs),
(165,596,o),
(209,634,o),
(280,634,cs),
(324,634,o),
(369,619,o),
(434,592,c),
(447,677,l),
(397,695,o),
(346,708,o),
(293,708,cs),
(178,708,o),
(93,644,o),
(77,530,cs),
(63,432,o),
(118,385,o),
(180,345,cs)
);
},
{
closed = 1;
nodes = (
(124,-210,l),
(214,-40,l),
(134,-40,l),
(51,-210,l)
);
}
);
width = 470;
},
{
layerId = "6DBF946B-D1CC-402F-8126-F74CC4A62DD0";
shapes = (
{
closed = 1;
nodes = (
(233,328,ls),
(301.313,280.478,o),
(341,241,o),
(330,162,cs),
(319,84,o),
(265,36,o),
(185,36,cs),
(144,36,o),
(96,50,o),
(35,76,c),
(27,23,l),
(75,6,o),
(123,-6,o),
(173,-6,cs),
(279,-6,o),
(361,52,o),
(377,162,cs),
(393,271,o),
(331.773,318.665,o),
(274,358,cs),
(227,390,ls),
(160.743,435.111,o),
(119,471,o),
(129,544,cs),
(140,618,o),
(193,663,o),
(273,663,cs),
(315,663,o),
(361,650,o),
(420,627,c),
(427,681,l),
(380,695,o),
(334,706,o),
(285,706,cs),
(179,706,o),
(98,650,o),
(82,541,cs),
(68,440,o),
(130.98,398.971,o),
(187,360,cs)
);
},
{
closed = 1;
nodes = (
(106,-198,l),
(189,-40,l),
(140,-40,l),
(64,-198,l)
);
}
);
width = 454;
},
{
layerId = "94E3E3CE-F120-43CB-86CD-384D4F8954CA";
shapes = (
{
closed = 1;
nodes = (
(253,263,ls),
(283,246,o),
(299,230,o),
(294,197,cs),
(289,164,o),
(265,142,o),
(218,142,cs),
(168,142,o),
(118,162,o),
(39,196,c),
(16,31,l),
(76,6,o),
(137,-12,o),
(201,-12,cs),
(338,-12,o),
(433,70,o),
(451,198,cs),
(465,293,o),
(433,354,o),
(356,397,cs),
(264,449,ls),
(235,465,o),
(217,479,o),
(221,509,cs),
(225,540,o),
(250,561,o),
(297,561,cs),
(346,561,o),
(395,542,o),
(472,505,c),
(495,667,l),
(436,695,o),
(377,712,o),
(314,712,cs),
(177,712,o),
(82,630,o),
(64,502,cs),
(51,413,o),
(85,357,o),
(160,315,cs)
);
},
{
closed = 1;
nodes = (
(168,-240,l),
(276,-40,l),
(119,-40,l),
(19,-240,l)
);
}
);
width = 510;
}
);
unicode = 536;
},
{
glyphname = T;
layers = (
{
layerId = "9DC41883-06BB-4704-B6B2-BE0FA655C222";
shapes = (
{
closed = 1;
nodes = (
(81,624,l),
(551,624,l),
(562,700,l),
(92,700,l)
);
},
{
closed = 1;
nodes = (
(188,0,l),
(266,0,l),
(360,657,l),
(282,657,l)
);
}
);
width = 534;
},
{
layerId = "6DBF946B-D1CC-402F-8126-F74CC4A62DD0";
shapes = (
{
closed = 1;
nodes = (
(93,654,l),
(563,654,l),
(570,700,l),
(99,700,l)
);
},
{
closed = 1;
nodes = (
(211,0,l),
(258,0,l),
(352,657,l),
(305,657,l)
);
}
);
width = 548;
},
{
layerId = "94E3E3CE-F120-43CB-86CD-384D4F8954CA";
shapes = (
{
closed = 1;
nodes = (
(52,548,l),
(522,548,l),
(544,700,l),
(74,700,l)
);
},
{
closed = 1;
nodes = (
(130,0,l),
(287,0,l),
(381,657,l),
(224,657,l)
);
}
);
width = 497;
}
);
leftKerningGroup = public.kern2.R_T;
unicode = 84;
},
{
glyphname = Tcaron;
layers = (
{
layerId = "9DC41883-06BB-4704-B6B2-BE0FA655C222";
shapes = (
{
closed = 1;
nodes = (
(81,624,l),
(551,624,l),
(562,700,l),
(92,700,l)
);
},
{
closed = 1;
nodes = (
(188,0,l),
(266,0,l),
(360,657,l),
(282,657,l)
);
},
{
closed = 1;
nodes = (
(360,775,l),
(281,925,l),
(212,925,l),
(289,775,l)
);
},
{
closed = 1;
nodes = (
(498,925,l),
(428,925,l),
(307,775,l),
(378,775,l)
);
}
);
width = 550;
},
{
layerId = "6DBF946B-D1CC-402F-8126-F74CC4A62DD0";
shapes = (
{
closed = 1;
nodes = (
(93,654,l),
(563,654,l),
(570,700,l),
(99,700,l)
);
},
{
closed = 1;
nodes = (
(211,0,l),
(258,0,l),
(352,657,l),
(305,657,l)
);
},
{
closed = 1;
nodes = (
(357,791,l),
(282,933,l),
(235,933,l),
(314,791,l)
);
},
{
closed = 1;
nodes = (
(490,933,l),
(444,933,l),
(328,791,l),
(371,791,l)
);
}
);
width = 566;
},
{
layerId = "94E3E3CE-F120-43CB-86CD-384D4F8954CA";
shapes = (
{
closed = 1;
nodes = (
(52,548,l),
(522,548,l),
(544,700,l),
(74,700,l)
);
},
{
closed = 1;
nodes = (
(130,0,l),
(287,0,l),
(381,657,l),
(224,657,l)
);
},
{
closed = 1;
nodes = (
(366,735,l),
(281,905,l),
(153,905,l),
(227,735,l)
);
},
{
closed = 1;
nodes = (
(517,905,l),
(389,905,l),
(255,735,l),
(394,735,l)
);
}
);
width = 510;
}
);
unicode = 356;
},
{
glyphname = Tcommaaccent;
layers = (
{
layerId = "9DC41883-06BB-4704-B6B2-BE0FA655C222";
shapes = (
{
closed = 1;
nodes = (
(81,624,l),
(551,624,l),
(562,700,l),
(92,700,l)
);
},
{
closed = 1;
nodes = (
(188,0,l),
(266,0,l),
(360,657,l),
(282,657,l)
);
},
{
closed = 1;
nodes = (
(164,-210,l),
(254,-40,l),
(174,-40,l),
(91,-210,l)
);
}
);
width = 550;
},
{
layerId = "6DBF946B-D1CC-402F-8126-F74CC4A62DD0";
shapes = (
{
closed = 1;
nodes = (
(93,654,l),
(563,654,l),
(570,700,l),
(99,700,l)
);
},
{
closed = 1;
nodes = (
(211,0,l),
(258,0,l),
(352,657,l),
(305,657,l)
);
},
{
closed = 1;
nodes = (
(162,-198,l),
(245,-40,l),
(196,-40,l),
(120,-198,l)
);
}
);
width = 566;
},
{
layerId = "94E3E3CE-F120-43CB-86CD-384D4F8954CA";
shapes = (
{
closed = 1;
nodes = (
(52,548,l),
(522,548,l),
(544,700,l),
(74,700,l)
);
},
{
closed = 1;
nodes = (
(130,0,l),
(287,0,l),
(381,657,l),
(224,657,l)
);
},
{
closed = 1;
nodes = (
(168,-240,l),
(276,-40,l),
(119,-40,l),
(19,-240,l)
);
}
);
width = 510;
}
);
unicode = 538;
},
{
glyphname = Thorn;
layers = (
{
layerId = "9DC41883-06BB-4704-B6B2-BE0FA655C222";
shapes = (
{
closed = 1;
nodes = (
(19,0,l),
(98,0,l),
(198,700,l),
(119,700,l)
);
},
{
closed = 1;
nodes = (
(75,152,l),
(232,152,ls),
(362,152,o),
(462,220,o),
(481,354,cs),
(499,479,o),
(432,560,o),
(290,560,cs),
(138,560,l),
(128,486,l),
(280,486,ls),
(354,486,o),
(416,449,o),
(402,354,cs),
(389,265,o),
(325,226,o),
(243,226,cs),
(86,226,l)
);
}
);
width = 498;
},
{
layerId = "6DBF946B-D1CC-402F-8126-F74CC4A62DD0";
shapes = (
{
closed = 1;
nodes = (
(26,0,l),
(73,0,l),
(173,700,l),
(126,700,l)
);
},
{
closed = 1;
nodes = (
(80,164,l),
(233,164,ls),
(355,164,o),
(449,224,o),
(467,352,cs),
(484,472,o),
(420,544,o),
(287,544,cs),
(139,544,l),
(133,501,l),
(281,501,ls),
(364,501,o),
(435,461,o),
(420,354,cs),
(406,253,o),
(333,212,o),
(240,212,cs),
(87,212,l)
);
}
);
width = 485;
},
{
layerId = "94E3E3CE-F120-43CB-86CD-384D4F8954CA";
shapes = (
{
closed = 1;
nodes = (
(1,0,l),
(158,0,l),
(258,700,l),
(101,700,l)
);
},
{
closed = 1;
nodes = (
(62,122,l),
(229,122,ls),
(380,122,o),
(497,211,o),
(518,359,cs),
(538,496,o),
(461,600,o),
(297,600,cs),
(136,600,l),
(114,448,l),
(276,448,ls),
(325,448,o),
(365,419,o),
(356,355,cs),
(347,295,o),
(304,262,o),
(249,262,cs),
(82,262,l)
);
}
);
width = 529;
}
);
unicode = 222;
},
{
glyphname = U;
layers = (
{
anchors = (
{
name = bottom;
position = "{255, 0}";
},
{
name = ogonek;
position = "{340, 0}";
},
{
name = top;
position = "{255, 700}";
},
{
name = topright;
position = "{530, 700}";
}
);
layerId = "94E3E3CE-F120-43CB-86CD-384D4F8954CA";
shapes = (
{
closed = 1;
nodes = (
(445,700,l),
(381,251,ls),
(372,189,o),
(330,142,o),
(267,142,cs),
(204,142,o),
(176,189,o),
(185,251,cs),
(249,700,l),
(92,700,l),
(29,258,ls),
(6,97,o),
(82,-12,o),
(245,-12,cs),
(408,-12,o),
(515,97,o),
(538,258,cs),
(601,700,l)
);
}
);
width = 573;
},
{
anchors = (
{
name = bottom;
position = "{260, 0}";
},
{
name = ogonek;
position = "{340, 0}";
},
{
name = top;
position = "{260, 700}";
},
{
name = topright;
position = "{540, 700}";
}
);
layerId = "9DC41883-06BB-4704-B6B2-BE0FA655C222";
shapes = (
{
closed = 1;
nodes = (
(507,700,l),
(440,237,ls),
(426,140,o),
(369,62,o),
(259,62,cs),
(149,62,o),
(113,140,o),
(127,237,cs),
(193,700,l),
(115,700,l),
(49,244,ls),
(28,95,o),
(88,-12,o),
(248,-12,cs),
(408,-12,o),
(499,95,o),
(520,244,cs),
(585,700,l)
);
}
);
width = 579;
},
{
anchors = (
{
name = bottom;
position = "{262, 0}";
},
{
name = ogonek;
position = "{340, 0}";
},
{
name = top;
position = "{262, 700}";
},
{
name = topright;
position = "{544, 700}";
}
);
layerId = "6DBF946B-D1CC-402F-8126-F74CC4A62DD0";
shapes = (
{
closed = 1;
nodes = (
(531,700,l),
(464,231,ls),
(448,120,o),
(383,30,o),
(255,30,cs),
(127,30,o),
(88,120,o),
(104,231,cs),
(171,700,l),
(124,700,l),
(58,238,ls),
(37,94,o),
(90,-12,o),
(249,-12,cs),
(408,-12,o),
(491,94,o),
(512,238,cs),
(578,700,l)
);
}
);
width = 582;
}
);
leftKerningGroup = public.kern2.R_U;
rightKerningGroup = public.kern1.L_U;
unicode = 85;
},
{
glyphname = Ubreve;
layers = (
{
layerId = "9DC41883-06BB-4704-B6B2-BE0FA655C222";
shapes = (
{
closed = 1;
nodes = (
(507,700,l),
(440,237,ls),
(426,140,o),
(369,62,o),
(259,62,cs),
(149,62,o),
(113,140,o),
(127,237,cs),
(193,700,l),
(115,700,l),
(49,244,ls),
(28,95,o),
(88,-12,o),
(248,-12,cs),
(408,-12,o),
(499,95,o),
(520,244,cs),
(585,700,l)
);
},
{
closed = 1;
nodes = (
(444,770,o),
(511,836,o),
(524,925,c),
(236,925,l),
(223,836,o),
(272,770,o),
(358,770,cs)
);
},
{
closed = 1;
nodes = (
(314,830,o),
(287,868,o),
(295,925,c),
(465,925,l),
(457,868,o),
(418,830,o),
(366,830,cs)
);
}
);
width = 600;
},
{
layerId = "6DBF946B-D1CC-402F-8126-F74CC4A62DD0";
shapes = (
{
closed = 1;
nodes = (
(531,700,l),
(464,231,ls),
(448,120,o),
(383,30,o),
(255,30,cs),
(127,30,o),
(88,120,o),
(104,231,cs),
(171,700,l),
(124,700,l),
(58,238,ls),
(37,94,o),
(90,-12,o),
(249,-12,cs),
(408,-12,o),
(491,94,o),
(512,238,cs),
(578,700,l)
);
},
{
closed = 1;
nodes = (
(440,786,o),
(504,848,o),
(516,933,c),
(249,933,l),
(237,848,o),
(282,786,o),
(361,786,cs)
);
},
{
closed = 1;
nodes = (
(311,830,o),
(280,871,o),
(289,933,c),
(475,933,l),
(466,871,o),
(425,830,o),
(368,830,cs)
);
}
);
width = 604;
},
{
layerId = "94E3E3CE-F120-43CB-86CD-384D4F8954CA";
shapes = (
{
closed = 1;
nodes = (
(445,700,l),
(381,251,ls),
(372,189,o),
(330,142,o),
(267,142,cs),
(204,142,o),
(176,189,o),
(185,251,cs),
(249,700,l),
(92,700,l),
(29,258,ls),
(6,97,o),
(82,-12,o),
(245,-12,cs),
(408,-12,o),
(515,97,o),
(538,258,cs),
(601,700,l)
);
},
{
closed = 1;
nodes = (
(452,730,o),
(532,805,o),
(546,905,c),
(203,905,l),
(189,805,o),
(246,730,o),
(349,730,cs)
);
},
{
closed = 1;
nodes = (
(323,830,o),
(302,860,o),
(308,905,c),
(440,905,l),
(434,860,o),
(403,830,o),
(363,830,cs)
);
}
);
width = 590;
}
);
unicode = 364;
},
{
glyphname = Uhungarumlaut;
layers = (
{
layerId = "9DC41883-06BB-4704-B6B2-BE0FA655C222";
shapes = (
{
closed = 1;
nodes = (
(507,700,l),
(440,237,ls),
(426,140,o),
(369,62,o),
(259,62,cs),
(149,62,o),
(113,140,o),
(127,237,cs),
(193,700,l),
(115,700,l),
(49,244,ls),
(28,95,o),
(88,-12,o),
(248,-12,cs),
(408,-12,o),
(499,95,o),
(520,244,cs),
(585,700,l)
);
},
{
closed = 1;
nodes = (
(416,925,l),
(334,925,l),
(228,775,l),
(301,775,l)
);
},
{
closed = 1;
nodes = (
(557,925,l),
(475,925,l),
(369,775,l),
(442,775,l)
);
}
);
width = 600;
},
{
layerId = "6DBF946B-D1CC-402F-8126-F74CC4A62DD0";
shapes = (
{
closed = 1;
nodes = (
(531,700,l),
(464,231,ls),
(448,120,o),
(383,30,o),
(255,30,cs),
(127,30,o),
(88,120,o),
(104,231,cs),
(171,700,l),
(124,700,l),
(58,238,ls),
(37,94,o),
(90,-12,o),
(249,-12,cs),
(408,-12,o),
(491,94,o),
(512,238,cs),
(578,700,l)
);
},
{
closed = 1;
nodes = (
(417,933,l),
(355,933,l),
(243,791,l),
(296,791,l)
);
},
{
closed = 1;
nodes = (
(548,933,l),
(485,933,l),
(374,791,l),
(427,791,l)
);
}
);
width = 604;
},
{
layerId = "94E3E3CE-F120-43CB-86CD-384D4F8954CA";
shapes = (
{
closed = 1;
nodes = (
(445,700,l),
(381,251,ls),
(372,189,o),
(330,142,o),
(267,142,cs),
(204,142,o),
(176,189,o),
(185,251,cs),
(249,700,l),
(92,700,l),
(29,258,ls),
(6,97,o),
(82,-12,o),
(245,-12,cs),
(408,-12,o),
(515,97,o),
(538,258,cs),
(601,700,l)
);
},
{
closed = 1;
nodes = (
(413,905,l),
(282,905,l),
(189,735,l),
(311,735,l)
);
},
{
closed = 1;
nodes = (
(582,905,l),
(451,905,l),
(358,735,l),
(479,735,l)
);
}
);
width = 590;
}
);
unicode = 368;
},
{
glyphname = Umacron;
layers = (
{
layerId = "9DC41883-06BB-4704-B6B2-BE0FA655C222";
shapes = (
{
closed = 1;
nodes = (
(507,700,l),
(440,237,ls),
(426,140,o),
(369,62,o),
(259,62,cs),
(149,62,o),
(113,140,o),
(127,237,cs),
(193,700,l),
(115,700,l),
(49,244,ls),
(28,95,o),
(88,-12,o),
(248,-12,cs),
(408,-12,o),
(499,95,o),
(520,244,cs),
(585,700,l)
);
},
{
closed = 1;
nodes = (
(511,810,l),
(519,870,l),
(225,870,l),
(217,810,l)
);
}
);
width = 600;
},
{
layerId = "6DBF946B-D1CC-402F-8126-F74CC4A62DD0";
shapes = (
{
closed = 1;
nodes = (
(531,700,l),
(464,231,ls),
(448,120,o),
(383,30,o),
(255,30,cs),
(127,30,o),
(88,120,o),
(104,231,cs),
(171,700,l),
(124,700,l),
(58,238,ls),
(37,94,o),
(90,-12,o),
(249,-12,cs),
(408,-12,o),
(491,94,o),
(512,238,cs),
(578,700,l)
);
},
{
closed = 1;
nodes = (
(515,828,l),
(521,868,l),
(227,868,l),
(221,828,l)
);
}
);
width = 604;
},
{
layerId = "94E3E3CE-F120-43CB-86CD-384D4F8954CA";
shapes = (
{
closed = 1;
nodes = (
(445,700,l),
(381,251,ls),
(372,189,o),
(330,142,o),
(267,142,cs),
(204,142,o),
(176,189,o),
(185,251,cs),
(249,700,l),
(92,700,l),
(29,258,ls),
(6,97,o),
(82,-12,o),
(245,-12,cs),
(408,-12,o),
(515,97,o),
(538,258,cs),
(601,700,l)
);
},
{
closed = 1;
nodes = (
(499,765,l),
(515,875,l),
(221,875,l),
(205,765,l)
);
}
);
width = 590;
}
);
unicode = 362;
},
{
glyphname = Uogonek;
layers = (
{
layerId = "9DC41883-06BB-4704-B6B2-BE0FA655C222";
shapes = (
{
closed = 1;
nodes = (
(507,700,l),
(440,237,ls),
(426,140,o),
(369,62,o),
(259,62,cs),
(149,62,o),
(113,140,o),
(127,237,cs),
(193,700,l),
(115,700,l),
(49,244,ls),
(28,95,o),
(88,-12,o),
(248,-12,cs),
(408,-12,o),
(499,95,o),
(520,244,cs),
(585,700,l)
);
},
{
closed = 1;
nodes = (
(284,18,l),
(242,2,o),
(185,-30,o),
(176,-95,cs),
(166,-166,o),
(223,-190,o),
(281,-190,cs),
(315,-190,l),
(324,-126,l),
(299,-126,ls),
(269,-126,o),
(238,-115,o),
(243,-77,cs),
(248,-41,o),
(279,-18,o),
(327,0,c)
);
}
);
width = 600;
},
{
layerId = "6DBF946B-D1CC-402F-8126-F74CC4A62DD0";
shapes = (
{
closed = 1;
nodes = (
(531,700,l),
(464,231,ls),
(448,120,o),
(383,30,o),
(255,30,cs),
(127,30,o),
(88,120,o),
(104,231,cs),
(171,700,l),
(124,700,l),
(58,238,ls),
(37,94,o),
(90,-12,o),
(249,-12,cs),
(408,-12,o),
(491,94,o),
(512,238,cs),
(578,700,l)
);
},
{
closed = 1;
nodes = (
(297,7,l),
(262,-4,o),
(209,-32,o),
(201,-91,cs),
(192,-153,o),
(238,-178,o),
(291,-178,cs),
(311,-178,l),
(317,-134,l),
(297,-134,ls),
(270,-134,o),
(234,-123,o),
(240,-81,cs),
(246,-42,o),
(277,-20,o),
(325,0,c)
);
}
);
width = 604;
},
{
layerId = "94E3E3CE-F120-43CB-86CD-384D4F8954CA";
shapes = (
{
closed = 1;
nodes = (
(445,700,l),
(381,251,ls),
(372,189,o),
(330,142,o),
(267,142,cs),
(204,142,o),
(176,189,o),
(185,251,cs),
(249,700,l),
(92,700,l),
(29,258,ls),
(6,97,o),
(82,-12,o),
(245,-12,cs),
(408,-12,o),
(515,97,o),
(538,258,cs),
(601,700,l)
);
},
{
closed = 1;
nodes = (
(251,45,l),
(188,16,o),
(124,-26,o),
(113,-104,cs),
(99,-199,o),
(184,-220,o),
(255,-220,cs),
(326,-220,l),
(342,-106,l),
(303,-106,ls),
(265,-106,o),
(246,-94,o),
(250,-68,cs),
(254,-39,o),
(284,-12,o),
(332,0,c)
);
}
);
width = 590;
}
);
unicode = 370;
},
{
glyphname = V;
layers = (
{
anchors = (
{
name = bottom;
position = "{287, 0}";
},
{
name = top;
position = "{287, 700}";
}
);
layerId = "94E3E3CE-F120-43CB-86CD-384D4F8954CA";
shapes = (
{
closed = 1;
nodes = (
(410,0,l),
(675,700,l),
(515,700,l),
(295,97,l,{name = cr01;}),
(251,-5,l),
(251,-6,l),
(357,0,l),
(305,0,l),
(244,700,l),
(83,700,l),
(147,0,l)
);
}
);
width = 637;
},
{
anchors = (
{
name = bottom;
position = "{265, 0}";
},
{
name = top;
position = "{265, 700}";
}
);
layerId = "9DC41883-06BB-4704-B6B2-BE0FA655C222";
shapes = (
{
closed = 1;
nodes = (
(322,0,l),
(620,700,l),
(540,700,l),
(288,95,l,{name = cr01;}),
(244,-2,l),
(245,-3,l),
(345,0,l),
(272,0,l),
(173,700,l),
(92,700,l),
(193,0,l)
);
}
);
width = 591;
},
{
anchors = (
{
name = bottom;
position = "{256, 0}";
},
{
name = top;
position = "{256, 700}";
}
);
layerId = "6DBF946B-D1CC-402F-8126-F74CC4A62DD0";
shapes = (
{
closed = 1;
nodes = (
(287,0,l),
(598,700,l),
(549,700,l),
(285,94,l),
(242,-1,l),
(243,-2,l),
(339,0,l),
(259,0,l),
(144,700,l),
(95,700,l),
(211,0,l)
);
}
);
width = 573;
}
);
leftKerningGroup = public.kern2.R_V;
rightKerningGroup = public.kern1.L_V;
unicode = 86;
},
{
glyphname = W;
layers = (
{
layerId = "17E587F8-1658-4EA1-B692-913C09764BD7";
name = "#instance";
shapes = (
{
closed = 1;
nodes = (
(289.857,0,l),
(555.611,677.867,l),
(519.143,700,l),
(590.429,0,l),
(721,0,l),
(997.714,700,l),
(917.857,700,l),
(654.524,38.565,l),
(670.429,28.571,l),
(597.143,700,l),
(491.857,700,l),
(224.246,34.249,l),
(239.714,21.429,l),
(172,700,l),
(91.571,700,l),
(161.857,0,l)
);
}
);
width = 969;
},
{
layerId = "9DC41883-06BB-4704-B6B2-BE0FA655C222";
shapes = (
{
closed = 1;
nodes = (
(289.857,0,l),
(555.611,677.867,l),
(519.143,700,l),
(590.429,0,l),
(721,0,l),
(997.714,700,l),
(917.857,700,l),
(654.524,38.565,l),
(670.429,28.571,l),
(597.143,700,l),
(491.857,700,l),
(224.246,34.249,l),
(239.714,21.429,l),
(172,700,l),
(91.571,700,l),
(161.857,0,l)
);
}
);
width = 969;
},
{
layerId = "6DBF946B-D1CC-402F-8126-F74CC4A62DD0";
shapes = (
{
closed = 1;
nodes = (
(251,0,l),
(532.074,684.42,l),
(504,700,l),
(587,0,l),
(667,0,l),
(956,700,l),
(907,700,l),
(632.792,43.502,l),
(637,40,l),
(550,700,l),
(499,700,l),
(217.499,35.122,l),
(222,30,l),
(144,700,l),
(95,700,l),
(175,0,l)
);
}
);
width = 931;
},
{
layerId = "94E3E3CE-F120-43CB-86CD-384D4F8954CA";
shapes = (
{
closed = 1;
nodes = (
(387,0,l),
(614.451,661.486,l),
(557,700,l),
(599,0,l),
(856,0,l),
(1102,700,l),
(945,700,l),
(708.856,26.222,l),
(754,0,l),
(715,700,l),
(474,700,l),
(241.114,32.066,l),
(284,0,l),
(242,700,l),
(83,700,l),
(129,0,l)
);
}
);
width = 1064;
}
);
leftKerningGroup = public.kern2.R_V;
rightKerningGroup = public.kern1.L_V;
unicode = 87;
},
{
glyphname = X;
layers = (
{
layerId = "9DC41883-06BB-4704-B6B2-BE0FA655C222";
shapes = (
{
closed = 1;
nodes = (
(267,355,l),
(391,51,l,{name = cr01;}),
(410,-1,l),
(411,-2,l),
(468,0,l),
(503,0,l),
(349,355,l),
(598,700,l),
(507,700,l),
(271,355,l),
(324,355,l),
(183,700,l),
(92,700,l),
(243,355,l),
(-13,0,l),
(78,0,l),
(320,355,l)
);
}
);
width = 570;
},
{
layerId = "6DBF946B-D1CC-402F-8126-F74CC4A62DD0";
shapes = (
{
closed = 1;
nodes = (
(255,355,l),
(389,50,l),
(409,0,l),
(411,-1,l),
(467,0,l),
(468,0,l),
(303,355,l),
(563,700,l),
(504,700,l),
(259,355,l),
(304,355,l),
(154,700,l),
(96,700,l),
(257,355,l),
(-9,0,l),
(51,0,l),
(300,355,l)
);
}
);
width = 539;
},
{
layerId = "94E3E3CE-F120-43CB-86CD-384D4F8954CA";
shapes = (
{
closed = 1;
nodes = (
(296,355,l),
(397,53,l,{name = cr01;}),
(411,-4,l),
(412,-4,l),
(471,0,l),
(590,0,l),
(462,355,l),
(685,700,l),
(514,700,l),
(300,355,l),
(373,355,l),
(259,700,l),
(83,700,l),
(207,355,l),
(-22,0,l),
(149,0,l),
(369,355,l)
);
}
);
width = 647;
}
);
leftKerningGroup = public.kern2.R_X;
rightKerningGroup = public.kern1.L_X;
unicode = 88;
},
{
glyphname = Y;
layers = (
{
layerId = "17E587F8-1658-4EA1-B692-913C09764BD7";
name = "#instance";
shapes = (
{
closed = 1;
nodes = (
(365,200.287,l),
(661,700,l),
(494,700,l),
(271,277,l),
(336,280,l),
(238,700,l),
(69,700,l),
(220.265,200.287,l)
);
},
{
closed = 1;
nodes = (
(187,0,l),
(343,0,l),
(385,290,l),
(228,290,l)
);
}
);
width = 610;
},
{
layerId = "9DC41883-06BB-4704-B6B2-BE0FA655C222";
shapes = (
{
closed = 1;
nodes = (
(319.217,278.162,l),
(611,700,l),
(523.286,700,l),
(279.571,319.857,l),
(302.429,320,l),
(166.571,700,l),
(78.286,700,l),
(248.647,278.162,l)
);
},
{
closed = 1;
nodes = (
(205.571,0,l),
(283.714,0,l),
(331.429,330,l),
(253,330,l)
);
}
);
width = 569;
},
{
layerId = "6DBF946B-D1CC-402F-8126-F74CC4A62DD0";
shapes = (
{
closed = 1;
nodes = (
(300.903,295.313,l),
(591,700,l),
(535,700,l),
(283,337,l),
(289,336,l),
(138,700,l),
(82,700,l),
(260,295.312,l)
);
},
{
closed = 1;
nodes = (
(213,0,l),
(260,0,l),
(310,346,l),
(263,346,l)
);
}
);
width = 553;
},
{
layerId = "94E3E3CE-F120-43CB-86CD-384D4F8954CA";
shapes = (
{
closed = 1;
nodes = (
(365,200.287,l),
(661,700,l),
(494,700,l),
(271,277,l),
(336,280,l),
(238,700,l),
(69,700,l),
(220.265,200.287,l)
);
},
{
closed = 1;
nodes = (
(187,0,l),
(343,0,l),
(385,290,l),
(228,290,l)
);
}
);
width = 610;
}
);
leftKerningGroup = public.kern2.R_Y;
rightKerningGroup = public.kern1.L_Y;
unicode = 89;
},
{
glyphname = Z;
layers = (
{
layerId = "9DC41883-06BB-4704-B6B2-BE0FA655C222";
shapes = (
{
closed = 1;
nodes = (
(437,0,l),
(448,74,l),
(12,74,l),
(48,23,l),
(515,611,l),
(527,700,l),
(101,700,l),
(90,626,l),
(517,626,l),
(480,677,l),
(14,89,l),
(1,0,l)
);
}
);
width = 518;
},
{
layerId = "6DBF946B-D1CC-402F-8126-F74CC4A62DD0";
shapes = (
{
closed = 1;
nodes = (
(429,0,l),
(435,43,l),
(11,43,l),
(38,23,l),
(511,642,l),
(519,700,l),
(105,700,l),
(98,657,l),
(513,657,l),
(485,677,l),
(13,58,l),
(5,0,l)
);
}
);
width = 515;
},
{
layerId = "94E3E3CE-F120-43CB-86CD-384D4F8954CA";
shapes = (
{
closed = 1;
nodes = (
(456,0,l),
(478,152,l),
(14,152,l),
(74,23,l),
(523,534,l),
(547,700,l),
(92,700,l),
(70,548,l),
(525,548,l),
(465,677,l),
(16,166,l),
(-8,0,l)
);
}
);
width = 525;
}
);
leftKerningGroup = public.kern2.R_Z;
rightKerningGroup = public.kern1.L_Z;
unicode = 90;
},
{
glyphname = Zcaron;
layers = (
{
layerId = "9DC41883-06BB-4704-B6B2-BE0FA655C222";
shapes = (
{
closed = 1;
nodes = (
(437,0,l),
(448,74,l),
(12,74,l),
(48,23,l),
(515,611,l),
(527,700,l),
(101,700,l),
(90,626,l),
(517,626,l),
(480,677,l),
(14,89,l),
(1,0,l)
);
},
{
closed = 1;
nodes = (
(360,775,l),
(281,925,l),
(212,925,l),
(289,775,l)
);
},
{
closed = 1;
nodes = (
(498,925,l),
(428,925,l),
(307,775,l),
(378,775,l)
);
}
);
width = 535;
},
{
layerId = "6DBF946B-D1CC-402F-8126-F74CC4A62DD0";
shapes = (
{
closed = 1;
nodes = (
(429,0,l),
(435,43,l),
(11,43,l),
(38,23,l),
(511,642,l),
(519,700,l),
(105,700,l),
(98,657,l),
(513,657,l),
(485,677,l),
(13,58,l),
(5,0,l)
);
},
{
closed = 1;
nodes = (
(350,791,l),
(275,933,l),
(228,933,l),
(307,791,l)
);
},
{
closed = 1;
nodes = (
(483,933,l),
(437,933,l),
(321,791,l),
(364,791,l)
);
}
);
width = 533;
},
{
layerId = "94E3E3CE-F120-43CB-86CD-384D4F8954CA";
shapes = (
{
closed = 1;
nodes = (
(456,0,l),
(478,152,l),
(14,152,l),
(74,23,l),
(523,534,l),
(547,700,l),
(92,700,l),
(70,548,l),
(525,548,l),
(465,677,l),
(16,166,l),
(-8,0,l)
);
},
{
closed = 1;
nodes = (
(384,735,l),
(299,905,l),
(171,905,l),
(245,735,l)
);
},
{
closed = 1;
nodes = (
(535,905,l),
(407,905,l),
(273,735,l),
(412,735,l)
);
}
);
width = 541;
}
);
unicode = 381;
},
{
export = 0;
glyphname = _corner.sharp;
layers = (
{
layerId = "9DC41883-06BB-4704-B6B2-BE0FA655C222";
shapes = (
{
closed = 0;
nodes = (
(-26,100,l),
(-43,-2,l),
(-42,-3,l),
(58,0,l)
);
}
);
width = 189;
},
{
layerId = "6DBF946B-D1CC-402F-8126-F74CC4A62DD0";
shapes = (
{
closed = 0;
nodes = (
(-26,100,l),
(-41,0,l),
(-40,-1,l),
(58,0,l)
);
}
);
width = 189;
},
{
layerId = "94E3E3CE-F120-43CB-86CD-384D4F8954CA";
shapes = (
{
closed = 0;
nodes = (
(-25,100,l),
(-47,-6,l),
(-46,-7,l),
(58,0,l)
);
}
);
width = 189;
}
);
},
{
export = 0;
glyphname = _corner.sharp.S;
layers = (
{
layerId = "9DC41883-06BB-4704-B6B2-BE0FA655C222";
shapes = (
{
closed = 0;
nodes = (
(-31,60,l),
(-42,-1,l),
(-41,-2,l),
(19,0,l)
);
}
);
width = 186;
},
{
layerId = "6DBF946B-D1CC-402F-8126-F74CC4A62DD0";
shapes = (
{
closed = 0;
nodes = (
(-31,60,l),
(-41,0,l),
(-40,-1,l),
(19,0,l)
);
}
);
width = 186;
},
{
layerId = "94E3E3CE-F120-43CB-86CD-384D4F8954CA";
shapes = (
{
closed = 0;
nodes = (
(-31,60,l),
(-44,-3,l),
(-43,-4,l),
(19,0,l)
);
}
);
width = 186;
}
);
},
{
glyphname = a;
layers = (
{
anchors = (
{
name = bottom;
position = "{225, 0}";
},
{
name = ogonek;
position = "{452, 0}";
},
{
name = top;
position = "{225, 560}";
}
);
layerId = "94E3E3CE-F120-43CB-86CD-384D4F8954CA";
shapes = (
{
closed = 1;
nodes = (
(169,313,ls),
(79,283,o),
(16,225,o),
(4,140,cs),
(-8,54,o),
(39,-12,o),
(136,-12,cs),
(240,-12,o),
(326,67,o),
(342,180,c),
(319,180,l),
(305,119,l),
(288,0,l),
(434,0,l),
(481,330,ls),
(501,472,o),
(452,572,o),
(289,572,cs),
(227,572,o),
(159,558,o),
(90,538,c),
(69,387,l),
(149,413,o),
(207,424,o),
(251,424,cs),
(321,424,o),
(339,396,o),
(329,329,cs),
(310,195,ls),
(302,141,o),
(261,105,o),
(216,105,cs),
(179,105,o),
(156,130,o),
(161,163,cs),
(166,195,o),
(193,215,o),
(230,227,cs),
(344,264,l),
(360,376,l)
);
}
);
width = 505;
},
{
anchors = (
{
name = bottom;
position = "{217, 0}";
},
{
name = ogonek;
position = "{419, 10}";
},
{
name = top;
position = "{217, 560}";
}
);
layerId = "9DC41883-06BB-4704-B6B2-BE0FA655C222";
shapes = (
{
closed = 1;
nodes = (
(168,296,ls),
(79,268,o),
(26,211,o),
(16,138,cs),
(4,54,o),
(53,-12,o),
(151,-12,cs),
(258,-12,o),
(344,67,o),
(360,180,c),
(351,180,l),
(331,119,l),
(314,0,l),
(391,0,l),
(441,350,ls),
(460,482,o),
(409,572,o),
(273,572,cs),
(219,572,o),
(159,558,o),
(99,538,c),
(88,461,l),
(160,489,o),
(208,500,o),
(253,500,cs),
(340,500,o),
(380,459,o),
(364,349,cs),
(342,195,ls),
(330,111,o),
(249,55,o),
(177,55,cs),
(118,55,o),
(86,93,o),
(93,142,cs),
(99,181,o),
(127,215,o),
(183,233,cs),
(380,295,l),
(390,366,l)
);
}
);
width = 487;
},
{
anchors = (
{
name = bottom;
position = "{214, 0}";
},
{
name = ogonek;
position = "{406, 14}";
},
{
name = top;
position = "{214, 560}";
}
);
layerId = "6DBF946B-D1CC-402F-8126-F74CC4A62DD0";
shapes = (
{
closed = 1;
nodes = (
(167,284,ls),
(78,256,o),
(31,205,o),
(21,137,cs),
(9,54,o),
(59,-12,o),
(158,-12,cs),
(266,-12,o),
(351,67,o),
(367,180,c),
(365,180,l),
(341,119,l),
(324,0,l),
(373,0,l),
(425,358,ls),
(443,486,o),
(392,572,o),
(267,572,cs),
(216,572,o),
(160,558,o),
(103,538,c),
(96,491,l),
(165,519,o),
(208,530,o),
(254,530,cs),
(348,530,o),
(396,484,o),
(378,357,cs),
(355,195,ls),
(341,99,o),
(244,35,o),
(161,35,cs),
(94,35,o),
(59,78,o),
(67,134,cs),
(73,175,o),
(102,220,o),
(165,240,cs),
(396,312,l),
(402,357,l)
);
}
);
width = 479;
}
);
leftKerningGroup = public.kern2.R_a;
rightKerningGroup = public.kern1.L_n;
unicode = 97;
},
{
glyphname = abreve;
layers = (
{
layerId = "9DC41883-06BB-4704-B6B2-BE0FA655C222";
shapes = (
{
closed = 1;
nodes = (
(168,296,ls),
(79,268,o),
(26,211,o),
(16,138,cs),
(4,54,o),
(53,-12,o),
(151,-12,cs),
(258,-12,o),
(344,67,o),
(360,180,c),
(351,180,l),
(331,119,l),
(314,0,l),
(391,0,l),
(441,350,ls),
(460,482,o),
(409,572,o),
(273,572,cs),
(219,572,o),
(159,558,o),
(99,538,c),
(88,461,l),
(160,489,o),
(208,500,o),
(253,500,cs),
(340,500,o),
(380,459,o),
(364,349,cs),
(342,195,ls),
(330,111,o),
(249,55,o),
(177,55,cs),
(118,55,o),
(86,93,o),
(93,142,cs),
(99,181,o),
(127,215,o),
(183,233,cs),
(380,295,l),
(390,366,l)
);
},
{
closed = 1;
nodes = (
(381,630,o),
(448,696,o),
(461,785,c),
(173,785,l),
(160,696,o),
(209,630,o),
(295,630,cs)
);
},
{
closed = 1;
nodes = (
(251,690,o),
(224,728,o),
(232,785,c),
(402,785,l),
(394,728,o),
(355,690,o),
(303,690,cs)
);
}
);
width = 513;
},
{
layerId = "6DBF946B-D1CC-402F-8126-F74CC4A62DD0";
shapes = (
{
closed = 1;
nodes = (
(167,284,ls),
(78,256,o),
(31,205,o),
(21,137,cs),
(9,54,o),
(59,-12,o),
(158,-12,cs),
(266,-12,o),
(351,67,o),
(367,180,c),
(365,180,l),
(341,119,l),
(324,0,l),
(373,0,l),
(425,358,ls),
(443,486,o),
(392,572,o),
(267,572,cs),
(216,572,o),
(160,558,o),
(103,538,c),
(96,491,l),
(165,519,o),
(208,530,o),
(254,530,cs),
(348,530,o),
(396,484,o),
(378,357,cs),
(355,195,ls),
(341,99,o),
(244,35,o),
(161,35,cs),
(94,35,o),
(59,78,o),
(67,134,cs),
(73,175,o),
(102,220,o),
(165,240,cs),
(396,312,l),
(402,357,l)
);
},
{
closed = 1;
nodes = (
(372,646,o),
(436,708,o),
(448,793,c),
(181,793,l),
(169,708,o),
(214,646,o),
(293,646,cs)
);
},
{
closed = 1;
nodes = (
(243,690,o),
(212,731,o),
(221,793,c),
(407,793,l),
(398,731,o),
(357,690,o),
(300,690,cs)
);
}
);
width = 506;
},
{
layerId = "94E3E3CE-F120-43CB-86CD-384D4F8954CA";
shapes = (
{
closed = 1;
nodes = (
(169,313,ls),
(79,283,o),
(16,225,o),
(4,140,cs),
(-8,54,o),
(39,-12,o),
(136,-12,cs),
(240,-12,o),
(326,67,o),
(342,180,c),
(319,180,l),
(305,119,l),
(288,0,l),
(434,0,l),
(481,330,ls),
(501,472,o),
(452,572,o),
(289,572,cs),
(227,572,o),
(159,558,o),
(90,538,c),
(69,387,l),
(149,413,o),
(207,424,o),
(251,424,cs),
(321,424,o),
(339,396,o),
(329,329,cs),
(310,195,ls),
(302,141,o),
(261,105,o),
(216,105,cs),
(179,105,o),
(156,130,o),
(161,163,cs),
(166,195,o),
(193,215,o),
(230,227,cs),
(344,264,l),
(360,376,l)
);
},
{
closed = 1;
nodes = (
(402,590,o),
(482,665,o),
(496,765,c),
(153,765,l),
(139,665,o),
(196,590,o),
(299,590,cs)
);
},
{
closed = 1;
nodes = (
(273,690,o),
(252,720,o),
(258,765,c),
(390,765,l),
(384,720,o),
(353,690,o),
(313,690,cs)
);
}
);
width = 530;
}
);
unicode = 259;
},
{
glyphname = acutecomb;
layers = (
{
layerId = "9DC41883-06BB-4704-B6B2-BE0FA655C222";
shapes = (
{
closed = 1;
nodes = (
(424,785,l),
(338,785,l),
(243,635,l),
(319,635,l)
);
}
);
width = 466;
},
{
layerId = "6DBF946B-D1CC-402F-8126-F74CC4A62DD0";
shapes = (
{
closed = 1;
nodes = (
(414,793,l),
(355,793,l),
(260,651,l),
(309,651,l)
);
}
);
width = 464;
},
{
layerId = "94E3E3CE-F120-43CB-86CD-384D4F8954CA";
shapes = (
{
closed = 1;
nodes = (
(449,765,l),
(293,765,l),
(200,595,l),
(347,595,l)
);
}
);
width = 471;
}
);
unicode = 769;
},
{
glyphname = ae;
layers = (
{
layerId = "17E587F8-1658-4EA1-B692-913C09764BD7";
name = "#instance";
shapes = (
{
closed = 1;
nodes = (
(167,279,ls),
(78,251,o),
(31,205,o),
(21,136,cs),
(10,56,o),
(53,-12,o),
(160,-12,cs),
(270,-12,o),
(363,59,o),
(379,168,c),
(373,289,l),
(405,358,l),
(423,486,o),
(392,572,o),
(267,572,cs),
(216,572,o),
(160,558,o),
(103,538,c),
(96,491,l),
(165,519,o),
(208,530,o),
(254,530,cs),
(348,530,o),
(391,484,o),
(373,357,cs),
(349,195,ls),
(335,99,o),
(244,35,o),
(161,35,cs),
(94,35,o),
(59,78,o),
(67,134,cs),
(73,175,o),
(101,215,o),
(164,235,cs),
(389,307,l),
(396,352,l)
);
},
{
closed = 1;
nodes = (
(672,-12,o),
(738,2,o),
(807,35,c),
(815,93,l),
(739,46,o),
(671,32,o),
(615,32,cs),
(462,32,o),
(384,143,o),
(404,282,c),
(403,277,l),
(422,413,o),
(523,526,o),
(662,526,cs),
(794,526,o),
(855,429,o),
(833,277,c),
(854,300,l),
(398,300,l),
(391,259,l),
(873,259,l),
(875,268,o),
(879,282,o),
(882,300,cs),
(903,444,o),
(825,572,o),
(667,572,cs),
(506,572,o),
(385,444,o),
(362,280,cs),
(339,118,o),
(424,-12,o),
(609,-12,cs)
);
}
);
width = 917;
},
{
layerId = "9DC41883-06BB-4704-B6B2-BE0FA655C222";
shapes = (
{
closed = 1;
nodes = (
(168,296,ls),
(78,267,o),
(26,211,o),
(16,138,cs),
(4,54,o),
(54,-12,o),
(162,-12,cs),
(281,-12,o),
(377,67,o),
(393,180,c),
(383,280,l),
(426,350,l),
(445,482,o),
(409,572,o),
(273,572,cs),
(219,572,o),
(159,558,o),
(99,538,c),
(88,461,l),
(160,489,o),
(208,500,o),
(253,500,cs),
(340,500,o),
(374,459,o),
(358,349,cs),
(336,195,ls),
(324,111,o),
(249,55,o),
(177,55,cs),
(118,55,o),
(86,93,o),
(93,142,cs),
(99,181,o),
(127,215,o),
(183,233,cs),
(375,295,l),
(385,366,l)
);
},
{
closed = 1;
nodes = (
(660,-12,o),
(726,2,o),
(794,34,c),
(806,118,l),
(735,76,o),
(670,60,o),
(613,60,cs),
(474,60,o),
(408,156,o),
(424,270,cs),
(427,290,ls),
(443,404,o),
(525,500,o),
(647,500,cs),
(763,500,o),
(812,415,o),
(794,290,c),
(821,316,l),
(425,316,l),
(415,248,l),
(860,248,l),
(864,262,o),
(869,279,o),
(872,300,cs),
(893,445,o),
(816,572,o),
(657,572,cs),
(496,572,o),
(382,445,o),
(358,280,cs),
(334,115,o),
(416,-12,o),
(599,-12,cs)
);
}
);
width = 901;
},
{
layerId = "6DBF946B-D1CC-402F-8126-F74CC4A62DD0";
shapes = (
{
closed = 1;
nodes = (
(167,279,ls),
(78,251,o),
(31,205,o),
(21,136,cs),
(10,56,o),
(53,-12,o),
(160,-12,cs),
(270,-12,o),
(363,59,o),
(379,168,c),
(373,289,l),
(405,358,l),
(423,486,o),
(392,572,o),
(267,572,cs),
(216,572,o),
(160,558,o),
(103,538,c),
(96,491,l),
(165,519,o),
(208,530,o),
(254,530,cs),
(348,530,o),
(391,484,o),
(373,357,cs),
(349,195,ls),
(335,99,o),
(244,35,o),
(161,35,cs),
(94,35,o),
(59,78,o),
(67,134,cs),
(73,175,o),
(101,215,o),
(164,235,cs),
(389,307,l),
(396,352,l)
);
},
{
closed = 1;
nodes = (
(672,-12,o),
(738,2,o),
(807,35,c),
(815,93,l),
(739,46,o),
(671,32,o),
(615,32,cs),
(462,32,o),
(384,143,o),
(404,282,c),
(403,277,l),
(422,413,o),
(523,526,o),
(662,526,cs),
(794,526,o),
(855,429,o),
(833,277,c),
(854,300,l),
(398,300,l),
(391,259,l),
(873,259,l),
(875,268,o),
(879,282,o),
(882,300,cs),
(903,444,o),
(825,572,o),
(667,572,cs),
(506,572,o),
(385,444,o),
(362,280,cs),
(339,118,o),
(424,-12,o),
(609,-12,cs)
);
}
);
width = 917;
},
{
layerId = "94E3E3CE-F120-43CB-86CD-384D4F8954CA";
shapes = (
{
closed = 1;
nodes = (
(169,313,ls),
(79,282,o),
(16,225,o),
(4,143,cs),
(-9,50,o),
(55,-12,o),
(167,-12,cs),
(308,-12,o),
(409,87,o),
(427,210,c),
(407,257,l),
(475,330,l),
(495,472,o),
(452,572,o),
(289,572,cs),
(227,572,o),
(159,558,o),
(90,538,c),
(69,387,l),
(149,413,o),
(207,424,o),
(251,424,cs),
(321,424,o),
(333,396,o),
(323,329,cs),
(304,195,ls),
(296,141,o),
(261,105,o),
(216,105,cs),
(179,105,o),
(156,130,o),
(161,163,cs),
(166,195,o),
(193,214,o),
(230,227,cs),
(338,264,l),
(354,376,l)
);
},
{
closed = 1;
nodes = (
(630,-12,o),
(698,1,o),
(764,32,c),
(785,180,l),
(725,150,o),
(666,130,o),
(606,130,cs),
(500,130,o),
(465,188,o),
(472,240,cs),
(484,323,ls),
(492,381,o),
(531,435,o),
(608,435,cs),
(684,435,o),
(704,381,o),
(696,323,c),
(741,332,l),
(392,332,l),
(376,221,l),
(829,221,l),
(835,246,o),
(842,272,o),
(846,300,cs),
(867,447,o),
(792,572,o),
(631,572,cs),
(470,572,o),
(372,447,o),
(348,280,cs),
(323,107,o),
(394,-12,o),
(573,-12,cs)
);
}
);
width = 861;
}
);
unicode = 230;
},
{
glyphname = amacron;
layers = (
{
layerId = "9DC41883-06BB-4704-B6B2-BE0FA655C222";
shapes = (
{
closed = 1;
nodes = (
(168,296,ls),
(79,268,o),
(26,211,o),
(16,138,cs),
(4,54,o),
(53,-12,o),
(151,-12,cs),
(258,-12,o),
(344,67,o),
(360,180,c),
(351,180,l),
(331,119,l),
(314,0,l),
(391,0,l),
(441,350,ls),
(460,482,o),
(409,572,o),
(273,572,cs),
(219,572,o),
(159,558,o),
(99,538,c),
(88,461,l),
(160,489,o),
(208,500,o),
(253,500,cs),
(340,500,o),
(380,459,o),
(364,349,cs),
(342,195,ls),
(330,111,o),
(249,55,o),
(177,55,cs),
(118,55,o),
(86,93,o),
(93,142,cs),
(99,181,o),
(127,215,o),
(183,233,cs),
(380,295,l),
(390,366,l)
);
},
{
closed = 1;
nodes = (
(448,670,l),
(456,730,l),
(162,730,l),
(154,670,l)
);
}
);
width = 513;
},
{
layerId = "6DBF946B-D1CC-402F-8126-F74CC4A62DD0";
shapes = (
{
closed = 1;
nodes = (
(167,284,ls),
(78,256,o),
(31,205,o),
(21,137,cs),
(9,54,o),
(59,-12,o),
(158,-12,cs),
(266,-12,o),
(351,67,o),
(367,180,c),
(365,180,l),
(341,119,l),
(324,0,l),
(373,0,l),
(425,358,ls),
(443,486,o),
(392,572,o),
(267,572,cs),
(216,572,o),
(160,558,o),
(103,538,c),
(96,491,l),
(165,519,o),
(208,530,o),
(254,530,cs),
(348,530,o),
(396,484,o),
(378,357,cs),
(355,195,ls),
(341,99,o),
(244,35,o),
(161,35,cs),
(94,35,o),
(59,78,o),
(67,134,cs),
(73,175,o),
(102,220,o),
(165,240,cs),
(396,312,l),
(402,357,l)
);
},
{
closed = 1;
nodes = (
(447,688,l),
(453,728,l),
(159,728,l),
(153,688,l)
);
}
);
width = 506;
},
{
layerId = "94E3E3CE-F120-43CB-86CD-384D4F8954CA";
shapes = (
{
closed = 1;
nodes = (
(169,313,ls),
(79,283,o),
(16,225,o),
(4,140,cs),
(-8,54,o),
(39,-12,o),
(136,-12,cs),
(240,-12,o),
(326,67,o),
(342,180,c),
(319,180,l),
(305,119,l),
(288,0,l),
(434,0,l),
(481,330,ls),
(501,472,o),
(452,572,o),
(289,572,cs),
(227,572,o),
(159,558,o),
(90,538,c),
(69,387,l),
(149,413,o),
(207,424,o),
(251,424,cs),
(321,424,o),
(339,396,o),
(329,329,cs),
(310,195,ls),
(302,141,o),
(261,105,o),
(216,105,cs),
(179,105,o),
(156,130,o),
(161,163,cs),
(166,195,o),
(193,215,o),
(230,227,cs),
(344,264,l),
(360,376,l)
);
},
{
closed = 1;
nodes = (
(449,625,l),
(465,735,l),
(171,735,l),
(155,625,l)
);
}
);
width = 530;
}
);
unicode = 257;
},
{
glyphname = ampersand;
layers = (
{
layerId = "9DC41883-06BB-4704-B6B2-BE0FA655C222";
shapes = (
{
closed = 1;
nodes = (
(421,180,l),
(600,430,l),
(517,430,l),
(372,218,l),
(354,199,l),
(303,122,o),
(251,60,o),
(177,60,cs),
(112,60,o),
(71,108,o),
(80,174,cs),
(88,230,o),
(129,272,o),
(196,315,cs),
(245,347,l),
(275,358,l),
(324,391,ls),
(390,436,o),
(441,487,o),
(451,559,cs),
(465,654,o),
(399,710,o),
(316,710,cs),
(227,710,o),
(145,645,o),
(132,551,cs),
(121,475,o),
(160,427,o),
(197,375,cs),
(458,0,l),
(557,0,l),
(260,420,ls),
(228,465,o),
(200,502,o),
(207,552,cs),
(213,597,o),
(247,642,o),
(304,642,cs),
(354,642,o),
(384,606,o),
(377,554,cs),
(370,507,o),
(336,469,o),
(289,437,cs),
(245,406,l),
(229,402,l),
(154,357,ls),
(92,320,o),
(17,260,o),
(4,169,cs),
(-10,70,o),
(55,-10,o),
(165,-10,cs),
(268,-10,o),
(344,61,o),
(407,167,c)
);
}
);
width = 596;
},
{
layerId = "6DBF946B-D1CC-402F-8126-F74CC4A62DD0";
shapes = (
{
closed = 1;
nodes = (
(396,181,l),
(571,434,l),
(523,434,l),
(374,218,l),
(355,191,l),
(302,105,o),
(239,33,o),
(156,33,cs),
(82,33,o),
(34,89,o),
(45,166,cs),
(54,232,o),
(103,282,o),
(183,333,cs),
(222,359,l),
(246,367,l),
(297,401,ls),
(362,445,o),
(416,496,o),
(426,569,cs),
(439,659,o),
(376,710,o),
(303,710,cs),
(223,710,o),
(151,647,o),
(138,559,cs),
(127,485,o),
(165,436,o),
(203,381,cs),
(468,0,l),
(526,0,l),
(246,409,ls),
(206,465,o),
(175,507,o),
(183,564,cs),
(190,614,o),
(227,667,o),
(294,667,cs),
(352,667,o),
(386,625,o),
(378,566,cs),
(370,511,o),
(330,465,o),
(275,427,cs),
(229,396,l),
(212,389,l),
(149,351,ls),
(87,315,o),
(12,252,o),
(0,165,cs),
(-13,71,o),
(47,-10,o),
(151,-10,cs),
(246,-10,o),
(322,60,o),
(385,167,c)
);
}
);
width = 559;
},
{
layerId = "94E3E3CE-F120-43CB-86CD-384D4F8954CA";
shapes = (
{
closed = 1;
nodes = (
(483,177,l),
(674,420,l),
(500,420,l),
(366,218,l),
(355,219,l),
(309,165,o),
(278,127,o),
(229,127,cs),
(187,127,o),
(164,156,o),
(169,194,cs),
(174,226,o),
(194,248,o),
(228,269,cs),
(305,316,l),
(347,336,l),
(391,366,ls),
(460,413,o),
(503,465,o),
(513,534,cs),
(528,641,o),
(457,710,o),
(346,710,cs),
(235,710,o),
(135,640,o),
(119,530,cs),
(108,451,o),
(149,405,o),
(181,359,cs),
(432,0,l),
(634,0,l),
(293,447,ls),
(280,464,o),
(262,490,o),
(267,523,cs),
(272,555,o),
(296,579,o),
(329,579,cs),
(360,579,o),
(379,558,o),
(374,525,cs),
(370,498,o),
(352,480,o),
(326,461,cs),
(285,430,l),
(269,435,l),
(165,371,ls),
(102,332,o),
(31,281,o),
(16,179,cs),
(0,67,o),
(73,-10,o),
(197,-10,cs),
(320,-10,o),
(398,64,o),
(461,167,c)
);
}
);
width = 687;
}
);
unicode = 38;
},
{
glyphname = anticlockwiseOpenCircleArrow;
layers = (
{
layerId = "9DC41883-06BB-4704-B6B2-BE0FA655C222";
shapes = (
{
closed = 1;
nodes = (
(554,-10,o),
(710,129,o),
(736,308,cs),
(762,487,o),
(645,626,o),
(448,626,cs),
(350,626,l),
(135,626,l),
(124,550,l),
(340,550,l),
(438,550,ls),
(596,550,o),
(678,450,o),
(658,308,cs),
(638,166,o),
(526,66,o),
(388,66,cs),
(250,66,o),
(167,166,o),
(187,308,c),
(109,308,l),
(83,129,o),
(200,-10,o),
(377,-10,cs)
);
},
{
closed = 1;
nodes = (
(356,370,l),
(266,474,l),
(146,608,l),
(140,568,l),
(299,702,l),
(418,806,l),
(313,806,l),
(80,588,l),
(251,370,l)
);
}
);
width = 768;
},
{
layerId = "6DBF946B-D1CC-402F-8126-F74CC4A62DD0";
shapes = (
{
closed = 1;
nodes = (
(588,-10,o),
(724,127,o),
(724,303,cs),
(724,479,o),
(588,616,o),
(390,616,cs),
(262,616,l),
(42,618,l),
(42,572,l),
(262,574,l),
(390,574,ls),
(568,574,o),
(678,462,o),
(678,303,cs),
(678,144,o),
(568,32,o),
(410,32,cs),
(252,32,o),
(142,144,o),
(142,303,c),
(96,303,l),
(96,127,o),
(232,-10,o),
(410,-10,cs)
);
},
{
closed = 1;
nodes = (
(286,378,l),
(175,488,l),
(54,603,l),
(54,587,l),
(175,703,l),
(286,812,l),
(216,812,l),
(4,595,l),
(216,378,l)
);
}
);
width = 812;
},
{
layerId = "94E3E3CE-F120-43CB-86CD-384D4F8954CA";
shapes = (
{
closed = 1;
nodes = (
(529,-10,o),
(675,134,o),
(675,320,cs),
(675,506,o),
(529,650,o),
(320,650,cs),
(290,650,l),
(70,645,l),
(70,495,l),
(290,490,l),
(320,490,ls),
(439,490,o),
(510,419,o),
(510,320,cs),
(510,221,o),
(439,150,o),
(340,150,cs),
(241,150,o),
(170,221,o),
(170,320,c),
(5,320,l),
(5,134,o),
(151,-10,o),
(340,-10,cs)
);
},
{
closed = 1;
nodes = (
(380,350,l),
(283,440,l),
(90,620,l),
(90,520,l),
(283,700,l),
(380,790,l),
(181,790,l),
(-10,570,l),
(181,350,l)
);
}
);
width = 735;
}
);
unicode = 8634;
},
{
glyphname = aogonek;
layers = (
{
layerId = "9DC41883-06BB-4704-B6B2-BE0FA655C222";
shapes = (
{
closed = 1;
nodes = (
(168,296,ls),
(79,268,o),
(26,211,o),
(16,138,cs),
(4,54,o),
(53,-12,o),
(151,-12,cs),
(258,-12,o),
(344,67,o),
(360,180,c),
(351,180,l),
(331,119,l),
(314,0,l),
(391,0,l),
(441,350,ls),
(460,482,o),
(409,572,o),
(273,572,cs),
(219,572,o),
(159,558,o),
(99,538,c),
(88,461,l),
(160,489,o),
(208,500,o),
(253,500,cs),
(340,500,o),
(380,459,o),
(364,349,cs),
(342,195,ls),
(330,111,o),
(249,55,o),
(177,55,cs),
(118,55,o),
(86,93,o),
(93,142,cs),
(99,181,o),
(127,215,o),
(183,233,cs),
(380,295,l),
(390,366,l)
);
},
{
closed = 1;
nodes = (
(364,28,l),
(322,12,o),
(265,-20,o),
(256,-85,cs),
(246,-156,o),
(303,-180,o),
(361,-180,cs),
(395,-180,l),
(404,-116,l),
(379,-116,ls),
(349,-116,o),
(318,-105,o),
(323,-67,cs),
(328,-31,o),
(359,-8,o),
(407,10,c)
);
}
);
width = 513;
},
{
layerId = "6DBF946B-D1CC-402F-8126-F74CC4A62DD0";
shapes = (
{
closed = 1;
nodes = (
(167,284,ls),
(78,256,o),
(31,205,o),
(21,137,cs),
(9,54,o),
(59,-12,o),
(158,-12,cs),
(266,-12,o),
(351,67,o),
(367,180,c),
(365,180,l),
(341,119,l),
(324,0,l),
(373,0,l),
(425,358,ls),
(443,486,o),
(392,572,o),
(267,572,cs),
(216,572,o),
(160,558,o),
(103,538,c),
(96,491,l),
(165,519,o),
(208,530,o),
(254,530,cs),
(348,530,o),
(396,484,o),
(378,357,cs),
(355,195,ls),
(341,99,o),
(244,35,o),
(161,35,cs),
(94,35,o),
(59,78,o),
(67,134,cs),
(73,175,o),
(102,220,o),
(165,240,cs),
(396,312,l),
(402,357,l)
);
},
{
closed = 1;
nodes = (
(365,21,l),
(330,10,o),
(277,-18,o),
(269,-77,cs),
(260,-139,o),
(306,-164,o),
(359,-164,cs),
(379,-164,l),
(385,-120,l),
(365,-120,ls),
(338,-120,o),
(302,-109,o),
(308,-67,cs),
(314,-28,o),
(345,-6,o),
(393,14,c)
);
}
);
width = 506;
},
{
layerId = "94E3E3CE-F120-43CB-86CD-384D4F8954CA";
shapes = (
{
closed = 1;
nodes = (
(169,313,ls),
(79,283,o),
(16,225,o),
(4,140,cs),
(-8,54,o),
(39,-12,o),
(136,-12,cs),
(240,-12,o),
(326,67,o),
(342,180,c),
(319,180,l),
(305,119,l),
(288,0,l),
(434,0,l),
(481,330,ls),
(501,472,o),
(452,572,o),
(289,572,cs),
(227,572,o),
(159,558,o),
(90,538,c),
(69,387,l),
(149,413,o),
(207,424,o),
(251,424,cs),
(321,424,o),
(339,396,o),
(329,329,cs),
(310,195,ls),
(302,141,o),
(261,105,o),
(216,105,cs),
(179,105,o),
(156,130,o),
(161,163,cs),
(166,195,o),
(193,215,o),
(230,227,cs),
(344,264,l),
(360,376,l)
);
},
{
closed = 1;
nodes = (
(363,45,l),
(300,16,o),
(236,-26,o),
(225,-104,cs),
(211,-199,o),
(296,-220,o),
(367,-220,cs),
(438,-220,l),
(454,-106,l),
(415,-106,ls),
(377,-106,o),
(358,-94,o),
(362,-68,cs),
(366,-39,o),
(396,-12,o),
(444,0,c)
);
}
);
width = 530;
}
);
unicode = 261;
},
{
glyphname = approxequal;
layers = (
{
layerId = "9DC41883-06BB-4704-B6B2-BE0FA655C222";
shapes = (
{
closed = 1;
nodes = (
(49,368,l),
(99,398,o),
(138,414,o),
(180,414,cs),
(261,414,o),
(289,353,o),
(383,353,cs),
(429,353,o),
(474,368,o),
(524,397,c),
(534,472,l),
(484,442,o),
(445,426,o),
(403,426,cs),
(322,426,o),
(294,487,o),
(200,487,cs),
(154,487,o),
(110,472,o),
(60,443,c)
);
},
{
closed = 1;
nodes = (
(20,168,l),
(70,198,o),
(109,214,o),
(151,214,cs),
(232,214,o),
(260,153,o),
(354,153,cs),
(400,153,o),
(445,168,o),
(495,197,c),
(506,272,l),
(456,242,o),
(417,226,o),
(375,226,cs),
(294,226,o),
(266,287,o),
(172,287,cs),
(126,287,o),
(81,272,o),
(31,243,c)
);
}
);
width = 543;
},
{
layerId = "6DBF946B-D1CC-402F-8126-F74CC4A62DD0";
shapes = (
{
closed = 1;
nodes = (
(53,374,l),
(101,404,o),
(140,422,o),
(183,422,cs),
(262,422,o),
(291,357,o),
(382,357,cs),
(428,357,o),
(471,374,o),
(520,403,c),
(527,450,l),
(479,420,o),
(441,402,o),
(398,402,cs),
(319,402,o),
(289,467,o),
(198,467,cs),
(152,467,o),
(109,450,o),
(60,421,c)
);
},
{
closed = 1;
nodes = (
(27,190,l),
(75,220,o),
(114,238,o),
(157,238,cs),
(236,238,o),
(265,173,o),
(356,173,cs),
(402,173,o),
(445,190,o),
(494,219,c),
(501,266,l),
(453,236,o),
(414,218,o),
(371,218,cs),
(292,218,o),
(263,283,o),
(172,283,cs),
(126,283,o),
(83,266,o),
(34,237,c)
);
}
);
width = 542;
},
{
layerId = "94E3E3CE-F120-43CB-86CD-384D4F8954CA";
shapes = (
{
closed = 1;
nodes = (
(38,353,l),
(92,383,o),
(133,394,o),
(172,394,cs),
(259,394,o),
(283,343,o),
(385,343,cs),
(431,343,o),
(479,353,o),
(532,382,c),
(553,527,l),
(499,497,o),
(457,486,o),
(418,486,cs),
(331,486,o),
(307,537,o),
(205,537,cs),
(159,537,o),
(111,527,o),
(58,498,c)
);
},
{
closed = 1;
nodes = (
(3,113,l),
(57,143,o),
(99,154,o),
(138,154,cs),
(225,154,o),
(249,103,o),
(351,103,cs),
(397,103,o),
(445,113,o),
(498,142,c),
(518,287,l),
(464,257,o),
(423,246,o),
(384,246,cs),
(297,246,o),
(273,297,o),
(171,297,cs),
(125,297,o),
(77,287,o),
(24,258,c)
);
}
);
width = 544;
}
);
unicode = 8776;
},
{
glyphname = asciicircum;
layers = (
{
layerId = "9DC41883-06BB-4704-B6B2-BE0FA655C222";
shapes = (
{
closed = 1;
nodes = (
(47,420,l),
(133,420,l),
(332,750,l),
(257,750,l)
);
},
{
closed = 1;
nodes = (
(281,750,l),
(385,420,l),
(471,420,l),
(355,750,l)
);
}
);
width = 477;
},
{
layerId = "6DBF946B-D1CC-402F-8126-F74CC4A62DD0";
shapes = (
{
closed = 1;
nodes = (
(50,412,l),
(100,412,l),
(303,742,l),
(258,742,l)
);
},
{
closed = 1;
nodes = (
(275,742,l),
(384,412,l),
(434,412,l),
(320,742,l)
);
}
);
width = 446;
},
{
layerId = "94E3E3CE-F120-43CB-86CD-384D4F8954CA";
shapes = (
{
closed = 1;
nodes = (
(41,440,l),
(215,440,l),
(404,770,l),
(256,770,l)
);
},
{
closed = 1;
nodes = (
(294,770,l),
(389,440,l),
(562,440,l),
(442,770,l)
);
}
);
width = 557;
}
);
unicode = 94;
},
{
glyphname = asciitilde;
layers = (
{
layerId = "9DC41883-06BB-4704-B6B2-BE0FA655C222";
shapes = (
{
closed = 1;
nodes = (
(502,251,o),
(568,296,o),
(582,392,c),
(584,412,l),
(516,413,l),
(514,396,ls),
(508,354,o),
(483,324,o),
(442,324,cs),
(421,324,o),
(404,332,o),
(383,343,cs),
(285,395,ls),
(249,414,o),
(222,428,o),
(185,428,cs),
(117,428,o),
(51,383,o),
(37,287,c),
(35,267,l),
(103,266,l),
(105,283,ls),
(111,325,o),
(136,355,o),
(177,355,cs),
(198,355,o),
(215,347,o),
(236,336,cs),
(334,284,ls),
(370,265,o),
(397,251,o),
(434,251,cs)
);
}
);
width = 602;
},
{
layerId = "6DBF946B-D1CC-402F-8126-F74CC4A62DD0";
shapes = (
{
closed = 1;
nodes = (
(501,259,o),
(564,297,o),
(576,380,cs),
(579,400,l),
(546,401,l),
(544,384,ls),
(537,334,o),
(506,297,o),
(456,297,cs),
(432,297,o),
(413,306,o),
(390,319,cs),
(280,382,ls),
(243,404,o),
(214,420,o),
(176,420,cs),
(118,420,o),
(55,382,o),
(43,299,cs),
(40,279,l),
(72,278,l),
(75,295,l),
(82,345,o),
(112,381,o),
(162,381,cs),
(186,381,o),
(206,372,o),
(229,360,c),
(338,297,ls),
(375,275,o),
(405,259,o),
(443,259,cs)
);
}
);
width = 601;
},
{
layerId = "94E3E3CE-F120-43CB-86CD-384D4F8954CA";
shapes = (
{
closed = 1;
nodes = (
(505,232,o),
(579,294,o),
(597,423,c),
(599,443,l),
(441,443,l),
(438,426,l),
(435,404,o),
(426,391,o),
(406,391,cs),
(394,391,o),
(382,396,o),
(364,403,cs),
(298,428,ls),
(265,440,o),
(242,448,o),
(209,448,cs),
(115,448,o),
(42,386,o),
(24,257,cs),
(21,237,l),
(180,237,l),
(182,254,ls),
(185,276,o),
(195,289,o),
(215,289,cs),
(227,289,o),
(238,284,o),
(256,277,cs),
(322,252,ls),
(355,240,o),
(378,232,o),
(411,232,cs)
);
}
);
width = 603;
}
);
unicode = 126;
},
{
glyphname = asterisk;
layers = (
{
layerId = "9DC41883-06BB-4704-B6B2-BE0FA655C222";
shapes = (
{
closed = 1;
nodes = (
(251,690,l),
(242,570,l),
(217,450,l),
(199,370,l),
(274,370,l),
(279,450,l),
(289,570,l),
(314,690,l),
(331,770,l),
(256,770,l)
);
},
{
closed = 1;
nodes = (
(364,658,l),
(256,591,l),
(143,538,l),
(66,503,l),
(94,437,l),
(166,482,l),
(274,549,l),
(387,602,l),
(463,637,l),
(435,703,l)
);
},
{
closed = 1;
nodes = (
(152,602,l),
(250,549,l),
(339,482,l),
(398,437,l),
(445,503,l),
(378,538,l),
(280,591,l),
(191,658,l),
(133,703,l),
(87,637,l)
);
}
);
width = 447;
},
{
layerId = "6DBF946B-D1CC-402F-8126-F74CC4A62DD0";
shapes = (
{
closed = 1;
nodes = (
(250,690,l),
(237,586,l),
(221,482,l),
(204,402,l),
(249,402,l),
(256,482,l),
(269,586,l),
(286,690,l),
(302,770,l),
(257,770,l)
);
},
{
closed = 1;
nodes = (
(342,654,l),
(246,600,l),
(150,550,l),
(75,514,l),
(92,474,l),
(163,519,l),
(258,572,l),
(355,623,l),
(430,658,l),
(413,698,l)
);
},
{
closed = 1;
nodes = (
(161,622,l),
(244,572,l),
(324,518,l),
(382,474,l),
(410,514,l),
(346,549,l),
(264,600,l),
(183,653,l),
(125,698,l),
(97,658,l)
);
}
);
width = 418;
},
{
layerId = "94E3E3CE-F120-43CB-86CD-384D4F8954CA";
shapes = (
{
closed = 1;
nodes = (
(253,690,l),
(252,530,l),
(207,370,l),
(186,290,l),
(335,290,l),
(337,370,l),
(338,530,l),
(383,690,l),
(404,770,l),
(255,770,l)
);
},
{
closed = 1;
nodes = (
(418,667,l),
(279,568,l),
(123,507,l),
(46,476,l),
(102,344,l),
(172,393,l),
(311,492,l),
(467,553,l),
(544,584,l),
(488,716,l)
);
},
{
closed = 1;
nodes = (
(130,553,l),
(268,492,l),
(379,393,l),
(435,344,l),
(528,476,l),
(460,507,l),
(322,568,l),
(211,667,l),
(155,716,l),
(62,584,l)
);
}
);
width = 518;
}
);
unicode = 42;
},
{
export = 0;
glyphname = asterisk.part;
layers = (
{
layerId = "9DC41883-06BB-4704-B6B2-BE0FA655C222";
shapes = (
{
closed = 1;
nodes = (
(303,690,l),
(294,570,l),
(269,450,l),
(251,370,l),
(326,370,l),
(331,450,l),
(341,570,l),
(366,690,l),
(383,770,l),
(308,770,l)
);
}
);
width = 551;
},
{
layerId = "6DBF946B-D1CC-402F-8126-F74CC4A62DD0";
shapes = (
{
closed = 1;
nodes = (
(316,690,l),
(303,586,l),
(286,482,l),
(269,402,l),
(315,402,l),
(321,482,l),
(334,586,l),
(351,690,l),
(367,770,l),
(322,770,l)
);
}
);
width = 549;
},
{
layerId = "94E3E3CE-F120-43CB-86CD-384D4F8954CA";
shapes = (
{
closed = 1;
nodes = (
(272,690,l),
(271,530,l),
(226,370,l),
(205,290,l),
(354,290,l),
(356,370,l),
(357,530,l),
(402,690,l),
(423,770,l),
(274,770,l)
);
}
);
width = 556;
}
);
},
{
glyphname = at;
layers = (
{
layerId = "9DC41883-06BB-4704-B6B2-BE0FA655C222";
shapes = (
{
closed = 1;
nodes = (
(324,96,o),
(278,158,o),
(291,251,cs),
(304,345,o),
(374,444,o),
(473,444,cs),
(545,444,o),
(598,394,o),
(584,295,cs),
(572,209,o),
(508,96,o),
(402,96,cs)
);
},
{
closed = 1;
nodes = (
(567,35,ls),
(737,35,o),
(854,174,o),
(877,333,cs),
(908,553,o),
(751,710,o),
(533,710,cs),
(277,710,o),
(65,504,o),
(28,247,cs),
(-7,5,o),
(144,-167,o),
(382,-167,cs),
(456,-167,o),
(546,-152,o),
(626,-115,c),
(637,-40,l),
(557,-79,o),
(469,-97,o),
(395,-97,cs),
(191,-97,o),
(69,42,o),
(99,250,cs),
(130,466,o),
(312,642,o),
(524,642,cs),
(703,642,o),
(833,515,o),
(807,333,cs),
(791,218,o),
(711,97,o),
(589,97,cs),
(550,97,l),
(586,60,l),
(726,500,l),
(654,500,l),
(604,340,l),
(616,340,l),
(629,429,o),
(580,515,o),
(472,515,cs),
(330,515,o),
(234,372,o),
(216,249,cs),
(197,113,o),
(272,25,o),
(372,25,cs),
(460,25,o),
(538,91,o),
(558,165,c),
(551,164,l),
(511,35,l)
);
}
);
width = 902;
},
{
layerId = "6DBF946B-D1CC-402F-8126-F74CC4A62DD0";
shapes = (
{
closed = 1;
nodes = (
(300,76,o),
(250,149,o),
(265,253,cs),
(280,359,o),
(356,477,o),
(471,477,cs),
(549,477,o),
(616,424,o),
(599,307,cs),
(585,209,o),
(511,76,o),
(390,76,cs)
);
},
{
closed = 1;
nodes = (
(572,45,ls),
(731,45,o),
(845,185,o),
(867,340,cs),
(898,559,o),
(739,712,o),
(528,712,cs),
(277,712,o),
(69,508,o),
(33,254,cs),
(-1,13,o),
(149,-157,o),
(376,-157,cs),
(441,-157,o),
(525,-145,o),
(598,-114,c),
(608,-48,l),
(535,-81,o),
(455,-96,o),
(387,-96,cs),
(186,-96,o),
(64,44,o),
(94,257,cs),
(125,476,o),
(308,654,o),
(520,654,cs),
(702,654,o),
(833,524,o),
(807,343,cs),
(791,228,o),
(706,95,o),
(580,95,cs),
(542,95,l),
(571,64,l),
(710,504,l),
(670,504,l),
(621,348,l),
(631,348,l),
(635,429,o),
(587,521,o),
(479,521,cs),
(337,521,o),
(241,371,o),
(225,256,cs),
(206,124,o),
(282,31,o),
(382,31,cs),
(472,31,o),
(552,103,o),
(572,173,c),
(570,172,l),
(531,45,l)
);
}
);
width = 895;
},
{
layerId = "94E3E3CE-F120-43CB-86CD-384D4F8954CA";
shapes = (
{
closed = 1;
nodes = (
(383,146,o),
(349,180,o),
(358,245,cs),
(367,311,o),
(415,361,o),
(476,361,cs),
(531,361,o),
(555,319,o),
(547,265,cs),
(539,210,o),
(501,146,o),
(432,146,cs)
);
},
{
closed = 1;
nodes = (
(554,10,ls),
(752,10,o),
(879,146,o),
(903,316,cs),
(935,539,o),
(781,705,o),
(545,705,cs),
(276,705,o),
(53,494,o),
(15,229,cs),
(-20,-16,o),
(133,-192,o),
(400,-192,cs),
(497,-192,o),
(599,-169,o),
(694,-117,c),
(708,-20,l),
(612,-74,o),
(507,-100,o),
(416,-100,cs),
(204,-100,o),
(84,37,o),
(112,232,cs),
(142,442,o),
(321,613,o),
(532,613,cs),
(704,613,o),
(832,493,o),
(806,309,cs),
(789,193,o),
(719,102,o),
(610,102,cs),
(569,102,l),
(625,50,l),
(764,490,l),
(614,490,l),
(561,320,l),
(577,320,l),
(612,429,o),
(563,500,o),
(457,500,cs),
(314,500,o),
(214,374,o),
(194,231,cs),
(173,86,o),
(246,10,o),
(346,10,cs),
(429,10,o),
(503,61,o),
(524,144,c),
(505,144,l),
(461,10,l)
);
}
);
width = 920;
}
);
unicode = 64;
},
{
glyphname = b;
layers = (
{
anchors = (
{
name = bottom;
position = "{281, 0}";
},
{
name = center;
position = "{281, 280}";
},
{
name = top;
position = "{281, 560}";
}
);
layerId = "94E3E3CE-F120-43CB-86CD-384D4F8954CA";
shapes = (
{
closed = 1;
nodes = (
(136,280,l),
(109,89,o),
(182,-12,o),
(312,-12,cs),
(447,-12,o),
(568,99,o),
(594,280,cs),
(620,461,o),
(530,572,o),
(395,572,cs),
(266,572,o),
(172,471,o),
(145,280,c)
);
},
{
closed = 1;
nodes = (
(189,360,o),
(248,427,o),
(330,427,cs),
(412,427,o),
(452,360,o),
(441,280,cs),
(430,200,o),
(370,133,o),
(288,133,cs),
(206,133,o),
(167,200,o),
(178,280,cs)
);
},
{
closed = 1;
nodes = (
(-8,0,l),
(138,0,l),
(161,160,l),
(164,280,l),
(197,377,l),
(251,750,l),
(99,750,l)
);
}
);
width = 612;
},
{
anchors = (
{
name = bottom;
position = "{298, 0}";
},
{
name = center;
position = "{298, 280}";
},
{
name = top;
position = "{298, 560}";
}
);
layerId = "9DC41883-06BB-4704-B6B2-BE0FA655C222";
shapes = (
{
closed = 1;
nodes = (
(98,280,l),
(71,89,o),
(167,-12,o),
(303,-12,cs),
(450,-12,o),
(585,107,o),
(610,280,cs),
(635,453,o),
(533,572,o),
(386,572,cs),
(250,572,o),
(134,471,o),
(107,280,c)
);
},
{
closed = 1;
nodes = (
(153,401,o),
(242,500,o),
(369,500,cs),
(494,500,o),
(550,401,o),
(533,280,cs),
(516,159,o),
(431,60,o),
(306,60,cs),
(179,60,o),
(119,159,o),
(136,280,cs)
);
},
{
closed = 1;
nodes = (
(19,0,l),
(96,0,l),
(119,160,l),
(117,280,l),
(150,377,l),
(203,750,l),
(126,750,l)
);
}
);
width = 642;
},
{
anchors = (
{
name = bottom;
position = "{305, 0}";
},
{
name = center;
position = "{305, 280}";
},
{
name = top;
position = "{305, 560}";
}
);
layerId = "6DBF946B-D1CC-402F-8126-F74CC4A62DD0";
shapes = (
{
closed = 1;
nodes = (
(83,280,l),
(56,89,o),
(160,-12,o),
(299,-12,cs),
(451,-12,o),
(592,110,o),
(616,280,cs),
(640,450,o),
(535,572,o),
(383,572,cs),
(244,572,o),
(119,471,o),
(92,280,c)
);
},
{
closed = 1;
nodes = (
(139,417,o),
(240,529,o),
(384,529,cs),
(526,529,o),
(590,417,o),
(570,280,cs),
(550,143,o),
(455,31,o),
(313,31,cs),
(169,31,o),
(99,143,o),
(119,280,cs)
);
},
{
closed = 1;
nodes = (
(30,0,l),
(79,0,l),
(102,160,l),
(98,280,l),
(131,377,l),
(184,750,l),
(137,750,l)
);
}
);
width = 655;
}
);
leftKerningGroup = public.kern2.R_l;
rightKerningGroup = public.kern1.L_o;
unicode = 98;
},
{
glyphname = backslash;
layers = (
{
layerId = "9DC41883-06BB-4704-B6B2-BE0FA655C222";
shapes = (
{
closed = 1;
nodes = (
(388,-80,l),
(167,750,l),
(85,750,l),
(307,-80,l)
);
}
);
width = 457;
},
{
layerId = "6DBF946B-D1CC-402F-8126-F74CC4A62DD0";
shapes = (
{
closed = 1;
nodes = (
(359,-80,l),
(138,750,l),
(91,750,l),
(312,-80,l)
);
}
);
width = 434;
},
{
layerId = "94E3E3CE-F120-43CB-86CD-384D4F8954CA";
shapes = (
{
closed = 1;
nodes = (
(460,-80,l),
(238,750,l),
(72,750,l),
(293,-80,l)
);
}
);
width = 515;
}
);
leftKerningGroup = public.kern2.R_backslash;
rightKerningGroup = public.kern1.L_backslash;
unicode = 92;
},
{
glyphname = bar;
layers = (
{
layerId = "9DC41883-06BB-4704-B6B2-BE0FA655C222";
shapes = (
{
closed = 1;
nodes = (
(-8,-160,l),
(62,-160,l),
(192,750,l),
(122,750,l)
);
}
);
width = 179;
},
{
layerId = "6DBF946B-D1CC-402F-8126-F74CC4A62DD0";
shapes = (
{
closed = 1;
nodes = (
(-5,-160,l),
(35,-160,l),
(165,750,l),
(125,750,l)
);
}
);
width = 155;
},
{
layerId = "94E3E3CE-F120-43CB-86CD-384D4F8954CA";
shapes = (
{
closed = 1;
nodes = (
(-17,-160,l),
(132,-160,l),
(262,750,l),
(113,750,l)
);
}
);
width = 239;
}
);
unicode = 124;
},
{
glyphname = blackCircle;
layers = (
{
layerId = "9DC41883-06BB-4704-B6B2-BE0FA655C222";
shapes = (
{
closed = 1;
nodes = (
(592,-10,o),
(750,148,o),
(750,350,cs),
(750,552,o),
(592,710,o),
(390,710,cs),
(188,710,o),
(30,552,o),
(30,350,cs),
(30,148,o),
(188,-10,o),
(390,-10,cs)
);
}
);
width = 780;
},
{
layerId = "6DBF946B-D1CC-402F-8126-F74CC4A62DD0";
shapes = (
{
closed = 1;
nodes = (
(592,-10,o),
(750,148,o),
(750,350,cs),
(750,552,o),
(592,710,o),
(390,710,cs),
(188,710,o),
(30,552,o),
(30,350,cs),
(30,148,o),
(188,-10,o),
(390,-10,cs)
);
}
);
width = 780;
},
{
layerId = "94E3E3CE-F120-43CB-86CD-384D4F8954CA";
shapes = (
{
closed = 1;
nodes = (
(577,-10,o),
(754,148,o),
(783,350,cs),
(812,552,o),
(680,710,o),
(482,710,cs),
(284,710,o),
(106,552,o),
(77,350,cs),
(48,148,o),
(181,-10,o),
(379,-10,cs)
);
}
);
width = 760;
}
);
unicode = 9679;
},
{
glyphname = blackDiamond;
layers = (
{
layerId = "9DC41883-06BB-4704-B6B2-BE0FA655C222";
shapes = (
{
closed = 1;
nodes = (
(15,350,l),
(380,-15,l),
(745,350,l),
(380,715,l)
);
}
);
width = 760;
},
{
layerId = "6DBF946B-D1CC-402F-8126-F74CC4A62DD0";
shapes = (
{
closed = 1;
nodes = (
(15,350,l),
(380,-15,l),
(745,350,l),
(380,715,l)
);
}
);
width = 760;
},
{
layerId = "94E3E3CE-F120-43CB-86CD-384D4F8954CA";
shapes = (
{
closed = 1;
nodes = (
(15,350,l),
(380,-15,l),
(745,350,l),
(380,715,l)
);
}
);
width = 760;
}
);
unicode = 9670;
},
{
glyphname = blackMediumDiamond;
layers = (
{
layerId = "9DC41883-06BB-4704-B6B2-BE0FA655C222";
shapes = (
{
closed = 1;
nodes = (
(10,280,l),
(305,-15,l),
(600,280,l),
(305,575,l)
);
}
);
width = 610;
},
{
layerId = "6DBF946B-D1CC-402F-8126-F74CC4A62DD0";
shapes = (
{
closed = 1;
nodes = (
(10,280,l),
(305,-15,l),
(600,280,l),
(305,575,l)
);
}
);
width = 610;
},
{
layerId = "94E3E3CE-F120-43CB-86CD-384D4F8954CA";
shapes = (
{
closed = 1;
nodes = (
(10,280,l),
(305,-15,l),
(600,280,l),
(305,575,l)
);
}
);
width = 610;
}
);
unicode = 11045;
},
{
glyphname = blackSmallSquare;
layers = (
{
layerId = "9DC41883-06BB-4704-B6B2-BE0FA655C222";
shapes = (
{
closed = 1;
nodes = (
(30,0,l),
(590,0,l),
(590,560,l),
(30,560,l)
);
}
);
width = 620;
},
{
layerId = "6DBF946B-D1CC-402F-8126-F74CC4A62DD0";
shapes = (
{
closed = 1;
nodes = (
(30,0,l),
(590,0,l),
(590,560,l),
(30,560,l)
);
}
);
width = 620;
},
{
layerId = "94E3E3CE-F120-43CB-86CD-384D4F8954CA";
shapes = (
{
closed = 1;
nodes = (
(30,0,l),
(590,0,l),
(590,560,l),
(30,560,l)
);
}
);
width = 620;
}
);
unicode = 9642;
},
{
glyphname = blackSquare;
layers = (
{
layerId = "9DC41883-06BB-4704-B6B2-BE0FA655C222";
shapes = (
{
closed = 1;
nodes = (
(40,0,l),
(740,0,l),
(740,700,l),
(40,700,l)
);
}
);
width = 780;
},
{
layerId = "6DBF946B-D1CC-402F-8126-F74CC4A62DD0";
shapes = (
{
closed = 1;
nodes = (
(40,0,l),
(740,0,l),
(740,700,l),
(40,700,l)
);
}
);
width = 780;
},
{
layerId = "94E3E3CE-F120-43CB-86CD-384D4F8954CA";
shapes = (
{
closed = 1;
nodes = (
(40,0,l),
(740,0,l),
(740,700,l),
(40,700,l)
);
}
);
width = 780;
}
);
unicode = 9632;
},
{
glyphname = braceleft;
layers = (
{
layerId = "9DC41883-06BB-4704-B6B2-BE0FA655C222";
shapes = (
{
closed = 1;
nodes = (
(15,261,l),
(70,261,o),
(102,236,o),
(90,175,cs),
(55,-7,ls),
(37,-99,o),
(83,-164,o),
(174,-164,cs),
(191,-164,o),
(209,-162,o),
(233,-157,c),
(243,-87,l),
(224,-91,o),
(204,-94,o),
(187,-94,cs),
(142,-94,o),
(119,-70,o),
(130,-13,cs),
(166,167,ls),
(183,250,o),
(143,299,o),
(64,299,c),
(63,291,l),
(142,291,o),
(195,340,o),
(202,423,cs),
(218,603,ls),
(223,660,o),
(253,684,o),
(298,684,cs),
(315,684,o),
(334,681,o),
(352,677,c),
(362,747,l),
(339,752,o),
(322,754,o),
(305,754,cs),
(214,754,o),
(149,689,o),
(141,597,cs),
(125,415,ls),
(119,354,o),
(80,329,o),
(25,329,c)
);
}
);
width = 313;
},
{
layerId = "6DBF946B-D1CC-402F-8126-F74CC4A62DD0";
shapes = (
{
closed = 1;
nodes = (
(21,273,l),
(64,273,o),
(108,252,o),
(98,195,c),
(55,-27,l),
(41,-107,o),
(84,-164,o),
(164,-164,cs),
(177,-164,o),
(188,-163,o),
(207,-159,c),
(214,-113,l),
(195,-117,o),
(175,-120,o),
(158,-120,cs),
(113,-120,o),
(91,-96,o),
(101,-39,c),
(142,173,ls),
(157,248,o),
(117,299,o),
(40,299,c),
(39,291,l),
(116,291,o),
(170,342,o),
(177,417,cs),
(196,629,l),
(202,686,o),
(231,710,o),
(276,710,cs),
(293,710,o),
(312,707,o),
(330,703,c),
(337,749,l),
(319,753,o),
(308,754,o),
(295,754,cs),
(215,754,o),
(155,697,o),
(147,617,c),
(126,395,l),
(120,338,o),
(70,317,o),
(27,317,c)
);
}
);
width = 289;
},
{
layerId = "94E3E3CE-F120-43CB-86CD-384D4F8954CA";
shapes = (
{
closed = 1;
nodes = (
(2,231,l),
(86,231,o),
(88,196,o),
(72,125,cs),
(54,43,ls),
(27,-78,o),
(81,-164,o),
(199,-164,cs),
(224,-164,o),
(260,-160,o),
(297,-151,c),
(316,-22,l),
(297,-26,o),
(277,-29,o),
(260,-29,cs),
(215,-29,o),
(190,-5,o),
(203,52,cs),
(225,152,ls),
(248,255,o),
(207,299,o),
(124,299,c),
(122,291,l),
(205,291,o),
(259,335,o),
(266,438,cs),
(272,538,ls),
(275,595,o),
(308,619,o),
(353,619,cs),
(370,619,o),
(388,616,o),
(406,612,c),
(425,741,l),
(391,750,o),
(356,754,o),
(331,754,cs),
(213,754,o),
(133,668,o),
(126,547,cs),
(121,465,ls),
(117,394,o),
(104,359,o),
(20,359,c)
);
}
);
width = 372;
}
);
leftKerningGroup = public.kern2.R_braceleft;
rightKerningGroup = public.kern1.L_braceleft;
unicode = 123;
},
{
glyphname = braceright;
layers = (
{
layerId = "9DC41883-06BB-4704-B6B2-BE0FA655C222";
shapes = (
{
closed = 1;
nodes = (
(303,329,l),
(248,329,o),
(216,354,o),
(228,415,cs),
(263,597,ls),
(281,689,o),
(235,754,o),
(144,754,cs),
(127,754,o),
(109,752,o),
(85,747,c),
(75,677,l),
(94,681,o),
(114,684,o),
(131,684,cs),
(176,684,o),
(199,660,o),
(188,603,cs),
(152,423,ls),
(135,340,o),
(175,291,o),
(254,291,c),
(255,299,l),
(176,299,o),
(123,250,o),
(116,167,cs),
(100,-13,ls),
(95,-70,o),
(65,-94,o),
(20,-94,cs),
(3,-94,o),
(-16,-91,o),
(-34,-87,c),
(-44,-157,l),
(-21,-162,o),
(-4,-164,o),
(13,-164,cs),
(104,-164,o),
(169,-99,o),
(177,-7,cs),
(193,175,ls),
(199,236,o),
(238,261,o),
(293,261,c)
);
}
);
width = 313;
},
{
layerId = "6DBF946B-D1CC-402F-8126-F74CC4A62DD0";
shapes = (
{
closed = 1;
nodes = (
(273,317,l),
(230,317,o),
(186,338,o),
(196,395,c),
(239,617,l),
(253,697,o),
(210,754,o),
(130,754,cs),
(117,754,o),
(106,753,o),
(87,749,c),
(80,703,l),
(99,707,o),
(119,710,o),
(136,710,cs),
(181,710,o),
(203,686,o),
(193,629,c),
(152,417,ls),
(137,342,o),
(177,291,o),
(254,291,c),
(255,299,l),
(178,299,o),
(124,248,o),
(117,173,cs),
(98,-39,l),
(92,-96,o),
(63,-120,o),
(18,-120,cs),
(1,-120,o),
(-18,-117,o),
(-36,-113,c),
(-43,-159,l),
(-25,-163,o),
(-14,-164,o),
(-1,-164,cs),
(79,-164,o),
(139,-107,o),
(147,-27,c),
(168,195,l),
(174,252,o),
(224,273,o),
(267,273,c)
);
}
);
width = 289;
},
{
layerId = "94E3E3CE-F120-43CB-86CD-384D4F8954CA";
shapes = (
{
closed = 1;
nodes = (
(375,359,l),
(291,359,o),
(289,394,o),
(305,465,cs),
(323,547,ls),
(350,668,o),
(295,754,o),
(177,754,cs),
(152,754,o),
(117,750,o),
(80,741,c),
(61,612,l),
(80,616,o),
(100,619,o),
(117,619,cs),
(162,619,o),
(187,595,o),
(174,538,cs),
(152,438,ls),
(129,335,o),
(170,291,o),
(253,291,c),
(255,299,l),
(172,299,o),
(118,255,o),
(111,152,cs),
(105,52,ls),
(102,-5,o),
(69,-29,o),
(24,-29,cs),
(7,-29,o),
(-11,-26,o),
(-29,-22,c),
(-48,-151,l),
(-14,-160,o),
(21,-164,o),
(46,-164,cs),
(164,-164,o),
(244,-78,o),
(251,43,cs),
(256,125,ls),
(260,196,o),
(273,231,o),
(357,231,c)
);
}
);
width = 372;
}
);
leftKerningGroup = public.kern2.R_braceright;
rightKerningGroup = public.kern1.L_braceright;
unicode = 125;
},
{
glyphname = bracketleft;
layers = (
{
layerId = "9DC41883-06BB-4704-B6B2-BE0FA655C222";
shapes = (
{
closed = 1;
nodes = (
(192,-160,l),
(203,-88,l),
(83,-88,l),
(192,678,l),
(312,678,l),
(322,750,l),
(126,750,l),
(-4,-160,l)
);
}
);
width = 273;
},
{
layerId = "6DBF946B-D1CC-402F-8126-F74CC4A62DD0";
shapes = (
{
closed = 1;
nodes = (
(170,-160,l),
(177,-115,l),
(55,-115,l),
(172,705,l),
(294,705,l),
(300,750,l),
(132,750,l),
(2,-160,l)
);
}
);
width = 253;
},
{
layerId = "94E3E3CE-F120-43CB-86CD-384D4F8954CA";
shapes = (
{
closed = 1;
nodes = (
(247,-160,l),
(267,-20,l),
(152,-20,l),
(242,610,l),
(357,610,l),
(377,750,l),
(113,750,l),
(-17,-160,l)
);
}
);
width = 323;
}
);
leftKerningGroup = public.kern2.R_bracketleft;
rightKerningGroup = public.kern1.L_bracketleft;
unicode = 91;
},
{
glyphname = bracketright;
layers = (
{
layerId = "9DC41883-06BB-4704-B6B2-BE0FA655C222";
shapes = (
{
closed = 1;
nodes = (
(151,-160,l),
(281,750,l),
(85,750,l),
(75,678,l),
(195,678,l),
(85,-88,l),
(-34,-88,l),
(-45,-160,l)
);
}
);
width = 273;
},
{
layerId = "6DBF946B-D1CC-402F-8126-F74CC4A62DD0";
shapes = (
{
closed = 1;
nodes = (
(126,-160,l),
(256,750,l),
(87,750,l),
(81,705,l),
(202,705,l),
(85,-115,l),
(-36,-115,l),
(-43,-160,l)
);
}
);
width = 253;
},
{
layerId = "94E3E3CE-F120-43CB-86CD-384D4F8954CA";
shapes = (
{
closed = 1;
nodes = (
(215,-160,l),
(345,750,l),
(81,750,l),
(61,610,l),
(176,610,l),
(86,-20,l),
(-29,-20,l),
(-49,-160,l)
);
}
);
width = 323;
}
);
leftKerningGroup = public.kern2.R_bracketright;
rightKerningGroup = public.kern1.L_bracketright;
unicode = 93;
},
{
export = 0;
glyphname = brevecomb;
layers = (
{
layerId = "9DC41883-06BB-4704-B6B2-BE0FA655C222";
shapes = (
{
closed = 1;
nodes = (
(374,630,o),
(441,696,o),
(454,785,c),
(166,785,l),
(153,696,o),
(202,630,o),
(288,630,cs)
);
},
{
closed = 1;
nodes = (
(244,690,o),
(217,728,o),
(225,785,c),
(395,785,l),
(387,728,o),
(348,690,o),
(296,690,cs)
);
}
);
width = 475;
},
{
layerId = "6DBF946B-D1CC-402F-8126-F74CC4A62DD0";
shapes = (
{
closed = 1;
nodes = (
(368,646,o),
(432,708,o),
(444,793,c),
(177,793,l),
(165,708,o),
(210,646,o),
(289,646,cs)
);
},
{
closed = 1;
nodes = (
(239,690,o),
(208,731,o),
(217,793,c),
(403,793,l),
(394,731,o),
(353,690,o),
(296,690,cs)
);
}
);
width = 474;
},
{
layerId = "94E3E3CE-F120-43CB-86CD-384D4F8954CA";
shapes = (
{
closed = 1;
nodes = (
(387,590,o),
(467,665,o),
(481,765,c),
(138,765,l),
(124,665,o),
(181,590,o),
(284,590,cs)
);
},
{
closed = 1;
nodes = (
(258,690,o),
(237,720,o),
(243,765,c),
(375,765,l),
(369,720,o),
(338,690,o),
(298,690,cs)
);
}
);
width = 479;
}
);
unicode = 774;
},
{
glyphname = breveinvertedcomb;
layers = (
{
layerId = "9DC41883-06BB-4704-B6B2-BE0FA655C222";
shapes = (
{
closed = 1;
nodes = (
(224,785,o),
(157,719,o),
(144,630,c),
(432,630,l),
(445,719,o),
(396,785,o),
(310,785,cs)
);
},
{
closed = 1;
nodes = (
(353,725,o),
(381,687,o),
(373,630,c),
(203,630,l),
(211,687,o),
(249,725,o),
(301,725,cs)
);
}
);
width = 475;
},
{
layerId = "6DBF946B-D1CC-402F-8126-F74CC4A62DD0";
shapes = (
{
closed = 1;
nodes = (
(231,793,o),
(168,731,o),
(156,646,c),
(423,646,l),
(435,731,o),
(389,793,o),
(310,793,cs)
);
},
{
closed = 1;
nodes = (
(361,749,o),
(391,708,o),
(382,646,c),
(196,646,l),
(205,708,o),
(247,749,o),
(304,749,cs)
);
}
);
width = 474;
},
{
layerId = "94E3E3CE-F120-43CB-86CD-384D4F8954CA";
shapes = (
{
closed = 1;
nodes = (
(206,765,o),
(127,690,o),
(113,590,c),
(456,590,l),
(470,690,o),
(412,765,o),
(309,765,cs)
);
},
{
closed = 1;
nodes = (
(335,665,o),
(356,635,o),
(350,590,c),
(218,590,l),
(224,635,o),
(255,665,o),
(295,665,cs)
);
}
);
width = 479;
}
);
unicode = 785;
},
{
glyphname = brokenbar;
layers = (
{
layerId = "9DC41883-06BB-4704-B6B2-BE0FA655C222";
shapes = (
{
closed = 1;
nodes = (
(63,340,l),
(134,340,l),
(192,750,l),
(122,750,l)
);
},
{
closed = 1;
nodes = (
(-8,-160,l),
(62,-160,l),
(121,250,l),
(50,250,l)
);
}
);
width = 179;
},
{
layerId = "6DBF946B-D1CC-402F-8126-F74CC4A62DD0";
shapes = (
{
closed = 1;
nodes = (
(67,344,l),
(107,344,l),
(165,750,l),
(125,750,l)
);
},
{
closed = 1;
nodes = (
(-5,-160,l),
(35,-160,l),
(93,246,l),
(53,246,l)
);
}
);
width = 155;
},
{
layerId = "94E3E3CE-F120-43CB-86CD-384D4F8954CA";
shapes = (
{
closed = 1;
nodes = (
(53,330,l),
(202,330,l),
(262,750,l),
(113,750,l)
);
},
{
closed = 1;
nodes = (
(-17,-160,l),
(132,-160,l),
(192,260,l),
(43,260,l)
);
}
);
width = 239;
}
);
unicode = 166;
},
{
glyphname = bullet;
layers = (
{
layerId = "9DC41883-06BB-4704-B6B2-BE0FA655C222";
shapes = (
{
closed = 1;
nodes = (
(211,270,l),
(231,410,l),
(91,410,l),
(71,270,l)
);
}
);
width = 284;
},
{
layerId = "6DBF946B-D1CC-402F-8126-F74CC4A62DD0";
shapes = (
{
closed = 1;
nodes = (
(174,300,l),
(186,388,l),
(99,388,l),
(87,300,l)
);
}
);
width = 254;
},
{
layerId = "94E3E3CE-F120-43CB-86CD-384D4F8954CA";
shapes = (
{
closed = 1;
nodes = (
(302,195,l),
(340,465,l),
(72,465,l),
(33,195,l)
);
}
);
width = 359;
}
);
unicode = 8226;
},
{
glyphname = c;
layers = (
{
anchors = (
{
name = bottom;
position = "{243, 0}";
},
{
name = top;
position = "{243, 560}";
}
);
layerId = "94E3E3CE-F120-43CB-86CD-384D4F8954CA";
shapes = (
{
closed = 1;
nodes = (
(488,545,l),
(444,563,o),
(398,572,o),
(350,572,cs),
(179,572,o),
(42,451,o),
(18,280,cs),
(-6,109,o),
(95,-12,o),
(266,-12,cs),
(314,-12,o),
(362,-3,o),
(412,15,c),
(434,170,l),
(386,155,o),
(340,140,o),
(294,140,cs),
(203,140,o),
(161,200,o),
(172,280,cs),
(184,361,o),
(243,420,o),
(334,420,cs),
(380,420,o),
(422,405,o),
(466,390,c)
);
}
);
width = 482;
},
{
anchors = (
{
name = bottom;
position = "{218, 0}";
},
{
name = top;
position = "{218, 560}";
}
);
layerId = "9DC41883-06BB-4704-B6B2-BE0FA655C222";
shapes = (
{
closed = 1;
nodes = (
(489,550,l),
(447,565,o),
(404,572,o),
(363,572,cs),
(193,572,o),
(57,451,o),
(33,280,cs),
(9,109,o),
(110,-12,o),
(280,-12,cs),
(321,-12,o),
(366,-5,o),
(412,10,c),
(423,85,l),
(382,73,o),
(338,60,o),
(289,60,cs),
(157,60,o),
(92,154,o),
(110,280,cs),
(128,407,o),
(220,500,o),
(352,500,cs),
(400,500,o),
(440,488,o),
(478,475,c)
);
}
);
width = 491;
},
{
anchors = (
{
name = bottom;
position = "{208, 0}";
},
{
name = top;
position = "{208, 560}";
}
);
layerId = "6DBF946B-D1CC-402F-8126-F74CC4A62DD0";
shapes = (
{
closed = 1;
nodes = (
(489,552,l),
(449,566,o),
(407,572,o),
(369,572,cs),
(199,572,o),
(62,451,o),
(38,280,cs),
(14,109,o),
(115,-12,o),
(285,-12,cs),
(323,-12,o),
(367,-6,o),
(411,8,c),
(417,51,l),
(379,40,o),
(337,28,o),
(287,28,cs),
(138,28,o),
(63,136,o),
(84,280,cs),
(105,425,o),
(210,532,o),
(359,532,cs),
(408,532,o),
(447,521,o),
(483,509,c)
);
}
);
width = 494;
}
);
leftKerningGroup = public.kern2.R_o;
rightKerningGroup = public.kern1.L_c;
unicode = 99;
},
{
export = 0;
glyphname = caroncomb;
layers = (
{
layerId = "9DC41883-06BB-4704-B6B2-BE0FA655C222";
shapes = (
{
closed = 1;
nodes = (
(315,635,l),
(236,785,l),
(167,785,l),
(244,635,l)
);
},
{
closed = 1;
nodes = (
(453,785,l),
(383,785,l),
(262,635,l),
(333,635,l)
);
}
);
width = 475;
},
{
layerId = "6DBF946B-D1CC-402F-8126-F74CC4A62DD0";
shapes = (
{
closed = 1;
nodes = (
(304,651,l),
(229,793,l),
(182,793,l),
(261,651,l)
);
},
{
closed = 1;
nodes = (
(437,793,l),
(391,793,l),
(275,651,l),
(318,651,l)
);
}
);
width = 473;
},
{
layerId = "94E3E3CE-F120-43CB-86CD-384D4F8954CA";
shapes = (
{
closed = 1;
nodes = (
(341,595,l),
(256,765,l),
(128,765,l),
(202,595,l)
);
},
{
closed = 1;
nodes = (
(492,765,l),
(364,765,l),
(230,595,l),
(369,595,l)
);
}
);
width = 481;
}
);
unicode = 780;
},
{
export = 0;
glyphname = caroncomb.alt;
layers = (
{
layerId = "9DC41883-06BB-4704-B6B2-BE0FA655C222";
shapes = (
{
closed = 1;
nodes = (
(248,555,l),
(313,555,l),
(373,750,l),
(296,750,l)
);
}
);
width = 461;
},
{
layerId = "6DBF946B-D1CC-402F-8126-F74CC4A62DD0";
shapes = (
{
closed = 1;
nodes = (
(251,575,l),
(295,575,l),
(351,750,l),
(296,750,l)
);
}
);
width = 460;
},
{
layerId = "94E3E3CE-F120-43CB-86CD-384D4F8954CA";
shapes = (
{
closed = 1;
nodes = (
(241,505,l),
(359,505,l),
(425,750,l),
(296,750,l)
);
}
);
width = 465;
}
);
},
{
glyphname = ccaron;
layers = (
{
layerId = "9DC41883-06BB-4704-B6B2-BE0FA655C222";
shapes = (
{
closed = 1;
nodes = (
(489,550,l),
(447,565,o),
(404,572,o),
(363,572,cs),
(193,572,o),
(57,451,o),
(33,280,cs),
(9,109,o),
(110,-12,o),
(280,-12,cs),
(321,-12,o),
(366,-5,o),
(412,10,c),
(423,85,l),
(382,73,o),
(338,60,o),
(289,60,cs),
(157,60,o),
(92,154,o),
(110,280,cs),
(128,407,o),
(220,500,o),
(352,500,cs),
(400,500,o),
(440,488,o),
(478,475,c)
);
},
{
closed = 1;
nodes = (
(323,635,l),
(244,785,l),
(175,785,l),
(252,635,l)
);
},
{
closed = 1;
nodes = (
(461,785,l),
(391,785,l),
(270,635,l),
(341,635,l)
);
}
);
width = 516;
},
{
layerId = "6DBF946B-D1CC-402F-8126-F74CC4A62DD0";
shapes = (
{
closed = 1;
nodes = (
(489,552,l),
(449,566,o),
(407,572,o),
(369,572,cs),
(199,572,o),
(62,451,o),
(38,280,cs),
(14,109,o),
(115,-12,o),
(285,-12,cs),
(323,-12,o),
(367,-6,o),
(411,8,c),
(417,51,l),
(379,40,o),
(337,28,o),
(287,28,cs),
(138,28,o),
(63,136,o),
(84,280,cs),
(105,425,o),
(210,532,o),
(359,532,cs),
(408,532,o),
(447,521,o),
(483,509,c)
);
},
{
closed = 1;
nodes = (
(302,651,l),
(227,793,l),
(180,793,l),
(259,651,l)
);
},
{
closed = 1;
nodes = (
(435,793,l),
(389,793,l),
(273,651,l),
(316,651,l)
);
}
);
width = 520;
},
{
layerId = "94E3E3CE-F120-43CB-86CD-384D4F8954CA";
shapes = (
{
closed = 1;
nodes = (
(488,545,l),
(444,563,o),
(398,572,o),
(350,572,cs),
(179,572,o),
(42,451,o),
(18,280,cs),
(-6,109,o),
(95,-12,o),
(266,-12,cs),
(314,-12,o),
(362,-3,o),
(412,15,c),
(434,170,l),
(386,155,o),
(340,140,o),
(294,140,cs),
(203,140,o),
(161,200,o),
(172,280,cs),
(184,361,o),
(243,420,o),
(334,420,cs),
(380,420,o),
(422,405,o),
(466,390,c)
);
},
{
closed = 1;
nodes = (
(374,595,l),
(289,765,l),
(161,765,l),
(235,595,l)
);
},
{
closed = 1;
nodes = (
(525,765,l),
(397,765,l),
(263,595,l),
(402,595,l)
);
}
);
width = 505;
}
);
unicode = 269;
},
{
glyphname = cedillacomb;
layers = (
{
layerId = "9DC41883-06BB-4704-B6B2-BE0FA655C222";
shapes = (
{
closed = 1;
nodes = (
(125,-38,l),
(118,-84,l),
(173,-84,ls),
(195,-84,o),
(216,-90,o),
(212,-117,cs),
(208,-144,o),
(185,-151,o),
(163,-151,cs),
(109,-151,l),
(100,-210,l),
(149,-210,ls),
(214,-210,o),
(265,-186,o),
(274,-123,cs),
(283,-60,o),
(239,-38,o),
(174,-38,c),
(167,-61,l),
(234,30,l),
(173,30,l)
);
}
);
width = 466;
},
{
layerId = "6DBF946B-D1CC-402F-8126-F74CC4A62DD0";
shapes = (
{
closed = 1;
nodes = (
(136,-38,l),
(130,-77,l),
(179,-77,ls),
(202,-77,o),
(224,-85,o),
(220,-115,cs),
(216,-144,o),
(191,-153,o),
(168,-153,cs),
(119,-153,l),
(112,-202,l),
(146,-202,ls),
(207,-202,o),
(255,-179,o),
(264,-119,cs),
(273,-59,o),
(231,-38,o),
(169,-38,c),
(158,-61,l),
(224,30,l),
(182,30,l)
);
}
);
width = 465;
},
{
layerId = "94E3E3CE-F120-43CB-86CD-384D4F8954CA";
shapes = (
{
closed = 1;
nodes = (
(97,-38,l),
(88,-101,l),
(158,-101,ls),
(178,-101,o),
(197,-103,o),
(194,-123,cs),
(191,-143,o),
(172,-146,o),
(152,-146,cs),
(82,-146,l),
(70,-230,l),
(158,-230,ls),
(232,-230,o),
(289,-203,o),
(299,-133,cs),
(309,-63,o),
(259,-38,o),
(186,-38,c),
(188,-61,l),
(262,30,l),
(151,30,l)
);
}
);
width = 470;
}
);
unicode = 807;
},
{
glyphname = cent;
layers = (
{
layerId = "17E587F8-1658-4EA1-B692-913C09764BD7";
name = "#instance";
shapes = (
{
closed = 1;
nodes = (
(331,-6,o),
(376,0,o),
(421,14,c),
(427,59,l),
(388,49,o),
(349,36,o),
(298,36,cs),
(275,36,ls),
(140,36,o),
(65,140,o),
(85,280,cs),
(105,421,o),
(210,524,o),
(345,524,cs),
(368,524,ls),
(418,524,o),
(453,513,o),
(490,501,c),
(497,546,l),
(456,560,o),
(413,566,o),
(374,566,cs),
(201,566,o),
(62,447,o),
(38,280,cs),
(14,113,o),
(119,-6,o),
(292,-6,cs)
);
},
{
closed = 1;
nodes = (
(263,-90,l),
(277,8,l),
(277,28,l),
(349,532,l),
(354,552,l),
(368,650,l),
(326,650,l),
(312,552,l),
(312,532,l),
(240,28,l),
(235,8,l),
(221,-90,l)
);
}
);
width = 503;
},
{
layerId = "9DC41883-06BB-4704-B6B2-BE0FA655C222";
shapes = (
{
closed = 1;
nodes = (
(329,-6,o),
(374,1,o),
(421,16,c),
(432,91,l),
(390,79,o),
(346,66,o),
(296,66,cs),
(277,66,ls),
(155,66,o),
(93,157,o),
(111,280,cs),
(129,404,o),
(216,494,o),
(338,494,cs),
(357,494,ls),
(406,494,o),
(447,482,o),
(486,469,c),
(497,544,l),
(454,559,o),
(411,566,o),
(369,566,cs),
(196,566,o),
(57,447,o),
(33,280,cs),
(9,113,o),
(114,-6,o),
(287,-6,cs)
);
},
{
closed = 1;
nodes = (
(280,-90,l),
(295,20,l),
(296,40,l),
(365,520,l),
(370,540,l),
(385,650,l),
(313,650,l),
(297,540,l),
(296,520,l),
(228,40,l),
(223,20,l),
(207,-90,l)
);
}
);
width = 500;
},
{
layerId = "6DBF946B-D1CC-402F-8126-F74CC4A62DD0";
shapes = (
{
closed = 1;
nodes = (
(331,-6,o),
(376,0,o),
(421,14,c),
(427,59,l),
(388,49,o),
(349,36,o),
(298,36,cs),
(275,36,ls),
(140,36,o),
(65,140,o),
(85,280,cs),
(105,421,o),
(210,524,o),
(345,524,cs),
(368,524,ls),
(418,524,o),
(453,513,o),
(490,501,c),
(497,546,l),
(456,560,o),
(413,566,o),
(374,566,cs),
(201,566,o),
(62,447,o),
(38,280,cs),
(14,113,o),
(119,-6,o),
(292,-6,cs)
);
},
{
closed = 1;
nodes = (
(263,-90,l),
(277,8,l),
(277,28,l),
(349,532,l),
(354,552,l),
(368,650,l),
(326,650,l),
(312,552,l),
(312,532,l),
(240,28,l),
(235,8,l),
(221,-90,l)
);
}
);
width = 503;
},
{
layerId = "94E3E3CE-F120-43CB-86CD-384D4F8954CA";
shapes = (
{
closed = 1;
nodes = (
(322,-5,o),
(372,4,o),
(422,21,c),
(443,170,l),
(394,155,o),
(337,140,o),
(290,140,cs),
(280,140,ls),
(191,140,o),
(164,200,o),
(175,280,cs),
(187,361,o),
(231,420,o),
(320,420,cs),
(330,420,ls),
(377,420,o),
(430,405,o),
(475,390,c),
(496,539,l),
(450,556,o),
(404,565,o),
(355,565,cs),
(181,565,o),
(42,447,o),
(18,280,cs),
(-6,113,o),
(99,-5,o),
(273,-5,cs)
);
},
{
closed = 1;
nodes = (
(298,-90,l),
(318,50,l),
(319,70,l),
(379,490,l),
(383,510,l),
(403,650,l),
(305,650,l),
(285,510,l),
(283,490,l),
(223,70,l),
(220,50,l),
(200,-90,l)
);
}
);
width = 491;
}
);
unicode = 162;
},
{
glyphname = circumflexcomb;
layers = (
{
layerId = "9DC41883-06BB-4704-B6B2-BE0FA655C222";
shapes = (
{
closed = 1;
nodes = (
(145,635,l),
(215,635,l),
(336,785,l),
(266,785,l)
);
},
{
closed = 1;
nodes = (
(283,785,l),
(362,635,l),
(432,635,l),
(354,785,l)
);
}
);
width = 475;
},
{
layerId = "6DBF946B-D1CC-402F-8126-F74CC4A62DD0";
shapes = (
{
closed = 1;
nodes = (
(162,651,l),
(208,651,l),
(325,793,l),
(281,793,l)
);
},
{
closed = 1;
nodes = (
(295,793,l),
(371,651,l),
(417,651,l),
(338,793,l)
);
}
);
width = 473;
},
{
layerId = "94E3E3CE-F120-43CB-86CD-384D4F8954CA";
shapes = (
{
closed = 1;
nodes = (
(103,595,l),
(232,595,l),
(366,765,l),
(227,765,l)
);
},
{
closed = 1;
nodes = (
(254,765,l),
(339,595,l),
(468,595,l),
(393,765,l)
);
}
);
width = 481;
}
);
unicode = 770;
},
{
glyphname = clockwiseOpenCircleArrow;
layers = (
{
layerId = "9DC41883-06BB-4704-B6B2-BE0FA655C222";
shapes = (
{
closed = 1;
nodes = (
(541,-10,o),
(680,129,o),
(680,308,c),
(600,308,l),
(600,166,o),
(501,66,o),
(360,66,cs),
(219,66,o),
(120,166,o),
(120,308,cs),
(120,450,o),
(219,550,o),
(380,550,cs),
(480,550,l),
(700,550,l),
(700,626,l),
(480,626,l),
(380,626,ls),
(179,626,o),
(40,487,o),
(40,308,cs),
(40,129,o),
(179,-10,o),
(360,-10,cs)
);
},
{
closed = 1;
nodes = (
(544,370,l),
(750,588,l),
(544,806,l),
(437,806,l),
(544,702,l),
(686,568,l),
(686,608,l),
(544,474,l),
(437,370,l)
);
}
);
width = 790;
},
{
layerId = "6DBF946B-D1CC-402F-8126-F74CC4A62DD0";
shapes = (
{
closed = 1;
nodes = (
(525.429,-10,o),
(658.857,127,o),
(658.715,303,c),
(613.715,303,l),
(613.429,144,o),
(506.429,32,o),
(351.429,32,cs),
(196.429,32,o),
(88.429,144,o),
(88.715,303,cs),
(89.001,462,o),
(197.001,574,o),
(371.001,574,cs),
(496.001,574,l),
(712.287,572,l),
(711.715,618,l),
(496.001,616,l),
(371.001,616,ls),
(177.001,616,o),
(43.572,479,o),
(43.715,303,cs),
(43.857,127,o),
(177.429,-10,o),
(351.429,-10,cs)
);
},
{
closed = 1;
nodes = (
(542.001,378,l),
(749.001,595,l),
(542.001,812,l),
(473.001,812,l),
(581.573,703,l),
(700.144,587,l),
(699.858,603,l),
(581.287,488,l),
(473.001,378,l)
);
}
);
width = 789;
},
{
layerId = "94E3E3CE-F120-43CB-86CD-384D4F8954CA";
shapes = (
{
closed = 1;
nodes = (
(544,-10,o),
(690,134,o),
(690,320,c),
(525,320,l),
(525,221,o),
(454,150,o),
(355,150,cs),
(256,150,o),
(185,221,o),
(185,320,cs),
(185,419,o),
(256,490,o),
(375,490,cs),
(405,490,l),
(625,495,l),
(625,645,l),
(405,650,l),
(375,650,ls),
(166,650,o),
(20,506,o),
(20,320,cs),
(20,134,o),
(166,-10,o),
(355,-10,cs)
);
},
{
closed = 1;
nodes = (
(514,350,l),
(705,570,l),
(514,790,l),
(315,790,l),
(412,700,l),
(605,520,l),
(605,620,l),
(412,440,l),
(315,350,l)
);
}
);
width = 735;
}
);
unicode = 8635;
},
{
glyphname = comma;
layers = (
{
layerId = "94E3E3CE-F120-43CB-86CD-384D4F8954CA";
shapes = (
{
closed = 1;
nodes = (
(1,0,l),
(84,0,l),
(-19,-140,l),
(99,-140,l),
(168,0,l),
(190,160,l),
(24,160,l)
);
}
);
width = 248;
},
{
layerId = "9DC41883-06BB-4704-B6B2-BE0FA655C222";
shapes = (
{
closed = 1;
nodes = (
(2,0,l),
(50,0,l),
(-36,-130,l),
(33,-130,l),
(100,0,l),
(114,95,l),
(16,95,l)
);
}
);
width = 181;
},
{
layerId = "6DBF946B-D1CC-402F-8126-F74CC4A62DD0";
shapes = (
{
closed = 1;
nodes = (
(3,0,l),
(37,0,l),
(-43,-126,l),
(6,-126,l),
(73,0,l),
(83,69,l),
(13,69,l)
);
}
);
width = 154;
}
);
leftKerningGroup = public.kern2.R_period;
rightKerningGroup = public.kern1.L_period;
unicode = 44;
},
{
export = 0;
glyphname = commaaccentcomb;
layers = (
{
layerId = "9DC41883-06BB-4704-B6B2-BE0FA655C222";
shapes = (
{
closed = 1;
nodes = (
(139,-210,l),
(229,-40,l),
(149,-40,l),
(66,-210,l)
);
}
);
width = 464;
},
{
layerId = "6DBF946B-D1CC-402F-8126-F74CC4A62DD0";
shapes = (
{
closed = 1;
nodes = (
(129,-198,l),
(212,-40,l),
(163,-40,l),
(87,-198,l)
);
}
);
width = 462;
},
{
layerId = "94E3E3CE-F120-43CB-86CD-384D4F8954CA";
shapes = (
{
closed = 1;
nodes = (
(163,-240,l),
(271,-40,l),
(114,-40,l),
(14,-240,l)
);
}
);
width = 471;
}
);
unicode = 806;
},
{
export = 0;
glyphname = commaturnedabovecomb;
layers = (
{
layerId = "9DC41883-06BB-4704-B6B2-BE0FA655C222";
shapes = (
{
closed = 1;
nodes = (
(303,730,l),
(375,855,l),
(307,855,l),
(246,730,l),
(233,635,l),
(331,635,l),
(344,730,l)
);
}
);
width = 553;
},
{
layerId = "6DBF946B-D1CC-402F-8126-F74CC4A62DD0";
shapes = (
{
closed = 1;
nodes = (
(296,715,l),
(360,828,l),
(313,828,l),
(258,715,l),
(249,651,l),
(317,651,l),
(326,715,l)
);
}
);
width = 588;
},
{
layerId = "94E3E3CE-F120-43CB-86CD-384D4F8954CA";
shapes = (
{
closed = 1;
nodes = (
(320,767,l),
(412,922,l),
(293,922,l),
(217,767,l),
(192,595,l),
(365,595,l),
(389,767,l)
);
}
);
width = 467;
}
);
unicode = 786;
},
{
glyphname = copyright;
layers = (
{
layerId = "9DC41883-06BB-4704-B6B2-BE0FA655C222";
shapes = (
{
closed = 1;
nodes = (
(546,-10,o),
(723,148,o),
(752,350,cs),
(781,552,o),
(649,710,o),
(451,710,cs),
(253,710,o),
(75,552,o),
(46,350,cs),
(17,148,o),
(150,-10,o),
(348,-10,cs)
);
},
{
closed = 1;
nodes = (
(174,30,o),
(60,166,o),
(86,350,cs),
(112,534,o),
(266,670,o),
(445,670,cs),
(624,670,o),
(739,534,o),
(713,350,cs),
(687,166,o),
(532,30,o),
(353,30,cs)
);
},
{
closed = 1;
nodes = (
(584,535,l),
(546,557,o),
(501,572,o),
(449,572,cs),
(316,572,o),
(212,475,o),
(194,350,cs),
(176,226,o),
(252,129,o),
(385,129,cs),
(437,129,o),
(488,143,o),
(532,165,c),
(543,244,l),
(490,214,o),
(444,197,o),
(397,197,cs),
(301,197,o),
(253,269,o),
(265,350,cs),
(277,434,o),
(345,504,o),
(441,504,cs),
(488,504,o),
(528,487,o),
(573,456,c)
);
}
);
width = 778;
},
{
layerId = "6DBF946B-D1CC-402F-8126-F74CC4A62DD0";
shapes = (
{
closed = 1;
nodes = (
(548,-10,o),
(725,148,o),
(754,350,cs),
(783,552,o),
(650,710,o),
(452,710,cs),
(254,710,o),
(77,552,o),
(48,350,cs),
(19,148,o),
(152,-10,o),
(350,-10,cs)
);
},
{
closed = 1;
nodes = (
(172,24,o),
(55,163,o),
(82,350,cs),
(109,537,o),
(266,676,o),
(448,676,cs),
(630,676,o),
(747,537,o),
(720,350,cs),
(693,163,o),
(536,24,o),
(354,24,cs)
);
},
{
closed = 1;
nodes = (
(585,533,l),
(547,556,o),
(501,570,o),
(450,570,cs),
(319,570,o),
(217,473,o),
(199,350,cs),
(182,228,o),
(256,131,o),
(387,131,cs),
(438,131,o),
(489,144,o),
(533,167,c),
(541,224,l),
(485,195,o),
(439,177,o),
(391,177,cs),
(286,177,o),
(234,259,o),
(247,350,cs),
(260,444,o),
(336,524,o),
(441,524,cs),
(489,524,o),
(529,506,o),
(577,476,c)
);
}
);
width = 782;
},
{
layerId = "94E3E3CE-F120-43CB-86CD-384D4F8954CA";
shapes = (
{
closed = 1;
nodes = (
(541,-10,o),
(718,148,o),
(747,350,cs),
(776,552,o),
(644,710,o),
(446,710,cs),
(248,710,o),
(71,552,o),
(42,350,cs),
(13,148,o),
(145,-10,o),
(343,-10,cs)
);
},
{
closed = 1;
nodes = (
(179,44,o),
(70,174,o),
(95,350,cs),
(120,526,o),
(266,656,o),
(438,656,cs),
(610,656,o),
(720,526,o),
(695,350,cs),
(670,174,o),
(523,44,o),
(351,44,cs)
);
},
{
closed = 1;
nodes = (
(582,539,l),
(544,560,o),
(500,577,o),
(444,577,cs),
(308,577,o),
(202,481,o),
(183,350,cs),
(164,220,o),
(243,124,o),
(379,124,cs),
(435,124,o),
(484,140,o),
(528,161,c),
(548,295,l),
(501,262,o),
(456,246,o),
(412,246,cs),
(337,246,o),
(300,294,o),
(308,350,cs),
(316,408,o),
(367,454,o),
(442,454,cs),
(486,454,o),
(526,439,o),
(563,405,c)
);
}
);
width = 769;
}
);
unicode = 169;
},
{
glyphname = currency;
layers = (
{
layerId = "9DC41883-06BB-4704-B6B2-BE0FA655C222";
shapes = (
{
closed = 1;
nodes = (
(395,170,o),
(493,258,o),
(509,370,cs),
(525,482,o),
(452,570,o),
(341,570,cs),
(230,570,o),
(133,482,o),
(117,370,cs),
(101,258,o),
(173,170,o),
(284,170,cs)
);
},
{
closed = 1;
nodes = (
(220,238,o),
(176,291,o),
(187,370,cs),
(198,449,o),
(257,502,o),
(331,502,cs),
(405,502,o),
(449,449,o),
(438,370,cs),
(427,291,o),
(368,238,o),
(294,238,cs)
);
},
{
closed = 1;
nodes = (
(188,219,l),
(150,265,l),
(24,158,l),
(67,106,l)
);
},
{
closed = 1;
nodes = (
(84,582,l),
(180,475,l),
(231,521,l),
(142,634,l)
);
},
{
closed = 1;
nodes = (
(541,158,l),
(446,265,l),
(394,219,l),
(483,106,l)
);
},
{
closed = 1;
nodes = (
(437,521,l),
(476,475,l),
(602,582,l),
(558,634,l)
);
}
);
width = 599;
},
{
layerId = "6DBF946B-D1CC-402F-8126-F74CC4A62DD0";
shapes = (
{
closed = 1;
nodes = (
(373,180,o),
(466,264,o),
(481,370,cs),
(496,476,o),
(428,560,o),
(324,560,cs),
(219,560,o),
(127,476,o),
(112,370,cs),
(97,264,o),
(164,180,o),
(269,180,cs)
);
},
{
closed = 1;
nodes = (
(190,219,o),
(139,279,o),
(152,370,cs),
(165,461,o),
(233,521,o),
(318,521,cs),
(402,521,o),
(454,461,o),
(441,370,cs),
(428,279,o),
(359,219,o),
(275,219,cs)
);
},
{
closed = 1;
nodes = (
(153,223,l),
(134,245,l),
(26,153,l),
(49,126,l)
);
},
{
closed = 1;
nodes = (
(88,587,l),
(169,495,l),
(195,517,l),
(119,614,l)
);
},
{
closed = 1;
nodes = (
(504,153,l),
(423,245,l),
(398,223,l),
(473,126,l)
);
},
{
closed = 1;
nodes = (
(440,517,l),
(458,495,l),
(566,587,l),
(543,614,l)
);
}
);
width = 566;
},
{
layerId = "94E3E3CE-F120-43CB-86CD-384D4F8954CA";
shapes = (
{
closed = 1;
nodes = (
(448,145,o),
(561,244,o),
(579,370,cs),
(597,496,o),
(513,595,o),
(386,595,cs),
(259,595,o),
(146,496,o),
(128,370,cs),
(110,244,o),
(194,145,o),
(321,145,cs)
);
},
{
closed = 1;
nodes = (
(295,286,o),
(268,320,o),
(275,370,cs),
(282,420,o),
(319,454,o),
(365,454,cs),
(411,454,o),
(439,420,o),
(432,370,cs),
(425,320,o),
(387,286,o),
(341,286,cs)
);
},
{
closed = 1;
nodes = (
(277,210,l),
(189,315,l),
(16,170,l),
(112,55,l)
);
},
{
closed = 1;
nodes = (
(73,570,l),
(204,425,l),
(322,530,l),
(202,685,l)
);
},
{
closed = 1;
nodes = (
(634,170,l),
(502,315,l),
(384,210,l),
(504,55,l)
);
},
{
closed = 1;
nodes = (
(430,530,l),
(518,425,l),
(691,570,l),
(594,685,l)
);
}
);
width = 681;
}
);
unicode = 164;
},
{
glyphname = d;
layers = (
{
anchors = (
{
name = bottom;
position = "{281, 0}";
},
{
name = center;
position = "{281, 280}";
},
{
name = top;
position = "{281, 750}";
},
{
name = topright;
position = "{601, 750}";
}
);
layerId = "94E3E3CE-F120-43CB-86CD-384D4F8954CA";
shapes = (
{
closed = 1;
nodes = (
(467,280,l),
(494,471,o),
(430,572,o),
(301,572,cs),
(166,572,o),
(44,461,o),
(18,280,cs),
(-8,99,o),
(82,-12,o),
(217,-12,cs),
(347,-12,o),
(450,89,o),
(477,280,c)
);
},
{
closed = 1;
nodes = (
(424,200,o),
(364,133,o),
(282,133,cs),
(200,133,o),
(161,200,o),
(172,280,cs),
(183,360,o),
(242,427,o),
(324,427,cs),
(406,427,o),
(446,360,o),
(435,280,cs)
);
},
{
closed = 1;
nodes = (
(541,0,l),
(648,750,l),
(496,750,l),
(443,377,l),
(448,280,l),
(418,160,l),
(395,0,l)
);
}
);
width = 612;
},
{
anchors = (
{
name = bottom;
position = "{298, 0}";
},
{
name = center;
position = "{298, 280}";
},
{
name = top;
position = "{298, 750}";
},
{
name = topright;
position = "{615, 750}";
}
);
layerId = "9DC41883-06BB-4704-B6B2-BE0FA655C222";
shapes = (
{
closed = 1;
nodes = (
(536,280,l),
(563,471,o),
(476,572,o),
(340,572,cs),
(193,572,o),
(58,453,o),
(33,280,cs),
(8,107,o),
(110,-12,o),
(257,-12,cs),
(393,-12,o),
(518,89,o),
(545,280,c)
);
},
{
closed = 1;
nodes = (
(490,159,o),
(401,60,o),
(274,60,cs),
(149,60,o),
(93,159,o),
(110,280,cs),
(127,401,o),
(212,500,o),
(337,500,cs),
(464,500,o),
(524,401,o),
(507,280,cs)
);
},
{
closed = 1;
nodes = (
(544,0,l),
(651,750,l),
(574,750,l),
(521,377,l),
(526,280,l),
(490,160,l),
(467,0,l)
);
}
);
width = 642;
},
{
anchors = (
{
name = bottom;
position = "{305, 0}";
},
{
name = center;
position = "{305, 280}";
},
{
name = top;
position = "{305, 750}";
},
{
name = topright;
position = "{621, 750}";
}
);
layerId = "6DBF946B-D1CC-402F-8126-F74CC4A62DD0";
shapes = (
{
closed = 1;
nodes = (
(563,280,l),
(590,471,o),
(495,572,o),
(356,572,cs),
(204,572,o),
(63,450,o),
(39,280,cs),
(15,110,o),
(121,-12,o),
(273,-12,cs),
(412,-12,o),
(546,89,o),
(573,280,c)
);
},
{
closed = 1;
nodes = (
(516,143,o),
(415,31,o),
(271,31,cs),
(129,31,o),
(65,143,o),
(85,280,cs),
(105,417,o),
(201,529,o),
(343,529,cs),
(487,529,o),
(556,417,o),
(536,280,cs)
);
},
{
closed = 1;
nodes = (
(545,0,l),
(653,750,l),
(605,750,l),
(552,377,l),
(558,280,l),
(519,160,l),
(496,0,l)
);
}
);
width = 655;
}
);
leftKerningGroup = public.kern2.R_o;
rightKerningGroup = public.kern1.L_l;
unicode = 100;
},
{
glyphname = dagger;
layers = (
{
layerId = "9DC41883-06BB-4704-B6B2-BE0FA655C222";
shapes = (
{
closed = 1;
nodes = (
(168,-100,l),
(238,-100,l),
(358,740,l),
(288,740,l)
);
},
{
closed = 1;
nodes = (
(499,492,l),
(509,560,l),
(85,560,l),
(76,492,l)
);
}
);
width = 514;
},
{
layerId = "6DBF946B-D1CC-402F-8126-F74CC4A62DD0";
shapes = (
{
closed = 1;
nodes = (
(182,-108,l),
(221,-108,l),
(345,756,l),
(306,756,l)
);
},
{
closed = 1;
nodes = (
(503,521,l),
(509,560,l),
(85,560,l),
(80,521,l)
);
}
);
width = 514;
},
{
layerId = "94E3E3CE-F120-43CB-86CD-384D4F8954CA";
shapes = (
{
closed = 1;
nodes = (
(131,-80,l),
(280,-80,l),
(392,700,l),
(243,700,l)
);
},
{
closed = 1;
nodes = (
(489,420,l),
(509,560,l),
(85,560,l),
(65,420,l)
);
}
);
width = 514;
}
);
unicode = 8224;
},
{
glyphname = daggerdbl;
layers = (
{
layerId = "9DC41883-06BB-4704-B6B2-BE0FA655C222";
shapes = (
{
closed = 1;
nodes = (
(168,-100,l),
(238,-100,l),
(358,740,l),
(288,740,l)
);
},
{
closed = 1;
nodes = (
(499,492,l),
(509,560,l),
(85,560,l),
(76,492,l)
);
},
{
closed = 1;
nodes = (
(440,80,l),
(450,148,l),
(27,148,l),
(17,80,l)
);
}
);
width = 514;
},
{
layerId = "6DBF946B-D1CC-402F-8126-F74CC4A62DD0";
shapes = (
{
closed = 1;
nodes = (
(182,-108,l),
(221,-108,l),
(345,756,l),
(306,756,l)
);
},
{
closed = 1;
nodes = (
(503,521,l),
(509,560,l),
(85,560,l),
(80,521,l)
);
},
{
closed = 1;
nodes = (
(441,88,l),
(447,127,l),
(24,127,l),
(18,88,l)
);
}
);
width = 514;
},
{
layerId = "94E3E3CE-F120-43CB-86CD-384D4F8954CA";
shapes = (
{
closed = 1;
nodes = (
(131,-80,l),
(280,-80,l),
(392,700,l),
(243,700,l)
);
},
{
closed = 1;
nodes = (
(489,420,l),
(509,560,l),
(85,560,l),
(65,420,l)
);
},
{
closed = 1;
nodes = (
(437,60,l),
(457,200,l),
(34,200,l),
(14,60,l)
);
}
);
width = 514;
}
);
unicode = 8225;
},
{
glyphname = dblgravecomb;
layers = (
{
layerId = "9DC41883-06BB-4704-B6B2-BE0FA655C222";
shapes = (
{
closed = 1;
nodes = (
(348,635,l),
(420,635,l),
(357,785,l),
(275,785,l)
);
},
{
closed = 1;
nodes = (
(207,635,l),
(279,635,l),
(216,785,l),
(134,785,l)
);
}
);
width = 476;
},
{
layerId = "6DBF946B-D1CC-402F-8126-F74CC4A62DD0";
shapes = (
{
closed = 1;
nodes = (
(357,651,l),
(410,651,l),
(339,793,l),
(276,793,l)
);
},
{
closed = 1;
nodes = (
(227,651,l),
(280,651,l),
(209,793,l),
(146,793,l)
);
}
);
width = 475;
},
{
layerId = "94E3E3CE-F120-43CB-86CD-384D4F8954CA";
shapes = (
{
closed = 1;
nodes = (
(326,595,l),
(447,595,l),
(403,765,l),
(272,765,l)
);
},
{
closed = 1;
nodes = (
(157,595,l),
(279,595,l),
(234,765,l),
(103,765,l)
);
}
);
width = 481;
}
);
unicode = 783;
},
{
glyphname = dcaron;
layers = (
{
layerId = "9DC41883-06BB-4704-B6B2-BE0FA655C222";
shapes = (
{
closed = 1;
nodes = (
(536,280,l),
(563,471,o),
(476,572,o),
(340,572,cs),
(193,572,o),
(58,453,o),
(33,280,cs),
(8,107,o),
(110,-12,o),
(257,-12,cs),
(393,-12,o),
(518,89,o),
(545,280,c)
);
},
{
closed = 1;
nodes = (
(490,159,o),
(401,60,o),
(274,60,cs),
(149,60,o),
(93,159,o),
(110,280,cs),
(127,401,o),
(212,500,o),
(337,500,cs),
(464,500,o),
(524,401,o),
(507,280,cs)
);
},
{
closed = 1;
nodes = (
(544,0,l),
(651,750,l),
(574,750,l),
(521,377,l),
(526,280,l),
(490,160,l),
(467,0,l)
);
},
{
closed = 1;
nodes = (
(653,555,l),
(718,555,l),
(778,750,l),
(701,750,l)
);
}
);
width = 675;
},
{
layerId = "6DBF946B-D1CC-402F-8126-F74CC4A62DD0";
shapes = (
{
closed = 1;
nodes = (
(563,280,l),
(590,471,o),
(495,572,o),
(356,572,cs),
(204,572,o),
(63,450,o),
(39,280,cs),
(15,110,o),
(121,-12,o),
(273,-12,cs),
(412,-12,o),
(546,89,o),
(573,280,c)
);
},
{
closed = 1;
nodes = (
(516,143,o),
(415,31,o),
(271,31,cs),
(129,31,o),
(65,143,o),
(85,280,cs),
(105,417,o),
(201,529,o),
(343,529,cs),
(487,529,o),
(556,417,o),
(536,280,cs)
);
},
{
closed = 1;
nodes = (
(545,0,l),
(653,750,l),
(605,750,l),
(552,377,l),
(558,280,l),
(519,160,l),
(496,0,l)
);
},
{
closed = 1;
nodes = (
(662,575,l),
(706,575,l),
(762,750,l),
(707,750,l)
);
}
);
width = 665;
},
{
layerId = "94E3E3CE-F120-43CB-86CD-384D4F8954CA";
shapes = (
{
closed = 1;
nodes = (
(467,280,l),
(494,471,o),
(430,572,o),
(301,572,cs),
(166,572,o),
(44,461,o),
(18,280,cs),
(-8,99,o),
(82,-12,o),
(217,-12,cs),
(347,-12,o),
(450,89,o),
(477,280,c)
);
},
{
closed = 1;
nodes = (
(424,200,o),
(364,133,o),
(282,133,cs),
(200,133,o),
(161,200,o),
(172,280,cs),
(183,360,o),
(242,427,o),
(324,427,cs),
(406,427,o),
(446,360,o),
(435,280,cs)
);
},
{
closed = 1;
nodes = (
(541,0,l),
(648,750,l),
(496,750,l),
(443,377,l),
(448,280,l),
(418,160,l),
(395,0,l)
);
},
{
closed = 1;
nodes = (
(632,505,l),
(750,505,l),
(816,750,l),
(687,750,l)
);
}
);
width = 701;
}
);
unicode = 271;
},
{
glyphname = dcroat;
layers = (
{
layerId = "9DC41883-06BB-4704-B6B2-BE0FA655C222";
shapes = (
{
closed = 1;
nodes = (
(739,620,l),
(748,680,l),
(491,680,l),
(482,620,l)
);
},
{
closed = 1;
nodes = (
(536,280,l),
(563,471,o),
(476,572,o),
(340,572,cs),
(193,572,o),
(58,453,o),
(33,280,cs),
(8,107,o),
(110,-12,o),
(257,-12,cs),
(393,-12,o),
(518,89,o),
(545,280,c)
);
},
{
closed = 1;
nodes = (
(490,159,o),
(401,60,o),
(274,60,cs),
(149,60,o),
(93,159,o),
(110,280,cs),
(127,401,o),
(212,500,o),
(337,500,cs),
(464,500,o),
(524,401,o),
(507,280,cs)
);
},
{
closed = 1;
nodes = (
(544,0,l),
(651,750,l),
(574,750,l),
(521,377,l),
(526,280,l),
(490,160,l),
(467,0,l)
);
}
);
width = 675;
},
{
layerId = "6DBF946B-D1CC-402F-8126-F74CC4A62DD0";
shapes = (
{
closed = 1;
nodes = (
(745,632,l),
(751,672,l),
(513,672,l),
(507,632,l)
);
},
{
closed = 1;
nodes = (
(563,280,l),
(590,471,o),
(495,572,o),
(356,572,cs),
(204,572,o),
(63,450,o),
(39,280,cs),
(15,110,o),
(121,-12,o),
(273,-12,cs),
(412,-12,o),
(546,89,o),
(573,280,c)
);
},
{
closed = 1;
nodes = (
(516,143,o),
(415,31,o),
(271,31,cs),
(129,31,o),
(65,143,o),
(85,280,cs),
(105,417,o),
(201,529,o),
(343,529,cs),
(487,529,o),
(556,417,o),
(536,280,cs)
);
},
{
closed = 1;
nodes = (
(545,0,l),
(653,750,l),
(605,750,l),
(552,377,l),
(558,280,l),
(519,160,l),
(496,0,l)
);
}
);
width = 689;
},
{
layerId = "94E3E3CE-F120-43CB-86CD-384D4F8954CA";
shapes = (
{
closed = 1;
nodes = (
(726,590,l),
(741,700,l),
(436,700,l),
(420,590,l)
);
},
{
closed = 1;
nodes = (
(467,280,l),
(494,471,o),
(430,572,o),
(301,572,cs),
(166,572,o),
(44,461,o),
(18,280,cs),
(-8,99,o),
(82,-12,o),
(217,-12,cs),
(347,-12,o),
(450,89,o),
(477,280,c)
);
},
{
closed = 1;
nodes = (
(424,200,o),
(364,133,o),
(282,133,cs),
(200,133,o),
(161,200,o),
(172,280,cs),
(183,360,o),
(242,427,o),
(324,427,cs),
(406,427,o),
(446,360,o),
(435,280,cs)
);
},
{
closed = 1;
nodes = (
(541,0,l),
(648,750,l),
(496,750,l),
(443,377,l),
(448,280,l),
(418,160,l),
(395,0,l)
);
}
);
width = 641;
}
);
unicode = 273;
},
{
glyphname = degree;
layers = (
{
layerId = "9DC41883-06BB-4704-B6B2-BE0FA655C222";
shapes = (
{
closed = 1;
nodes = (
(289,400,o),
(368,470,o),
(381,560,cs),
(394,650,o),
(335,720,o),
(247,720,cs),
(159,720,o),
(80,650,o),
(67,560,cs),
(54,470,o),
(113,400,o),
(201,400,cs)
);
},
{
closed = 1;
nodes = (
(144,615,o),
(186,654,o),
(238,654,cs),
(290,654,o),
(320,615,o),
(312,560,cs),
(304,505,o),
(263,466,o),
(211,466,cs),
(159,466,o),
(128,505,o),
(136,560,cs)
);
}
);
width = 368;
},
{
layerId = "6DBF946B-D1CC-402F-8126-F74CC4A62DD0";
shapes = (
{
closed = 1;
nodes = (
(276,424,o),
(349,489,o),
(361,572,cs),
(373,655,o),
(319,720,o),
(239,720,cs),
(159,720,o),
(86,655,o),
(74,572,cs),
(62,489,o),
(116,424,o),
(196,424,cs)
);
},
{
closed = 1;
nodes = (
(127,635,o),
(174,680,o),
(233,680,cs),
(292,680,o),
(327,635,o),
(318,572,cs),
(309,509,o),
(261,464,o),
(202,464,cs),
(143,464,o),
(109,509,o),
(118,572,cs)
);
}
);
width = 351;
},
{
layerId = "94E3E3CE-F120-43CB-86CD-384D4F8954CA";
shapes = (
{
closed = 1;
nodes = (
(321,340,o),
(417,423,o),
(432,530,cs),
(447,637,o),
(376,720,o),
(268,720,cs),
(160,720,o),
(64,637,o),
(49,530,cs),
(34,423,o),
(105,340,o),
(213,340,cs)
);
},
{
closed = 1;
nodes = (
(187,565,o),
(215,590,o),
(249,590,cs),
(283,590,o),
(304,565,o),
(299,530,cs),
(294,495,o),
(266,470,o),
(232,470,cs),
(198,470,o),
(177,495,o),
(182,530,cs)
);
}
);
width = 409;
}
);
unicode = 176;
},
{
glyphname = dieresiscomb;
layers = (
{
layerId = "9DC41883-06BB-4704-B6B2-BE0FA655C222";
shapes = (
{
closed = 1;
nodes = (
(256,647,l),
(268,735,l),
(176,735,l),
(163,647,l)
);
},
{
closed = 1;
nodes = (
(414,647,l),
(427,735,l),
(335,735,l),
(322,647,l)
);
}
);
width = 472;
},
{
layerId = "6DBF946B-D1CC-402F-8126-F74CC4A62DD0";
shapes = (
{
closed = 1;
nodes = (
(252,667,l),
(262,733,l),
(190,733,l),
(181,667,l)
);
},
{
closed = 1;
nodes = (
(400,667,l),
(410,733,l),
(338,733,l),
(329,667,l)
);
}
);
width = 470;
},
{
layerId = "94E3E3CE-F120-43CB-86CD-384D4F8954CA";
shapes = (
{
closed = 1;
nodes = (
(263,598,l),
(283,740,l),
(140,740,l),
(120,598,l)
);
},
{
closed = 1;
nodes = (
(449,598,l),
(470,740,l),
(327,740,l),
(306,598,l)
);
}
);
width = 478;
}
);
unicode = 776;
},
{
glyphname = divide;
layers = (
{
layerId = "9DC41883-06BB-4704-B6B2-BE0FA655C222";
shapes = (
{
closed = 1;
nodes = (
(509,293,l),
(519,367,l),
(49,367,l),
(38,293,l)
);
},
{
closed = 1;
nodes = (
(293,90,l),
(308,190,l),
(210,190,l),
(195,90,l)
);
},
{
closed = 1;
nodes = (
(348,470,l),
(362,570,l),
(264,570,l),
(250,470,l)
);
}
);
width = 543;
},
{
layerId = "6DBF946B-D1CC-402F-8126-F74CC4A62DD0";
shapes = (
{
closed = 1;
nodes = (
(507,308,l),
(513,352,l),
(50,352,l),
(44,308,l)
);
},
{
closed = 1;
nodes = (
(284,105,l),
(294,181,l),
(220,181,l),
(209,105,l)
);
},
{
closed = 1;
nodes = (
(337,479,l),
(348,555,l),
(273,555,l),
(263,479,l)
);
}
);
width = 542;
},
{
layerId = "94E3E3CE-F120-43CB-86CD-384D4F8954CA";
shapes = (
{
closed = 1;
nodes = (
(514,255,l),
(535,405,l),
(45,405,l),
(24,255,l)
);
},
{
closed = 1;
nodes = (
(318,53,l),
(341,213,l),
(184,213,l),
(161,53,l)
);
},
{
closed = 1;
nodes = (
(375,447,l),
(397,607,l),
(241,607,l),
(218,447,l)
);
}
);
width = 544;
}
);
unicode = 247;
},
{
glyphname = dollar;
layers = (
{
layerId = "17E587F8-1658-4EA1-B692-913C09764BD7";
name = "#instance";
shapes = (
{
closed = 1;
nodes = (
(277,-9,o),
(357,51,o),
(373,161,cs),
(388,267,o),
(328,317,o),
(271,356,cs),
(228,386,l),
(163,429,o),
(125,465,o),
(135,538,cs),
(146,616,o),
(191,662,o),
(259,662,cs),
(280,662,ls),
(320,662,o),
(361,649,o),
(419,624,c),
(427,677,l),
(380,695,o),
(333,709,o),
(283,709,cs),
(177,709,o),
(98,649,o),
(82,539,cs),
(67,433,o),
(126,383,o),
(183,344,cs),
(226,314,l),
(293,270,o),
(329,235,o),
(319,162,cs),
(308,85,o),
(263,38,o),
(195,38,cs),
(174,38,ls),
(136,38,o),
(93,51,o),
(35,76,c),
(27,23,l),
(74,5,o),
(121,-9,o),
(171,-9,cs)
);
},
{
closed = 1;
nodes = (
(186,-90,l),
(199.029,6.451,l),
(200.029,26.451,l),
(292.866,673.29,l),
(297.866,693.29,l),
(311,790,l),
(269,790,l),
(254.866,693.29,l),
(253.866,673.29,l),
(161.029,26.451,l),
(157.029,6.451,l),
(143,-90,l)
);
}
);
width = 434;
},
{
layerId = "9DC41883-06BB-4704-B6B2-BE0FA655C222";
shapes = (
{
closed = 1;
nodes = (
(296,-8,o),
(382,56,o),
(398,170,cs),
(413,272,o),
(359,323,o),
(296,363,cs),
(237,401,ls),
(180,437,o),
(146,467,o),
(155,530,cs),
(164,594,o),
(202,634,o),
(260,634,cs),
(289,634,ls),
(331,634,o),
(375,618,o),
(438,590,c),
(450,675,l),
(399,694,o),
(347,708,o),
(293,708,cs),
(178,708,o),
(93,644,o),
(77,530,cs),
(62,428,o),
(115,377,o),
(178,337,cs),
(238,299,ls),
(295,262,o),
(328,233,o),
(319,170,cs),
(310,106,o),
(272,66,o),
(214,66,cs),
(185,66,ls),
(144,66,o),
(99,82,o),
(36,110,c),
(24,25,l),
(75,6,o),
(127,-8,o),
(181,-8,cs)
);
},
{
closed = 1;
nodes = (
(211,-90,l),
(226,20,l),
(227,40,l),
(313,640,l),
(318,660,l),
(336,790,l),
(264,790,l),
(245,660,l),
(244,640,l),
(159,40,l),
(154,20,l),
(138,-90,l)
);
}
);
width = 454;
},
{
layerId = "6DBF946B-D1CC-402F-8126-F74CC4A62DD0";
shapes = (
{
closed = 1;
nodes = (
(277,-9,o),
(357,51,o),
(373,161,cs),
(388,267,o),
(328,317,o),
(271,356,c),
(228,386,l),
(163,429,o),
(125,465,o),
(135,538,cs),
(146,616,o),
(191,662,o),
(259,662,cs),
(280,662,ls),
(320,662,o),
(361,649,o),
(419,624,c),
(427,677,l),
(380,695,o),
(333,709,o),
(283,709,cs),
(177,709,o),
(98,649,o),
(82,539,cs),
(67,433,o),
(126,383,o),
(183,344,c),
(226,314,l),
(293,270,o),
(329,235,o),
(319,162,cs),
(308,85,o),
(263,38,o),
(195,38,cs),
(174,38,ls),
(136,38,o),
(93,51,o),
(35,76,c),
(27,23,l),
(74,5,o),
(121,-9,o),
(171,-9,cs)
);
},
{
closed = 1;
nodes = (
(186,-90,l),
(199.029,6.451,l),
(200.029,26.451,l),
(292.866,673.29,l),
(297.866,693.29,l),
(311,790,l),
(269,790,l),
(254.866,693.29,l),
(253.866,673.29,l),
(161.029,26.451,l),
(157.029,6.451,l),
(143,-90,l)
);
}
);
width = 434;
},
{
layerId = "94E3E3CE-F120-43CB-86CD-384D4F8954CA";
shapes = (
{
closed = 1;
nodes = (
(344,-6,o),
(442,69,o),
(460,193,cs),
(473,285,o),
(436,338,o),
(359,381,cs),
(257,438,ls),
(223,457,o),
(199,471,o),
(204,509,cs),
(208,540,o),
(230,563,o),
(263,563,cs),
(312,563,ls),
(359,563,o),
(411,541,o),
(485,504,c),
(509,669,l),
(448,691,o),
(382,706,o),
(318,706,cs),
(181,706,o),
(82,631,o),
(64,507,cs),
(51,415,o),
(89,362,o),
(166,319,cs),
(267,262,ls),
(301,243,o),
(326,228,o),
(321,190,cs),
(317,159,o),
(294,137,o),
(261,137,cs),
(212,137,ls),
(165,137,o),
(113,159,o),
(39,196,c),
(16,31,l),
(77,9,o),
(143,-6,o),
(207,-6,cs)
);
},
{
closed = 1;
nodes = (
(248,-90,l),
(264,20,l),
(265,40,l),
(351,640,l),
(356,660,l),
(374,790,l),
(276,790,l),
(258,660,l),
(257,640,l),
(171,40,l),
(166,20,l),
(150,-90,l)
);
}
);
width = 504;
}
);
unicode = 36;
},
{
glyphname = dotaccentcomb;
layers = (
{
layerId = "9DC41883-06BB-4704-B6B2-BE0FA655C222";
shapes = (
{
closed = 1;
nodes = (
(336,648,l),
(350,750,l),
(246,750,l),
(232,648,l)
);
}
);
width = 462;
},
{
layerId = "6DBF946B-D1CC-402F-8126-F74CC4A62DD0";
shapes = (
{
closed = 1;
nodes = (
(326,668,l),
(337,746,l),
(257,746,l),
(246,668,l)
);
}
);
width = 460;
},
{
layerId = "94E3E3CE-F120-43CB-86CD-384D4F8954CA";
shapes = (
{
closed = 1;
nodes = (
(360,598,l),
(383,760,l),
(221,760,l),
(197,598,l)
);
}
);
width = 466;
}
);
unicode = 775;
},
{
glyphname = downArrow;
layers = (
{
layerId = "9DC41883-06BB-4704-B6B2-BE0FA655C222";
shapes = (
{
closed = 1;
nodes = (
(330,40,l),
(410,40,l),
(410,340,l),
(410,700,l),
(330,700,l),
(330,340,l)
);
},
{
closed = 1;
nodes = (
(400,55,l),
(158,293,l),
(50,398,l),
(50,293,l),
(370,-10,l),
(690,293,l),
(690,398,l),
(582,293,l),
(340,55,l)
);
}
);
width = 740;
},
{
layerId = "6DBF946B-D1CC-402F-8126-F74CC4A62DD0";
shapes = (
{
closed = 1;
nodes = (
(352,24,l),
(404,24,l),
(402,324,l),
(402,700,l),
(354,700,l),
(354,324,l)
);
},
{
closed = 1;
nodes = (
(396,27,l),
(165,258,l),
(58,364,l),
(58,301,l),
(378,-10,l),
(698,301,l),
(698,364,l),
(591,258,l),
(360,27,l)
);
}
);
width = 756;
},
{
layerId = "94E3E3CE-F120-43CB-86CD-384D4F8954CA";
shapes = (
{
closed = 1;
nodes = (
(267.572,80,l),
(414.572,80,l),
(419.715,380,l),
(419.001,700,l),
(262.001,700,l),
(262.715,380,l)
);
},
{
closed = 1;
nodes = (
(400.143,125,l),
(134.715,380,l),
(27.144,482,l),
(27.,273,l),
(340.429,-10,l),
(654.,273,l),
(654.144,482,l),
(546.715,380,l),
(282.143,125,l)
);
}
);
width = 681;
}
);
unicode = 8595;
},
{
glyphname = downBlackTriangle;
layers = (
{
layerId = "9DC41883-06BB-4704-B6B2-BE0FA655C222";
shapes = (
{
closed = 1;
nodes = (
(5,700,l),
(416,-13,l),
(827,700,l)
);
}
);
width = 832;
},
{
layerId = "6DBF946B-D1CC-402F-8126-F74CC4A62DD0";
shapes = (
{
closed = 1;
nodes = (
(5,700,l),
(416,-13,l),
(827,700,l)
);
}
);
width = 832;
},
{
layerId = "94E3E3CE-F120-43CB-86CD-384D4F8954CA";
shapes = (
{
closed = 1;
nodes = (
(5.001,700,l),
(406.857,-13,l),
(810.001,700,l)
);
}
);
width = 814;
}
);
unicode = 9660;
},
{
glyphname = downWhiteTriangle;
layers = (
{
layerId = "9DC41883-06BB-4704-B6B2-BE0FA655C222";
shapes = (
{
closed = 1;
nodes = (
(5,700,l),
(416,-13,l),
(827,700,l)
);
},
{
closed = 1;
nodes = (
(144,620,l),
(688,620,l),
(416,147,l)
);
}
);
width = 832;
},
{
layerId = "6DBF946B-D1CC-402F-8126-F74CC4A62DD0";
shapes = (
{
closed = 1;
nodes = (
(5,700,l),
(416,-13,l),
(827,700,l)
);
},
{
closed = 1;
nodes = (
(100,646,l),
(732,646,l),
(416,96,l)
);
}
);
width = 832;
},
{
layerId = "94E3E3CE-F120-43CB-86CD-384D4F8954CA";
shapes = (
{
closed = 1;
nodes = (
(5.001,700,l),
(406.857,-13,l),
(810.001,700,l)
);
},
{
closed = 1;
nodes = (
(248.572,556,l),
(566.572,556,l),
(407.715,275,l)
);
}
);
width = 814;
}
);
unicode = 9661;
},
